<svg xmlns="http://www.w3.org/2000/svg" width="760" height="304" viewBox="0 0 760 304" role="img" aria-labelledby="t d">
<title id="t">Spread sparse mesh: nodes reached at each hop distance</title>
<desc id="d">Horizontal bar chart. Nodes at hop 0 through 7: 5, 8, 12, 15, 10, 6, 10, 10. Cumulative reach crosses the 40-node floor at hop 3.</desc>
<g font-family="system-ui,-apple-system,'Segoe UI',Roboto,sans-serif" font-size="13">
<text x="38" y="24" text-anchor="end" fill="#5a5a5a" font-size="11">hop</text>
<text x="50" y="24" fill="#5a5a5a" font-size="11">nodes at this hop</text>
<text x="585" y="24" text-anchor="end" fill="#5a5a5a" font-size="11">cumulative</text>
<line x1="50.0" y1="38" x2="50.0" y2="270" stroke="#e3e3e3" stroke-width="1"/>
<text x="50.0" y="288" text-anchor="middle" fill="#5a5a5a" font-size="10">0</text>
<line x1="143.3" y1="38" x2="143.3" y2="270" stroke="#e3e3e3" stroke-width="1"/>
<text x="143.3" y="288" text-anchor="middle" fill="#5a5a5a" font-size="10">10</text>
<line x1="236.7" y1="38" x2="236.7" y2="270" stroke="#e3e3e3" stroke-width="1"/>
<text x="236.7" y="288" text-anchor="middle" fill="#5a5a5a" font-size="10">20</text>
<line x1="330.0" y1="38" x2="330.0" y2="270" stroke="#e3e3e3" stroke-width="1"/>
<text x="330.0" y="288" text-anchor="middle" fill="#5a5a5a" font-size="10">30</text>
<line x1="423.3" y1="38" x2="423.3" y2="270" stroke="#e3e3e3" stroke-width="1"/>
<text x="423.3" y="288" text-anchor="middle" fill="#5a5a5a" font-size="10">40</text>
<text x="38" y="59" text-anchor="end" fill="#5a5a5a">0</text>
<rect x="50" y="46" width="46.7" height="18" rx="4" fill="#2F8F5F"/>
<text x="500" y="59" text-anchor="end" fill="#1a1a1a">5</text>
<text x="585" y="59" text-anchor="end" fill="#5a5a5a">5</text>
<text x="38" y="87" text-anchor="end" fill="#5a5a5a">1</text>
<rect x="50" y="74" width="74.7" height="18" rx="4" fill="#2F8F5F"/>
<text x="500" y="87" text-anchor="end" fill="#1a1a1a">8</text>
<text x="585" y="87" text-anchor="end" fill="#5a5a5a">13</text>
<text x="38" y="115" text-anchor="end" fill="#5a5a5a">2</text>
<rect x="50" y="102" width="112.0" height="18" rx="4" fill="#2F8F5F"/>
<text x="500" y="115" text-anchor="end" fill="#1a1a1a">12</text>
<text x="585" y="115" text-anchor="end" fill="#5a5a5a">25</text>
<text x="38" y="143" text-anchor="end" fill="#5a5a5a">3</text>
<rect x="50" y="130" width="140.0" height="18" rx="4" fill="#2F8F5F"/>
<text x="500" y="143" text-anchor="end" fill="#1a1a1a">15</text>
<text x="585" y="143" text-anchor="end" fill="#5a5a5a">40</text>
<text x="600" y="143" fill="#1a1a1a" font-size="11">reaches 40, base hop</text>
<text x="38" y="171" text-anchor="end" fill="#5a5a5a">4</text>
<rect x="50" y="158" width="93.3" height="18" rx="4" fill="#2F8F5F"/>
<text x="500" y="171" text-anchor="end" fill="#1a1a1a">10</text>
<text x="585" y="171" text-anchor="end" fill="#5a5a5a">50</text>
<text x="600" y="171" fill="#1a1a1a" font-size="11">extension candidate</text>
<text x="38" y="199" text-anchor="end" fill="#5a5a5a">5</text>
<rect x="50" y="186" width="56.0" height="18" rx="4" fill="#2F8F5F"/>
<text x="500" y="199" text-anchor="end" fill="#1a1a1a">6</text>
<text x="585" y="199" text-anchor="end" fill="#5a5a5a">56</text>
<text x="38" y="227" text-anchor="end" fill="#5a5a5a">6</text>
<rect x="50" y="214" width="93.3" height="18" rx="4" fill="#2F8F5F"/>
<text x="500" y="227" text-anchor="end" fill="#1a1a1a">10</text>
<text x="585" y="227" text-anchor="end" fill="#5a5a5a">66</text>
<text x="38" y="255" text-anchor="end" fill="#5a5a5a">7</text>
<rect x="50" y="242" width="93.3" height="18" rx="4" fill="#2F8F5F"/>
<text x="500" y="255" text-anchor="end" fill="#1a1a1a">10</text>
<text x="585" y="255" text-anchor="end" fill="#5a5a5a">76</text>
</g></svg>