<svg enable-background="new 0 0 1000 1000" height="1000" viewBox="0 0 1000 850" width="1000" xmlns="http://www.w3.org/2000/svg"><path d="m793.432 662.59-137.692 86.831c-14.256 8.991-31.763 11.205-47.809 6.048l-150.931-48.516c-16.15-5.191-33.773-2.912-48.072 6.215l-110.5 70.537c-12.049 7.613-27.988 4.017-35.6-8.032-1.314-2.08-2.324-4.338-3-6.704l-95.37-334.34c-3.14-11.011 1.351-22.776 11.03-28.893l139.16-87.949c15.618-9.871 34.81-12.308 52.4-6.655l146.115 46.968c17.655 5.675 36.92 3.198 52.566-6.758l104.638-66.589c12.025-7.651 27.976-4.106 35.627 7.919 1.336 2.099 2.361 4.381 3.044 6.774l95.355 334.294c3.133 10.983-1.326 22.718-10.961 28.85z" fill="#cccdcf" opacity=".4"/><path d="m798.808 627.107-117.578 74.822c-15.646 9.956-34.911 12.433-52.566 6.758l-146.125-46.968c-17.59-5.653-36.781-3.216-52.4 6.654l-126.339 79.849c-12.049 7.613-27.988 4.017-35.6-8.032-1.314-2.08-2.324-4.338-3-6.704l-95.369-334.34c-3.141-11.011 1.35-22.775 11.029-28.893l139.153-87.953c15.619-9.87 34.81-12.307 52.4-6.654l146.124 46.969c17.655 5.675 36.921 3.198 52.566-6.759l104.638-66.588c12.025-7.651 27.976-4.106 35.627 7.919 1.336 2.099 2.361 4.381 3.044 6.774l95.355 334.292c3.135 10.983-1.323 22.721-10.959 28.854z" fill="#fff"/><path d="m468.513 623.926-21.863-61.686-103.319 35.371-32.307-93.606-84.151 16.748 59 206.834c.536 1.864 2.245 3.145 4.184 3.137.801-.003 1.583-.24 2.251-.681l120.114-75.913c-.522-.611 56.091-30.204 56.091-30.204z" fill="#eaf4f7"/><g fill="#363a5a"><path d="m290.059 755.24c-3.53-.005-7.029-.656-10.325-1.921-8.502-3.203-14.973-10.261-17.427-19.009l-95.369-334.341c-3.45-12.289 1.55-25.388 12.311-32.252l139.161-87.949c16.363-10.368 36.488-12.924 54.923-6.975l146.124 46.969c16.804 5.425 35.152 3.066 50.037-6.433l104.639-66.588c13.421-8.542 31.225-4.586 39.767 8.835 1.492 2.344 2.637 4.892 3.399 7.565l95.355 334.293c3.435 12.256-1.529 25.319-12.236 32.2l-117.578 74.826c-16.389 10.46-36.592 13.058-55.094 7.084l-146.125-46.969c-16.742-5.404-35.021-3.083-49.881 6.334l-126.34 79.849c-4.585 2.919-9.906 4.474-15.341 4.482zm63.241-479.595c-11.218.003-22.204 3.192-31.68 9.195l-139.166 87.949c-8.52 5.434-12.478 15.805-9.747 25.534l95.369 334.34c3.455 12.112 16.074 19.131 28.187 15.676 2.093-.597 4.09-1.49 5.929-2.653l126.343-79.849c16.362-10.368 36.487-12.924 54.922-6.975l146.125 46.969c16.804 5.426 35.153 3.067 50.037-6.434l117.581-74.822 1.611 2.531-1.611-2.531c8.48-5.449 12.411-15.795 9.688-25.5l-95.359-334.288c-3.454-12.113-16.073-19.132-28.186-15.678-2.116.603-4.133 1.51-5.989 2.691l-104.639 66.591c-16.389 10.46-36.592 13.057-55.094 7.083l-146.121-46.969c-5.881-1.893-12.022-2.858-18.2-2.86z"/><path d="m360.065 587.576c-1.105-.001-1.999-.897-1.998-2.002.001-.91.617-1.705 1.498-1.934.018 0 1.8-.471 4.754-1.334 1.06-.31 2.171.298 2.482 1.359s-.298 2.171-1.359 2.482c-3.013.88-4.794 1.345-4.869 1.365-.166.042-.337.064-.508.064z"/><path d="m379.416 581.573c-1.105 0-2-.896-2-2 0-.851.539-1.609 1.343-1.889 3.269-1.137 6.462-2.313 9.488-3.5 1.029-.402 2.189.107 2.591 1.136s-.107 2.189-1.136 2.591c-3.073 1.2-6.312 2.393-9.629 3.546-.211.075-.433.115-.657.116zm23.584-9.573c-1.105-.003-1.997-.901-1.994-2.006.002-.765.44-1.461 1.128-1.794 3.2-1.537 6.19-3.1 8.883-4.659.957-.552 2.18-.224 2.733.733.552.957.224 2.18-.733 2.732-2.78 1.6-5.859 3.219-9.153 4.8-.27.128-.565.195-.864.194zm21.438-13.565c-1.105-.001-1.999-.897-1.999-2.001 0-.557.233-1.089.642-1.467 2.37-2.075 4.337-4.57 5.8-7.359.492-.989 1.693-1.391 2.682-.899.973.485 1.381 1.658.918 2.642-1.68 3.24-3.947 6.14-6.685 8.553-.368.343-.853.534-1.357.534zm144.541-18.935h-.222c-1.105 0-2-.895-2-2s.895-2 2-2h.249c.842 0 1.728-.018 2.636-.055 2.154-.009 4.289-.41 6.3-1.182 1.01-.448 2.191.007 2.639 1.017s-.007 2.191-1.016 2.639c-2.47.987-5.104 1.504-7.764 1.522-.96.039-1.901.059-2.822.059zm-15.133-2.28c-.222 0-.442-.037-.651-.11-3.375-1.149-6.556-2.806-9.432-4.913-.906-.632-1.128-1.879-.495-2.785.632-.906 1.879-1.128 2.785-.495.028.019.055.039.082.06 2.551 1.866 5.37 3.333 8.362 4.35 1.045.356 1.604 1.493 1.248 2.538-.278.812-1.042 1.357-1.899 1.355zm-124.3-1.272c-.768-.001-1.468-.442-1.8-1.135-1.179-2.456-2.763-5.316-4.845-8.744-.573-.944-.272-2.175.672-2.748s2.175-.272 2.748.672c2.149 3.541 3.8 6.515 5.031 9.09.478.996.058 2.191-.938 2.668-.269.129-.563.196-.862.197zm154-11.147c-1.044-.001-1.912-.806-1.992-1.847-.08-1.049-.183-2.142-.288-3.275-.206-2.2-.419-4.478-.53-6.931-.05-1.105.804-2.041 1.909-2.091s2.041.804 2.091 1.909c.107 2.358.315 4.585.516 6.741.108 1.156.212 2.271.294 3.34.085 1.101-.739 2.063-1.84 2.148h-.001c-.064.005-.116.005-.167.005zm-48.579-3.5c-.7.001-1.35-.365-1.713-.964-1.79-2.992-3.355-6.113-4.683-9.337-.427-1.019.054-2.191 1.073-2.618s2.191.054 2.617 1.073c1.248 3.045 2.722 5.993 4.407 8.819.572.945.27 2.175-.675 2.747-.312.189-.67.289-1.034.289zm-118.651-7.123c-.667.001-1.29-.331-1.662-.885-1.825-2.716-3.743-5.53-5.719-8.415-.625-.911-.392-2.156.519-2.781s2.156-.392 2.781.519c1.983 2.9 3.909 5.721 5.739 8.446.616.917.373 2.159-.544 2.776-.329.221-.717.34-1.114.34zm167.826-14.656c-1.105.001-2.001-.894-2.001-1.999 0-.175.023-.35.068-.519.927-3.439 2.284-6.747 4.038-9.846.543-.962 1.763-1.301 2.725-.758s1.301 1.763.758 2.725c-1.589 2.806-2.818 5.802-3.658 8.915-.233.878-1.029 1.489-1.938 1.487zm-58.768-1.714c-.879-.001-1.654-.575-1.911-1.415-.866-2.827-1.711-5.722-2.568-8.661l-.332-1.138c-.31-1.06.299-2.171 1.359-2.481s2.171.299 2.481 1.36l.332 1.139c.852 2.921 1.692 5.8 2.552 8.611.323 1.056-.271 2.174-1.328 2.498-.189.058-.387.087-.585.087zm-123.428-4.677c-.663.001-1.283-.326-1.656-.874-1.9-2.8-3.817-5.626-5.71-8.467-.612-.92-.364-2.161.556-2.774s2.161-.364 2.774.556c1.885 2.83 3.789 5.648 5.687 8.433.622.913.386 2.157-.527 2.779-.331.226-.723.347-1.124.347zm195.538-14.844c-1.105.001-2.001-.894-2.002-1.998-.001-.552.227-1.08.63-1.459 2.544-2.376 5.246-4.576 8.088-6.586.9-.641 2.149-.431 2.789.469s.431 2.149-.469 2.789c-2.694 1.904-5.255 3.989-7.666 6.241-.372.353-.866.55-1.379.549zm-79.485-4.863c-.862.001-1.628-.55-1.9-1.368-1.15-3.451-2.276-6.545-3.441-9.46-.434-1.016.039-2.191 1.055-2.624 1.016-.434 2.191.039 2.624 1.055.012.028.023.056.034.085 1.2 2.988 2.348 6.155 3.523 9.681.349 1.048-.218 2.18-1.266 2.53-.205.068-.419.103-.635.102h.006zm-130.059-1.577c-.691.001-1.334-.355-1.7-.941-1.921-3.075-3.7-6.029-5.3-8.779-.555-.955-.23-2.179.725-2.734s2.179-.23 2.734.725c1.576 2.713 3.337 5.63 5.235 8.669.585.937.301 2.171-.636 2.756-.317.198-.684.304-1.058.304zm230.462-7.862c-1.105.002-2.002-.892-2.003-1.997-.001-.748.415-1.434 1.078-1.778 2.907-1.511 6.034-3 9.294-4.438 1.015-.437 2.191.032 2.628 1.047.432 1.004-.022 2.168-1.019 2.615-3.18 1.4-6.227 2.853-9.058 4.325-.286.151-.605.23-.928.231zm23.359-9.983c-1.105-.001-1.999-.897-1.999-2.001.001-.845.532-1.599 1.329-1.883.55-.196 1.106-.391 1.667-.586 2.181-.824 3.945-2.483 4.9-4.61.484-.993 1.682-1.405 2.674-.92s1.405 1.682.92 2.674c-.014.028-.028.056-.043.083-1.423 3.039-3.987 5.393-7.136 6.552-.554.192-1.1.383-1.639.575-.219.08-.449.121-.682.121zm-133.791-3.916c-.72 0-1.384-.386-1.74-1.012-1.63-2.877-3.432-5.653-5.395-8.314-.658-.888-.471-2.141.417-2.798s2.141-.471 2.798.417c2.056 2.791 3.943 5.704 5.65 8.721.546.96.211 2.181-.749 2.727-.301.171-.641.261-.988.262zm-132.495-.448c-.772.001-1.475-.443-1.807-1.14-1.62-3.4-2.978-6.617-4.038-9.566-.384-1.036.144-2.187 1.18-2.571s2.187.144 2.571 1.18c.005.013.009.025.014.038 1.015 2.824 2.322 5.919 3.885 9.2.475.997.052 2.191-.945 2.666-.27.131-.567.199-.867.198zm276.865-16.651h-.04c-1.104-.022-1.981-.936-1.959-2.04v-.001c.011-.508.016-1.02.016-1.536 0-2.576-.132-5.408-.393-8.417-.071-1.102.765-2.053 1.867-2.124 1.068-.069 2 .715 2.117 1.778.272 3.124.409 6.072.409 8.763 0 .544-.005 1.083-.016 1.618-.022 1.089-.912 1.96-2.001 1.959zm-160.149-2.629c-.488.001-.959-.177-1.325-.5-2.459-2.176-5.068-4.176-7.807-5.986-.921-.609-1.174-1.851-.565-2.772s1.851-1.174 2.772-.565c2.895 1.915 5.653 4.029 8.253 6.329.828.731.908 1.994.177 2.823-.381.432-.929.679-1.505.677zm-123.624-4.986h-.067c-1.104-.035-1.97-.959-1.935-2.063v-.001c-.018-3.886 1.334-7.655 3.819-10.643.705-.85 1.966-.968 2.816-.263s.968 1.966.263 2.816c-.021.026-.044.051-.066.076-1.881 2.292-2.885 5.178-2.834 8.143-.035 1.078-.918 1.933-1.996 1.935zm102.189-8.263c-.264 0-.525-.052-.769-.154-3.054-1.267-6.173-2.373-9.343-3.312-1.059-.315-1.661-1.429-1.346-2.488s1.429-1.661 2.488-1.346c3.305.98 6.556 2.133 9.74 3.454 1.02.425 1.501 1.596 1.076 2.616-.31.745-1.039 1.23-1.846 1.23zm-24.349-6.746c-.109 0-.218-.009-.326-.027-3.183-.523-6.521-.953-9.924-1.279-1.1-.106-1.905-1.083-1.799-2.182s1.083-1.905 2.182-1.799c3.49.335 6.919.777 10.189 1.314 1.09.178 1.83 1.205 1.653 2.295-.158.967-.994 1.678-1.975 1.678zm-60.783-.152c-1.105-.002-1.998-.899-1.996-2.004.002-1.015.764-1.868 1.772-1.983 3.444-.393 6.871-.733 10.186-1.011 1.101-.092 2.068.726 2.16 1.827s-.725 2.068-1.826 2.16c-3.275.274-6.662.61-10.066 1-.076.008-.153.012-.23.011zm25.364-1.878c-1.105.016-2.013-.867-2.029-1.971s.867-2.013 1.971-2.029c3.483-.1 6.945-.13 10.261-.08 1.105.017 1.987.925 1.97 2.03s-.925 1.987-2.03 1.97c-3.257-.049-6.659-.022-10.084.079zm238.89-.635c-.968-.001-1.796-.694-1.967-1.647-.566-3.156-1.238-6.487-1.995-9.9-.185-1.089.547-2.122 1.636-2.307 1.013-.172 1.991.451 2.264 1.441.77 3.465 1.452 6.85 2.029 10.059.195 1.087-.528 2.127-1.615 2.322h-.001c-.116.021-.233.033-.351.034z"/><path d="m643.979 382.227c-.897-.001-1.684-.598-1.925-1.462-.826-2.949-1.378-4.724-1.383-4.742-.35-1.048.215-2.181 1.262-2.531 1.048-.35 2.181.215 2.531 1.262.009.026.017.052.025.079.024.074.573 1.843 1.416 4.854.298 1.064-.322 2.167-1.386 2.466-.176.049-.357.074-.54.074z"/></g><circle cx="353.612" cy="588.178" fill="#3dc0cb" opacity=".22" r="48.192"/><circle cx="353.612" cy="588.178" fill="#3dc0cb" r="27.946"/><path d="m353.612 560.232c-8.684-.005-16.874 4.033-22.158 10.924 12.763-8.675 30.142-5.361 38.817 7.402 6.78 9.975 6.394 23.175-.957 32.737 12.767-8.673 16.087-26.053 7.414-38.82-5.201-7.657-13.857-12.242-23.114-12.243z" fill="#64c7cf"/><path d="m353.611 619.123c-17.091-.001-30.946-13.856-30.945-30.947s13.856-30.946 30.947-30.945c17.091 0 30.946 13.856 30.945 30.947-.019 17.083-13.864 30.927-30.947 30.945zm0-55.891c-13.777.001-24.946 11.17-24.945 24.947s11.17 24.946 24.947 24.945c13.777 0 24.945-11.169 24.945-24.946-.015-13.771-11.176-24.931-24.947-24.946z" fill="#363a5a"/><path d="m366.347 338.84 80.153 15.193-18.407-32.352-66.339-23.145c-7.749-2.703-16.255-2.217-23.645 1.352l-145.767 88.543c-1.607 1.025-2.354 2.981-1.839 4.816l23.508 82.412 64.089-15.847-11.77-47.212z" fill="#87d5f7" stroke="#259ad6" stroke-linecap="round" stroke-linejoin="round" stroke-width="4"/><path d="m493.37 542.929 45.739 11.516 22.113 50.681-49.273-8.077z" fill="#fddcbf" stroke="#ecb072" stroke-linecap="round" stroke-linejoin="round" stroke-width="4"/><path d="m643.426 391.11c-37.157 0-67.278-10.776-67.278-24.069s30.121-24.07 67.278-24.07 67.277 10.777 67.277 24.07-30.121 24.069-67.277 24.069z" fill="#eaf4f7"/><path d="m664.538 527.486 83.927-36.534 33.155 101.009-135.902 77.232-24.91-70.3 53.14-29.891z" fill="#fddcbf" stroke="#ecb072" stroke-linecap="round" stroke-linejoin="round" stroke-width="4"/><path d="m742.481 249.681c0-57.8-46.914-104.344-103.761-101.642-50.9 2.42-94.292 45.782-94.292 98.124 0 75.717 99 134.1 99 134.1s99.053-58.383 99.053-130.582z" fill="#ee4637"/><path d="m679.585 350.964c-16.066 12.534-38.62 12.456-54.6-.188-29.3-23.2-71.677-65.323-71.677-114.86.073-21.033 7.03-41.463 19.808-58.17-17.573 17.746-28.689 41.93-28.689 68.417 0 75.717 99 134.1 99 134.1s40.374-23.8 69.571-59.8c-10.306 11.043-21.479 21.242-33.413 30.501z" fill="#cd3c27"/><path d="m638.72 148.039c-17.847.92-35.103 6.702-49.9 16.723 11.652-5.619 24.313-8.844 37.234-9.485 56.847-2.7 103.762 43.841 103.762 101.642 0 56.61-60.894 104.724-87.192 122.863.515.314.8.484.8.484s99.055-58.386 99.055-130.585c.002-57.8-46.912-104.344-103.759-101.642z" fill="#f07378"/><path d="m643.426 288.605c-22.509.001-40.756-18.246-40.757-40.755s18.246-40.756 40.755-40.757 40.756 18.246 40.757 40.755v.001c0 22.509-18.246 40.755-40.755 40.756z" fill="#fff"/><path d="m643.426 291.605c-24.166.001-43.756-19.589-43.757-43.755s19.589-43.756 43.755-43.757 43.756 19.589 43.757 43.755v.001c-.027 24.154-19.601 43.728-43.755 43.756zm0-81.511c-20.852-.001-37.756 16.903-37.757 37.755s16.903 37.756 37.755 37.757 37.756-16.903 37.757-37.755c0-.001 0-.001 0-.002-.025-20.841-16.914-37.73-37.755-37.755z" fill="#363a5a"/><path d="m643.426 383.266c-.536 0-1.063-.143-1.525-.416-18.023-11.225-34.805-24.328-50.065-39.091-32.978-32.059-50.408-65.807-50.408-97.6 0-53.212 43.581-98.575 97.149-101.122 27.552-1.369 54.444 8.721 74.295 27.877 20.861 20.085 32.636 47.804 32.609 76.762 0 30.361-17.448 63.051-50.457 94.538-15.338 14.543-32.116 27.487-50.075 38.632-.461.273-.987.418-1.523.42zm.021-232.339c-1.525 0-3.054.036-4.585.109-24.056 1.143-46.866 11.6-64.225 29.436-17.546 18.03-27.209 41.36-27.209 65.692 0 20.989 8.414 54.2 48.5 93.205 14.53 14.032 30.445 26.556 47.5 37.38 12.407-7.728 96.056-62.268 96.056-127.068.03-27.318-11.074-53.469-30.75-72.42-17.528-16.907-40.934-26.348-65.287-26.334z" fill="#363a5a"/></svg>