<?xml version="1.0" encoding="UTF-8" standalone="no"?>
<!DOCTYPE svg PUBLIC "-//W3C//DTD SVG 1.1//EN" "http://www.w3.org/Graphics/SVG/1.1/DTD/svg11.dtd">
<svg
  xmlns="http://www.w3.org/2000/svg"
  xmlns:xlink="http://www.w3.org/1999/xlink"
  version="1.1"
  width="512"
  height="512"
  viewBox="0 0 512 512"
  xml:space="preserve"
>
  <defs>
    <clipPath id="roundedCorners">
      <rect x="0" y="0" width="512" height="512" rx="64" ry="64"/>
    </clipPath>
  </defs>
  <g clip-path="url(#roundedCorners)">
    <g transform="matrix(1 0 0 1 256 256)">
      <path
        style="fill: rgb(103, 234, 148); fill-rule: nonzero; opacity: 1"
        transform=" translate(-256, -256)"
        d="M 0 0 L 512 0 L 512 512 L 0 512 z"
      />
    </g>
    <g transform="matrix(1.79 0 0 1.79 313.74 258.36)">
      <path
        style="stroke: none; fill: rgb(44, 45, 60); fill-rule: evenodd; opacity: 1"
        transform=" translate(-250.97, -362.41)"
        d="M 250.908 330.267 L 193.126 415.005 L 180.938 406.694 L 244.802 313.037 C 246.174 311.024 248.453 309.819 250.889 309.816 C 253.326 309.814 255.606 311.015 256.982 313.026 L 320.994 406.536 L 308.821 414.869 L 250.908 330.267 Z"
      />
    </g>
    <g transform="matrix(1.81 0 0 1.81 145 256.15)">
      <path
        style="stroke: none; fill: rgb(44, 45, 60); fill-rule: evenodd; opacity: 1"
        transform=" translate(-115.14, -528.06)"
        d="M 87.642 581.398 L 154.757 482.977 L 142.638 474.713 L 75.523 573.134 L 87.642 581.398 Z"
      />
    </g>
  </g>
</svg>
