<svg width="457" height="60" xmlns="http://www.w3.org/2000/svg"><g fill="none" fill-rule="evenodd"><path d="M34.62 18.179C36.75 21.249 38 24.979 38 29s-1.25 7.75-3.38 10.821L29.697 34.9A12.16 12.16 0 0 0 31.214 29c0-2.14-.55-4.15-1.516-5.9l4.921-4.921ZM29.82 13.38 24.9 18.302A12.16 12.16 0 0 0 19 16.786c-6.746 0-12.214 5.468-12.214 12.214S12.254 41.214 19 41.214c2.14 0 4.15-.55 5.9-1.516l4.921 4.921A18.912 18.912 0 0 1 19 48C8.507 48 0 39.493 0 29s8.507-19 19-19c4.021 0 7.75 1.25 10.821 3.38Z" fill="#7FADF2"/><path d="M34.62 18.179C36.75 21.249 38 24.979 38 29s-1.25 7.75-3.38 10.821L29.697 34.9A12.16 12.16 0 0 0 31.214 29c0-2.14-.55-4.15-1.516-5.9l4.921-4.921Z" fill="#B8D3F4"/><g fill="#515F71"><path d="M110.7 13.6c-3.7 0-7.2 1.4-9.8 3.6v-2.3c0-.6-.5-1-1-1h-3.4c-.6 0-1 .5-1 1v43.7c0 .5.4 1 1 1h3.5c.5 0 1-.4 1-1V40.3c2.6 2.2 6.1 3.6 9.8 3.6 8.4 0 15.2-6.8 15.2-15.2-.2-8.4-7-15.1-15.3-15.1Zm0 24.8c-5.4 0-9.7-4.4-9.7-9.7 0-5.4 4.4-9.7 9.7-9.7 5.4 0 9.7 4.4 9.7 9.7 0 5.4-4.4 9.7-9.7 9.7ZM176.6 13.6c-3.7 0-7.1 1.3-9.7 3.5v-1.3c0-1.1-.9-2-2-2h-1.5c-1.1 0-2 .9-2 2v26.3c0 .8.7 1.5 1.5 1.5h2.5c.8 0 1.5-.7 1.5-1.5V29.6c0-5.4 4.4-10.6 9.7-10.6 3.5 0 9.7 1.9 9.7 10.6v12.5c0 .8.7 1.5 1.5 1.5h2.5c.8 0 1.5-.7 1.5-1.5V29.5c0-13.2-10.4-15.9-15.2-15.9ZM158.2 25.5c-1.5-7.1-8-12.3-15.6-11.9-7.6.4-13.8 6.4-14.3 14-.6 8.9 6.4 16.3 15.1 16.3 5.9 0 11-3.3 13.5-8.2.4-.7-.1-1.6-.9-1.8l-3-.6c-.5-.1-1 .1-1.3.6-1.7 2.7-4.8 4.6-8.2 4.6-3 0-5.7-1.4-7.5-3.5l17.2-7.2 5-2.3Zm-24.4 4.4c0-.4-.1-.8-.1-1.2 0-5.4 4.4-9.7 9.7-9.7 3 0 5.8 1.4 7.5 3.6l-17.1 7.3ZM77.3 13.4c-8.4 0-15.2 6.8-15.2 15.2 0 8.4 6.8 15.2 15.2 15.2 8.4 0 15.2-6.8 15.2-15.2 0-8.4-6.8-15.2-15.2-15.2Zm0 24.9c-5.4 0-9.7-4.4-9.7-9.7 0-5.4 4.4-9.7 9.7-9.7 5.4 0 9.7 4.4 9.7 9.7.1 5.3-4.3 9.7-9.7 9.7ZM258.7 13.3c-8.4 0-15.2 6.8-15.2 15.2 0 8.4 6.8 15.2 15.2 15.2 8.4 0 15.2-6.8 15.2-15.2 0-8.4-6.8-15.2-15.2-15.2Zm0 24.9c-5.4 0-9.7-4.4-9.7-9.7 0-5.4 4.4-9.7 9.7-9.7 5.4 0 9.7 4.4 9.7 9.7 0 5.3-4.3 9.7-9.7 9.7ZM390.6 4.3h-3.1c-.7 0-1.2.5-1.2 1.2v3.1c0 .7.5 1.2 1.2 1.2h3.1c.7 0 1.2-.5 1.2-1.2V5.5c0-.7-.6-1.2-1.2-1.2ZM454.5 33.7l-3.6-.7c-.4-.1-.8.1-1 .5-1.7 2.8-4.8 4.7-8.3 4.7-3 0-5.7-1.4-7.5-3.5l17.2-7.2 5.2-2.2c-1.5-7.1-8-12.3-15.6-11.9-7.6.4-13.8 6.5-14.3 14.1-.6 8.9 6.4 16.3 15.1 16.3 6 0 11.2-3.5 13.6-8.5.2-.8-.2-1.5-.8-1.6Zm-22.7-5.3c0-5.4 4.4-9.7 9.7-9.7 3 0 5.8 1.4 7.5 3.6l-17.2 7.3v-1.2ZM332 25.2c-1.5-7.1-8-12.3-15.6-11.9-7.6.4-13.8 6.5-14.3 14.1-.6 8.9 6.4 16.3 15.1 16.3 6 0 11.2-3.5 13.7-8.6.3-.6-.1-1.3-.7-1.4l-3.6-.7c-.4-.1-.8.1-1 .5-1.7 2.8-4.8 4.7-8.3 4.7-3 0-5.7-1.4-7.5-3.5l17.2-7.2 5-2.3Zm-24.5 4.4c0-.4-.1-.8-.1-1.2 0-5.4 4.4-9.7 9.7-9.7 3 0 5.8 1.4 7.5 3.6l-17.1 7.3ZM283.2.7h-3.6c-.5 0-.9.4-.9.9v40.7c0 .5.4 1 1 1h3.5c.5 0 1-.4 1-1V1.6c0-.5-.5-.9-1-.9ZM295.5.7h-3.6c-.5 0-.9.4-.9.9v40.7c0 .5.4 1 1 1h3.5c.5 0 1-.4 1-1V1.6c-.1-.5-.5-.9-1-.9ZM390.6 13.4h-3.1c-.7 0-1.2.5-1.2 1.2v27.6c0 .7.5 1.2 1.2 1.2h3.1c.7 0 1.2-.5 1.2-1.2V14.5c0-.6-.6-1.1-1.2-1.1ZM380.4 13.4h-3.9c-.4 0-.8-.4-.8-.8V1.5c0-.4-.4-.8-.8-.8H371c-.4 0-.8.4-.8.8v11.1c0 .4-.4.8-.8.8h-3.9c-.4 0-.8.4-.8.8V18c0 .4.4.8.8.8h3.9c.4 0 .8.4.8.8v22.7c0 .6.5 1 1 1h3.4c.6 0 1-.5 1-1V19.6c0-.4.4-.8.8-.8h3.9c.4 0 .8-.4.8-.8v-3.9c.1-.4-.2-.7-.7-.7ZM358.8 35.5c-.4-.4-1.1-.4-1.5 0-1.8 1.7-4.1 2.7-6.8 2.7-5.7 0-10.3-5-9.7-10.8.5-4.5 4.2-8.1 8.7-8.6 2.8-.3 5.5.7 7.4 2.4.6.5 1.5.5 2.1-.1l1.7-1.7c.6-.6.6-1.6 0-2.2-2.9-2.7-6.9-4.2-11.2-3.9-7.7.5-13.9 6.9-14.2 14.7-.3 8.6 6.6 15.6 15.2 15.6 4.1 0 7.9-1.6 10.6-4.3.4-.4.4-1.1 0-1.5l-2.3-2.3ZM239.1 35.5c-.4-.4-1.1-.4-1.5 0-1.8 1.7-4.1 2.7-6.8 2.7-5.7 0-10.3-5-9.7-10.8.5-4.5 4.2-8.1 8.7-8.6 2.8-.3 5.5.7 7.4 2.4.6.5 1.5.5 2.1-.1l1.7-1.7c.6-.6.6-1.6 0-2.2-2.9-2.7-6.9-4.2-11.2-3.9-7.7.5-13.9 6.9-14.2 14.7-.3 8.6 6.6 15.6 15.2 15.6 4.1 0 7.9-1.6 10.6-4.3.4-.4.4-1.1 0-1.5l-2.3-2.3ZM424 13.7h-4.9c-.1 0-.2.1-.2.2l-8 23.5c-.1.2-.4.2-.4 0l-8-23.5c0-.1-.1-.2-.2-.2h-4.9c-.2 0-.3.2-.2.3l9.9 29.1c0 .1.1.2.2.2h6.8c.1 0 .2-.1.2-.2l9.9-29.1c.1-.1 0-.3-.2-.3Z"/></g></g></svg>