<svg xmlns="http://www.w3.org/2000/svg" viewBox="0 0 87.633 15.638"><defs><style>.cls-1{fill:#006ac6;}.cls-2{fill:#97999b;}</style></defs><g id="Layer_2" data-name="Layer 2"><g id="Layer_1-2" data-name="Layer 1"><path class="cls-1" d="M5.825,4.112a1.31,1.31,0,0,1,.1.475c.009.211.023.852.027,1.037.212-.012.487-.025.672-.025s.8-.011,1.689-.032h.058A.807.807,0,0,0,9.217,4.8c.062-.591-.262-.734-.276-.74A3.281,3.281,0,0,0,7.62,3.826c-.071,0-.143,0-.217.006a8.592,8.592,0,0,0-1.578.28"/><path class="cls-1" d="M4.819,3.431a1.335,1.335,0,0,1,.359.091,1.387,1.387,0,0,1,.443.268,8.15,8.15,0,0,1,1.693-.326c.11-.008.224-.012.336-.012a4.239,4.239,0,0,1,1.193.162,1.779,1.779,0,0,0,.185-.167.88.88,0,0,0,.224-.442.948.948,0,0,0-.1-.686c-.1-.195-.368-.293-.791-.293-.057,0-.12,0-.19-.006S8,2.013,7.894,2.013a4.1,4.1,0,0,0-1.44.268,4.868,4.868,0,0,0-1.635,1.15"/><path class="cls-1" d="M2.811,3.4a1.493,1.493,0,0,1,.574.106,1.449,1.449,0,0,1,.418.323,1.159,1.159,0,0,1,.14-.162,1.027,1.027,0,0,1,.326-.189c.144-.159.417-.454.693-.707a4.777,4.777,0,0,1,1.772-1A4.23,4.23,0,0,1,8,1.612a6.257,6.257,0,0,1,.65.033A1.084,1.084,0,0,0,9.118.858C9.109.21,8.871.059,7.784.006A5.249,5.249,0,0,0,4.314,1.25,5.743,5.743,0,0,0,2.811,3.4"/><path class="cls-1" d="M7.431,5.953c.011.184.026.48.026.673,0,.258.02,1.172.028,1.562l0,.184a.809.809,0,0,0,.766.846,1.39,1.39,0,0,0,.144.008c.477,0,.6-.28.6-.283A3.467,3.467,0,0,0,9.225,7.4a8.609,8.609,0,0,0-.282-1.577,1.331,1.331,0,0,1-.475.1c-.086,0-.336.011-1.037.026"/><path class="cls-1" d="M9.441,8.844a1.614,1.614,0,0,0,.168.186.887.887,0,0,0,.441.223,1.067,1.067,0,0,0,.23.026.953.953,0,0,0,.456-.121c.2-.1.295-.369.295-.791,0-.052,0-.109,0-.171v-.02a4.144,4.144,0,0,0-.26-1.721A4.9,4.9,0,0,0,9.625,4.821a1.3,1.3,0,0,1-.092.358,1.361,1.361,0,0,1-.267.444,8.316,8.316,0,0,1,.325,1.691,4.419,4.419,0,0,1-.15,1.53"/><path class="cls-1" d="M11.411,8.653a1.065,1.065,0,0,0,.777.466c.655-.01.809-.247.863-1.333a5.289,5.289,0,0,0-1.246-3.471,5.712,5.712,0,0,0-2.152-1.5,1.512,1.512,0,0,1-.106.574,1.471,1.471,0,0,1-.323.417,1.165,1.165,0,0,1,.161.14,1.009,1.009,0,0,1,.19.327c.129.116.442.4.706.693a4.774,4.774,0,0,1,1,1.771,5.319,5.319,0,0,1,.133,1.918"/><path class="cls-1" d="M7.112,7.445c-.161.009-.472.026-.672.026s-.746.01-1.656.03l-.091,0a.808.808,0,0,0-.845.766c-.063.589.261.734.274.74a3.469,3.469,0,0,0,1.54.229,8.567,8.567,0,0,0,1.577-.281,1.331,1.331,0,0,1-.1-.475C7.133,8.344,7.124,8,7.113,7.45Z"/><path class="cls-1" d="M4.222,9.455a1.7,1.7,0,0,0-.186.168.881.881,0,0,0-.224.441.954.954,0,0,0,.1.686c.1.2.368.294.791.294.054,0,.115,0,.182,0,.094,0,.186.008.289.008a4.118,4.118,0,0,0,1.441-.268,4.9,4.9,0,0,0,1.634-1.15,1.3,1.3,0,0,1-.359-.092,1.4,1.4,0,0,1-.444-.267,8.21,8.21,0,0,1-1.691.325c-.111.008-.224.013-.338.013a4.229,4.229,0,0,1-1.191-.163"/><path class="cls-1" d="M4.412,11.425a1.087,1.087,0,0,0-.466.787c.01.648.247.8,1.334.852.063,0,.127.005.19.005a5.361,5.361,0,0,0,3.28-1.25,5.717,5.717,0,0,0,1.5-2.152,1.519,1.519,0,0,1-.574-.106,1.457,1.457,0,0,1-.417-.323,1.143,1.143,0,0,1-.141.161,1.025,1.025,0,0,1-.326.189c-.094.106-.389.431-.694.708a4.767,4.767,0,0,1-1.771,1,4.2,4.2,0,0,1-1.268.167,6.3,6.3,0,0,1-.65-.033"/><path class="cls-1" d="M4.657,3.854c-.472,0-.592.271-.6.283a3.482,3.482,0,0,0-.229,1.538,8.537,8.537,0,0,0,.281,1.578,1.361,1.361,0,0,1,.475-.1c.1,0,.363-.012,1.037-.025-.008-.151-.025-.47-.025-.673s-.011-.774-.031-1.688v-.06A.81.81,0,0,0,4.8,3.861a1.383,1.383,0,0,0-.143-.007"/><path class="cls-1" d="M2.776,3.8a.961.961,0,0,0-.456.121c-.2.1-.295.37-.295.792,0,.057,0,.12,0,.191a4.126,4.126,0,0,0,.26,1.72A4.91,4.91,0,0,0,3.431,8.259,1.325,1.325,0,0,1,3.522,7.9a1.382,1.382,0,0,1,.268-.444,8.161,8.161,0,0,1-.326-1.691,4.464,4.464,0,0,1,.15-1.529,1.614,1.614,0,0,0-.168-.186.873.873,0,0,0-.44-.224,1.142,1.142,0,0,0-.23-.026"/><path class="cls-1" d="M.857,3.961c-.647.009-.8.246-.852,1.333A5.283,5.283,0,0,0,1.25,8.764a5.724,5.724,0,0,0,2.153,1.5,1.479,1.479,0,0,1,.106-.574,1.459,1.459,0,0,1,.322-.417,1.219,1.219,0,0,1-.161-.141,1,1,0,0,1-.188-.326c-.131-.117-.444-.4-.708-.694a4.774,4.774,0,0,1-1-1.77,5.3,5.3,0,0,1-.133-1.919,1.06,1.06,0,0,0-.777-.465Z"/><path class="cls-1" d="M22.377,1.982a2.894,2.894,0,0,1,1.1.2,2.517,2.517,0,0,1,.838.539,2.337,2.337,0,0,1,.532.793,2.535,2.535,0,0,1,.185.97,2.725,2.725,0,0,1-.337,1.383,2.113,2.113,0,0,1-1.1.888v.026a1.538,1.538,0,0,1,.609.31,1.737,1.737,0,0,1,.393.5,2.315,2.315,0,0,1,.222.628,5.582,5.582,0,0,1,.1.685c.009.144.017.313.026.508s.023.393.044.6a3.892,3.892,0,0,0,.1.577,1.329,1.329,0,0,0,.209.464H23.3a3.507,3.507,0,0,1-.2-1.028q-.038-.6-.114-1.142a1.805,1.805,0,0,0-.431-1.04,1.484,1.484,0,0,0-1.079-.33H19.484v3.54H17.493V1.982Zm-.711,4.1a1.507,1.507,0,0,0,1.028-.3,1.265,1.265,0,0,0,.343-.989,1.209,1.209,0,0,0-.343-.958,1.527,1.527,0,0,0-1.028-.3H19.484V6.08Z"/><path class="cls-1" d="M30.946,1.982l3.387,9.058H32.265L31.58,9.023H28.193l-.711,2.017h-2L28.9,1.982Zm.114,5.557L29.918,4.215h-.025l-1.18,3.324Z"/><polygon class="cls-1" points="36.754 1.982 36.754 5.737 40.294 1.982 42.781 1.982 39.241 5.56 43.123 11.04 40.624 11.04 37.896 6.968 36.754 8.122 36.754 11.04 34.762 11.04 34.762 1.982 36.754 1.982"/><rect class="cls-2" x="17.525" y="12.93" width="0.462" height="2.1"/><path class="cls-2" d="M18.375,13.958a.7.7,0,0,1,.141-.253.654.654,0,0,1,.233-.169.847.847,0,0,1,.636,0,.665.665,0,0,1,.231.169.7.7,0,0,1,.141.253,1.021,1.021,0,0,1,.047.313,1,1,0,0,1-.047.311.7.7,0,0,1-.141.252.662.662,0,0,1-.231.168.873.873,0,0,1-.636,0,.652.652,0,0,1-.233-.168.7.7,0,0,1-.141-.252,1,1,0,0,1-.047-.311,1.021,1.021,0,0,1,.047-.313m.254.558a.523.523,0,0,0,.1.18.439.439,0,0,0,.151.11.464.464,0,0,0,.368,0,.429.429,0,0,0,.151-.11.523.523,0,0,0,.1-.18.765.765,0,0,0,.037-.245.776.776,0,0,0-.037-.246.533.533,0,0,0-.1-.18.423.423,0,0,0-.151-.112.464.464,0,0,0-.368,0,.432.432,0,0,0-.151.112.533.533,0,0,0-.1.18.776.776,0,0,0-.037.246.765.765,0,0,0,.037.245"/><polygon class="cls-2" points="19.748 13.318 19.748 12.93 21.468 12.93 21.468 13.318 20.839 13.318 20.839 15.029 20.377 15.029 20.377 13.318 19.748 13.318"/><polygon class="cls-2" points="22.823 12.93 23.485 14.694 24.149 12.93 24.531 12.93 24.531 15.029 24.267 15.029 24.267 13.283 24.261 13.283 23.605 15.029 23.367 15.029 22.711 13.283 22.705 13.283 22.705 15.029 22.441 15.029 22.441 12.93 22.823 12.93"/><path class="cls-2" d="M26.311,15.024a.36.36,0,0,1-.18.038.216.216,0,0,1-.154-.054.239.239,0,0,1-.057-.178.606.606,0,0,1-.24.178.793.793,0,0,1-.295.054.78.78,0,0,1-.2-.024.436.436,0,0,1-.16-.073.358.358,0,0,1-.108-.131.52.52,0,0,1,0-.407.378.378,0,0,1,.116-.134.547.547,0,0,1,.165-.078c.061-.017.124-.032.19-.044s.133-.024.2-.031a1.207,1.207,0,0,0,.163-.029.268.268,0,0,0,.112-.056.14.14,0,0,0,.041-.108.248.248,0,0,0-.031-.132.205.205,0,0,0-.079-.076.3.3,0,0,0-.109-.035.689.689,0,0,0-.119-.009.522.522,0,0,0-.265.06.254.254,0,0,0-.114.228H24.94a.536.536,0,0,1,.06-.239.453.453,0,0,1,.141-.157.6.6,0,0,1,.2-.087,1.1,1.1,0,0,1,.243-.026,1.39,1.39,0,0,1,.2.015.546.546,0,0,1,.184.06.357.357,0,0,1,.132.127.415.415,0,0,1,.05.215v.78a.64.64,0,0,0,.01.129c.007.028.03.041.069.041a.291.291,0,0,0,.077-.011Zm-.406-.78a.289.289,0,0,1-.123.051,1.589,1.589,0,0,1-.161.027l-.169.023a.635.635,0,0,0-.153.043.277.277,0,0,0-.11.083.237.237,0,0,0-.043.148.2.2,0,0,0,.026.1.212.212,0,0,0,.064.069.288.288,0,0,0,.093.038.5.5,0,0,0,.112.011.6.6,0,0,0,.211-.033.453.453,0,0,0,.144-.085.33.33,0,0,0,.083-.111.292.292,0,0,0,.026-.113Z"/><path class="cls-2" d="M27.661,15.029v-.205h-.006a.369.369,0,0,1-.193.182.752.752,0,0,1-.292.056A.687.687,0,0,1,26.863,15a.641.641,0,0,1-.218-.173.77.77,0,0,1-.131-.253,1.1,1.1,0,0,1,0-.612.69.69,0,0,1,.13-.251.612.612,0,0,1,.217-.171.694.694,0,0,1,.3-.063.733.733,0,0,1,.127.012.628.628,0,0,1,.135.04.563.563,0,0,1,.128.073.393.393,0,0,1,.1.113h.006V12.93h.25v2.1Zm-.9-.539a.549.549,0,0,0,.085.181A.409.409,0,0,0,27,14.8a.441.441,0,0,0,.211.047.412.412,0,0,0,.358-.181.562.562,0,0,0,.081-.183.872.872,0,0,0,.025-.209.9.9,0,0,0-.026-.216.544.544,0,0,0-.084-.184.427.427,0,0,0-.148-.128.474.474,0,0,0-.221-.048.422.422,0,0,0-.215.05.389.389,0,0,0-.141.132.543.543,0,0,0-.076.188.984.984,0,0,0-.024.218.765.765,0,0,0,.028.207"/><path class="cls-2" d="M29.382,14.932a.687.687,0,0,1-.43.13A.78.78,0,0,1,28.637,15a.613.613,0,0,1-.225-.164.7.7,0,0,1-.137-.253,1.239,1.239,0,0,1-.052-.321.917.917,0,0,1,.053-.317.767.767,0,0,1,.149-.251.665.665,0,0,1,.227-.164.687.687,0,0,1,.286-.059.626.626,0,0,1,.337.084.66.66,0,0,1,.214.213.854.854,0,0,1,.112.282,1.186,1.186,0,0,1,.025.291H28.488a.594.594,0,0,0,.024.19.422.422,0,0,0,.085.159.412.412,0,0,0,.15.11.52.52,0,0,0,.214.042.43.43,0,0,0,.26-.074.353.353,0,0,0,.134-.223H29.6a.6.6,0,0,1-.22.384m-.061-.976a.429.429,0,0,0-.09-.137.457.457,0,0,0-.136-.091.436.436,0,0,0-.172-.034.448.448,0,0,0-.175.034.408.408,0,0,0-.133.093.438.438,0,0,0-.089.137.509.509,0,0,0-.038.166h.873a.5.5,0,0,0-.04-.168"/><polygon class="cls-2" points="32.076 12.93 32.076 13.165 30.905 13.165 30.905 13.833 31.996 13.833 31.996 14.068 30.905 14.068 30.905 14.794 32.085 14.794 32.085 15.029 30.626 15.029 30.626 12.93 32.076 12.93"/><path class="cls-2" d="M33.742,15.024a.358.358,0,0,1-.179.038.213.213,0,0,1-.154-.054.235.235,0,0,1-.058-.178.606.606,0,0,1-.24.178.793.793,0,0,1-.295.054.78.78,0,0,1-.2-.024.452.452,0,0,1-.16-.073.346.346,0,0,1-.107-.131.434.434,0,0,1-.04-.2.449.449,0,0,1,.044-.211.378.378,0,0,1,.116-.134.558.558,0,0,1,.165-.078c.062-.017.125-.032.19-.044s.134-.024.2-.031a1.253,1.253,0,0,0,.164-.029.264.264,0,0,0,.111-.056.141.141,0,0,0,.042-.108.248.248,0,0,0-.032-.132.205.205,0,0,0-.079-.076.291.291,0,0,0-.109-.035A.689.689,0,0,0,33,13.7a.516.516,0,0,0-.264.06.255.255,0,0,0-.115.228h-.25a.536.536,0,0,1,.059-.239.453.453,0,0,1,.141-.157.6.6,0,0,1,.2-.087,1.1,1.1,0,0,1,.242-.026,1.414,1.414,0,0,1,.2.015.548.548,0,0,1,.183.06.36.36,0,0,1,.133.127.415.415,0,0,1,.049.215v.78a.559.559,0,0,0,.011.129c.006.028.03.041.069.041a.289.289,0,0,0,.076-.011Zm-.4-.78a.3.3,0,0,1-.124.051,1.5,1.5,0,0,1-.161.027l-.169.023a.614.614,0,0,0-.152.043.28.28,0,0,0-.111.083.237.237,0,0,0-.042.148.2.2,0,0,0,.025.1.2.2,0,0,0,.065.069.283.283,0,0,0,.092.038.5.5,0,0,0,.112.011.609.609,0,0,0,.212-.033.477.477,0,0,0,.144-.085.34.34,0,0,0,.082-.111.277.277,0,0,0,.027-.113Z"/><path class="cls-2" d="M34.189,14.69a.259.259,0,0,0,.092.091.4.4,0,0,0,.13.049.721.721,0,0,0,.148.014,1.088,1.088,0,0,0,.124-.008A.444.444,0,0,0,34.8,14.8a.226.226,0,0,0,.089-.069.183.183,0,0,0,.036-.116.166.166,0,0,0-.074-.147.647.647,0,0,0-.183-.081c-.074-.021-.154-.039-.24-.056a1.243,1.243,0,0,1-.24-.07.516.516,0,0,1-.184-.128.334.334,0,0,1-.073-.23.368.368,0,0,1,.051-.2.433.433,0,0,1,.133-.133A.6.6,0,0,1,34.3,13.5a.871.871,0,0,1,.2-.025,1.175,1.175,0,0,1,.238.022.543.543,0,0,1,.193.077.389.389,0,0,1,.134.147.559.559,0,0,1,.059.23h-.25a.262.262,0,0,0-.038-.122.258.258,0,0,0-.083-.078.364.364,0,0,0-.11-.042.556.556,0,0,0-.122-.013.615.615,0,0,0-.113.009.388.388,0,0,0-.105.03.216.216,0,0,0-.076.059.147.147,0,0,0-.029.1.14.14,0,0,0,.045.107.387.387,0,0,0,.116.071,1.117,1.117,0,0,0,.159.047c.059.012.118.026.176.039a1.773,1.773,0,0,1,.184.05.62.62,0,0,1,.159.078.4.4,0,0,1,.112.122.363.363,0,0,1,.042.182.426.426,0,0,1-.057.23.449.449,0,0,1-.15.147.638.638,0,0,1-.209.078,1.288,1.288,0,0,1-.23.022,1.056,1.056,0,0,1-.242-.027.574.574,0,0,1-.2-.086.437.437,0,0,1-.142-.159.544.544,0,0,1-.058-.24h.249a.288.288,0,0,0,.039.14"/><path class="cls-2" d="M36.044,15.232a1.483,1.483,0,0,1-.087.188.5.5,0,0,1-.094.125.3.3,0,0,1-.115.071.429.429,0,0,1-.145.022.665.665,0,0,1-.089-.006.4.4,0,0,1-.085-.02v-.229a.548.548,0,0,0,.075.025.371.371,0,0,0,.072.01.218.218,0,0,0,.128-.037.232.232,0,0,0,.078-.1l.1-.256-.6-1.512h.282l.445,1.244h.006l.426-1.244h.264Z"/><polygon class="cls-2" points="52.401 7.919 54.923 7.919 54.923 8.39 53.933 8.39 53.933 11.033 53.388 11.033 53.388 8.39 52.401 8.39 52.401 7.919"/><path class="cls-2" d="M55.009,10.035a.882.882,0,0,0,.036.252.631.631,0,0,0,.111.214.524.524,0,0,0,.188.146.612.612,0,0,0,.271.055.6.6,0,0,0,.351-.094.551.551,0,0,0,.2-.281h.471a.934.934,0,0,1-.366.569.972.972,0,0,1-.3.148,1.2,1.2,0,0,1-.351.051,1.219,1.219,0,0,1-.472-.087.981.981,0,0,1-.346-.245,1.036,1.036,0,0,1-.214-.375,1.525,1.525,0,0,1-.072-.48,1.381,1.381,0,0,1,.076-.456,1.174,1.174,0,0,1,.218-.379,1.05,1.05,0,0,1,.343-.26,1.039,1.039,0,0,1,.454-.1,1.011,1.011,0,0,1,.477.111,1.028,1.028,0,0,1,.351.295,1.186,1.186,0,0,1,.2.421,1.281,1.281,0,0,1,.033.491Zm1.16-.328a.8.8,0,0,0-.051-.227.6.6,0,0,0-.113-.189.562.562,0,0,0-.175-.131.5.5,0,0,0-.228-.05.6.6,0,0,0-.238.045.551.551,0,0,0-.183.127.613.613,0,0,0-.122.19.633.633,0,0,0-.05.235Z"/><path class="cls-2" d="M58.357,9.533a.462.462,0,0,0-.168-.316.541.541,0,0,0-.346-.107.732.732,0,0,0-.205.032.494.494,0,0,0-.2.122.682.682,0,0,0-.152.249,1.175,1.175,0,0,0-.062.417,1.208,1.208,0,0,0,.033.279.794.794,0,0,0,.1.249.58.58,0,0,0,.186.176.526.526,0,0,0,.275.068.5.5,0,0,0,.36-.135.63.63,0,0,0,.176-.38h.5a1.1,1.1,0,0,1-.334.674,1.021,1.021,0,0,1-.7.234,1.144,1.144,0,0,1-.469-.09.992.992,0,0,1-.343-.244,1.033,1.033,0,0,1-.211-.369,1.434,1.434,0,0,1-.072-.462,1.57,1.57,0,0,1,.07-.476,1.083,1.083,0,0,1,.209-.386.975.975,0,0,1,.347-.257,1.177,1.177,0,0,1,.486-.094,1.377,1.377,0,0,1,.373.05.984.984,0,0,1,.314.151.794.794,0,0,1,.225.253.873.873,0,0,1,.1.362Z"/><path class="cls-2" d="M59.026,7.919h.5V9.075h.009A.722.722,0,0,1,59.8,8.82a.8.8,0,0,1,.4-.1.845.845,0,0,1,.585.192.736.736,0,0,1,.213.576v1.548h-.5V9.616a.617.617,0,0,0-.113-.387.415.415,0,0,0-.327-.119.544.544,0,0,0-.227.045.5.5,0,0,0-.171.127.621.621,0,0,0-.109.19.709.709,0,0,0-.039.231v1.33h-.5Z"/><path class="cls-2" d="M61.563,8.782v.389h.009a.657.657,0,0,1,.279-.33.83.83,0,0,1,.441-.124,1.127,1.127,0,0,1,.395.061.629.629,0,0,1,.255.172.649.649,0,0,1,.135.273,1.545,1.545,0,0,1,.039.362v1.448h-.274v-1.4a1.261,1.261,0,0,0-.027-.268.581.581,0,0,0-.091-.217A.44.44,0,0,0,62.547,9a.648.648,0,0,0-.277-.053.7.7,0,0,0-.294.059.642.642,0,0,0-.219.161.752.752,0,0,0-.139.245.978.978,0,0,0-.055.307v1.313h-.274V8.782Z"/><path class="cls-2" d="M64.888,8.813a1,1,0,0,1,.334.257,1.131,1.131,0,0,1,.205.378,1.546,1.546,0,0,1,0,.92,1.131,1.131,0,0,1-.205.378.985.985,0,0,1-.334.255,1.162,1.162,0,0,1-.911,0,.975.975,0,0,1-.334-.255,1.114,1.114,0,0,1-.2-.378,1.546,1.546,0,0,1,0-.92,1.114,1.114,0,0,1,.2-.378.993.993,0,0,1,.334-.257,1.129,1.129,0,0,1,.911,0m-.8.218a.773.773,0,0,0-.247.218.988.988,0,0,0-.148.308,1.257,1.257,0,0,0,0,.7,1,1,0,0,0,.148.308.761.761,0,0,0,.247.218.756.756,0,0,0,.689,0,.748.748,0,0,0,.246-.218,1,1,0,0,0,.149-.308,1.257,1.257,0,0,0,0-.7.99.99,0,0,0-.149-.308.759.759,0,0,0-.246-.218.756.756,0,0,0-.689,0"/><rect class="cls-2" x="65.763" y="7.919" width="0.275" height="3.115"/><path class="cls-2" d="M67.827,8.813a.993.993,0,0,1,.334.257,1.114,1.114,0,0,1,.2.378,1.546,1.546,0,0,1,0,.92,1.114,1.114,0,0,1-.2.378.975.975,0,0,1-.334.255,1.164,1.164,0,0,1-.912,0,.981.981,0,0,1-.333-.255,1.133,1.133,0,0,1-.206-.378,1.568,1.568,0,0,1,0-.92,1.133,1.133,0,0,1,.206-.378,1,1,0,0,1,.333-.257,1.131,1.131,0,0,1,.912,0m-.8.218a.763.763,0,0,0-.247.218.988.988,0,0,0-.148.308,1.257,1.257,0,0,0,0,.7,1,1,0,0,0,.148.308.751.751,0,0,0,.247.218.756.756,0,0,0,.689,0,.761.761,0,0,0,.247-.218,1.022,1.022,0,0,0,.148-.308,1.257,1.257,0,0,0,0-.7,1.011,1.011,0,0,0-.148-.308.773.773,0,0,0-.247-.218.756.756,0,0,0-.689,0"/><path class="cls-2" d="M70.544,11.3a.867.867,0,0,1-.172.34.762.762,0,0,1-.307.214,1.3,1.3,0,0,1-.465.074,1.359,1.359,0,0,1-.332-.04.952.952,0,0,1-.29-.122.714.714,0,0,1-.213-.211.635.635,0,0,1-.1-.308h.275a.5.5,0,0,0,.085.212.514.514,0,0,0,.153.137.675.675,0,0,0,.2.077,1.1,1.1,0,0,0,.223.024.659.659,0,0,0,.554-.219,1,1,0,0,0,.17-.628v-.3h-.009a.8.8,0,0,1-.281.336.754.754,0,0,1-.434.126,1.1,1.1,0,0,1-.463-.089.861.861,0,0,1-.316-.247,1,1,0,0,1-.181-.368,1.733,1.733,0,0,1-.057-.452,1.4,1.4,0,0,1,.068-.438,1.081,1.081,0,0,1,.2-.362.929.929,0,0,1,.318-.245,1.021,1.021,0,0,1,.435-.089.806.806,0,0,1,.238.035.742.742,0,0,1,.2.1A.879.879,0,0,1,70.2,9a.661.661,0,0,1,.111.175h.009V8.782H70.6V10.85a1.733,1.733,0,0,1-.055.45m-.63-.6a.718.718,0,0,0,.227-.2.872.872,0,0,0,.137-.286,1.187,1.187,0,0,0,.046-.331,1.454,1.454,0,0,0-.039-.332.986.986,0,0,0-.127-.3.68.68,0,0,0-.225-.218.633.633,0,0,0-.333-.083.658.658,0,0,0-.336.081.736.736,0,0,0-.232.212.886.886,0,0,0-.132.3,1.407,1.407,0,0,0-.042.343,1.223,1.223,0,0,0,.044.331.849.849,0,0,0,.135.286.7.7,0,0,0,.231.2.681.681,0,0,0,.332.076.627.627,0,0,0,.314-.076"/><path class="cls-2" d="M71.027,8.782l.742,1.92.693-1.92h.275l-.977,2.592a2.45,2.45,0,0,1-.114.237.553.553,0,0,1-.115.149.39.39,0,0,1-.148.078.815.815,0,0,1-.216.024l-.129-.006a.316.316,0,0,1-.081-.015v-.232l.094.015a.578.578,0,0,0,.094.007.377.377,0,0,0,.15-.026.341.341,0,0,0,.1-.072.422.422,0,0,0,.074-.111c.02-.044.042-.092.065-.144l.1-.253-.9-2.243Z"/><path class="cls-2" d="M76.405,8.6a.842.842,0,0,0-.213-.231.936.936,0,0,0-.275-.143,1.045,1.045,0,0,0-.317-.049,1.086,1.086,0,0,0-.518.115,1.037,1.037,0,0,0-.355.3,1.281,1.281,0,0,0-.2.426,1.833,1.833,0,0,0,0,.975,1.287,1.287,0,0,0,.2.429,1.034,1.034,0,0,0,.355.3,1.086,1.086,0,0,0,.518.115.918.918,0,0,0,.382-.077.9.9,0,0,0,.293-.207,1.083,1.083,0,0,0,.2-.308,1.287,1.287,0,0,0,.1-.38h.289a1.636,1.636,0,0,1-.131.505,1.239,1.239,0,0,1-.264.382,1.1,1.1,0,0,1-.38.242,1.326,1.326,0,0,1-.486.085,1.42,1.42,0,0,1-.626-.13,1.287,1.287,0,0,1-.448-.346,1.473,1.473,0,0,1-.268-.5,2.057,2.057,0,0,1,0-1.2,1.492,1.492,0,0,1,.268-.5,1.281,1.281,0,0,1,.448-.348A1.512,1.512,0,0,1,76.023,8a1.2,1.2,0,0,1,.373.189,1.087,1.087,0,0,1,.28.308,1.037,1.037,0,0,1,.143.42H76.53a.959.959,0,0,0-.125-.312"/><path class="cls-2" d="M78.487,8.865a.949.949,0,0,1,.324.251,1.069,1.069,0,0,1,.2.367,1.51,1.51,0,0,1,0,.9,1.069,1.069,0,0,1-.2.367.931.931,0,0,1-.324.249,1.129,1.129,0,0,1-.888,0,.931.931,0,0,1-.324-.249,1.069,1.069,0,0,1-.2-.367,1.51,1.51,0,0,1,0-.9,1.069,1.069,0,0,1,.2-.367.949.949,0,0,1,.324-.251,1.106,1.106,0,0,1,.888,0m-.779.212a.734.734,0,0,0-.24.213.966.966,0,0,0-.145.3,1.242,1.242,0,0,0,0,.684.956.956,0,0,0,.145.3.734.734,0,0,0,.24.213.741.741,0,0,0,.67,0,.737.737,0,0,0,.241-.213.976.976,0,0,0,.144-.3,1.242,1.242,0,0,0,0-.684.987.987,0,0,0-.144-.3.737.737,0,0,0-.241-.213.741.741,0,0,0-.67,0"/><rect class="cls-2" x="79.363" y="10.576" width="0.356" height="0.45"/><path class="cls-2" d="M80.549,11.027a.721.721,0,0,1-.024.184.622.622,0,0,1-.07.17.568.568,0,0,1-.116.138.421.421,0,0,1-.164.085v-.183a.188.188,0,0,0,.089-.063.441.441,0,0,0,.064-.1.509.509,0,0,0,.036-.119.413.413,0,0,0,.006-.108h-.178v-.451h.357Z"/><polygon class="cls-2" points="82.141 7.995 82.141 10.78 83.839 10.78 83.839 11.027 81.853 11.027 81.853 7.995 82.141 7.995"/><path class="cls-2" d="M84.754,8.836v.225h-.446v1.477a.479.479,0,0,0,.036.206c.024.05.084.077.181.083a1.966,1.966,0,0,0,.229-.013v.225c-.04,0-.08,0-.119.005s-.08,0-.119,0a.533.533,0,0,1-.374-.1.533.533,0,0,1-.1-.384v-1.5h-.381V8.836h.381V8.177h.268v.659Z"/><path class="cls-2" d="M86.57,11.027V10.61h-.009a.633.633,0,0,1-.125.2.786.786,0,0,1-.189.15.95.95,0,0,1-.227.1.875.875,0,0,1-.24.034.968.968,0,0,1-.435-.092.864.864,0,0,1-.308-.25,1.082,1.082,0,0,1-.183-.369,1.7,1.7,0,0,1,0-.888,1.082,1.082,0,0,1,.183-.369.893.893,0,0,1,.308-.253A1.031,1.031,0,0,1,86.02,8.8a.781.781,0,0,1,.219.091.765.765,0,0,1,.18.151.606.606,0,0,1,.121.208h.008V8h.268v3.032ZM85.1,10.269a.923.923,0,0,0,.128.3.688.688,0,0,0,.222.214.621.621,0,0,0,.327.083.722.722,0,0,0,.359-.083.712.712,0,0,0,.238-.214.887.887,0,0,0,.131-.3,1.448,1.448,0,0,0,0-.676.887.887,0,0,0-.131-.3.689.689,0,0,0-.6-.3.611.611,0,0,0-.327.083.688.688,0,0,0-.222.214.923.923,0,0,0-.128.3,1.448,1.448,0,0,0,0,.676"/><rect class="cls-2" x="87.256" y="10.576" width="0.356" height="0.45"/><path class="cls-2" d="M54.89,1.924a1.494,1.494,0,0,1,.557.1,1.291,1.291,0,0,1,.425.274,1.2,1.2,0,0,1,.271.4,1.29,1.29,0,0,1,.093.492,1.378,1.378,0,0,1-.171.7,1.069,1.069,0,0,1-.557.451v.013a.779.779,0,0,1,.309.158.887.887,0,0,1,.2.251,1.206,1.206,0,0,1,.113.319,2.969,2.969,0,0,1,.048.348c0,.073.008.159.013.258s.012.2.022.3a2.045,2.045,0,0,0,.052.294.677.677,0,0,0,.106.235H55.36a1.782,1.782,0,0,1-.1-.522q-.02-.3-.058-.58a.917.917,0,0,0-.219-.528.752.752,0,0,0-.547-.167H53.421v1.8H52.41v-4.6Zm-.361,2.081a.761.761,0,0,0,.522-.155.644.644,0,0,0,.174-.5.615.615,0,0,0-.174-.486.776.776,0,0,0-.522-.152H53.421v1.3Z"/><path class="cls-2" d="M59.135,1.924l1.72,4.6H59.8L59.457,5.5h-1.72l-.361,1.025H56.358l1.74-4.6Zm.058,2.822-.58-1.688H58.6L58,4.746Z"/><polygon class="cls-2" points="62.043 1.924 62.043 3.831 63.84 1.924 65.102 1.924 63.306 3.741 65.277 6.524 64.008 6.524 62.623 4.456 62.043 5.042 62.043 6.524 61.032 6.524 61.032 1.924 62.043 1.924"/><polygon class="cls-2" points="67.791 6.524 67.115 3.876 67.102 3.876 66.432 6.524 65.839 6.524 64.77 3.193 65.376 3.193 66.129 5.918 66.142 5.918 66.812 3.193 67.411 3.193 68.107 5.918 68.12 5.918 68.867 3.193 69.434 3.193 68.371 6.524 67.791 6.524"/><path class="cls-2" d="M69.93,1.924h.547v.67H69.93Zm.547,4.6H69.93V3.193h.547Z"/><path class="cls-2" d="M71.8,3.193v.7h.013a1.488,1.488,0,0,1,.489-.6,1.236,1.236,0,0,1,.735-.18V3.7a1.556,1.556,0,0,0-.561.09.89.89,0,0,0-.374.264,1.118,1.118,0,0,0-.206.422,2.319,2.319,0,0,0-.064.57V6.524H71.28V3.193Z"/><path class="cls-2" d="M75.764,6.311a1.509,1.509,0,0,1-.94.283,1.715,1.715,0,0,1-.693-.128,1.353,1.353,0,0,1-.492-.361,1.513,1.513,0,0,1-.3-.554,2.714,2.714,0,0,1-.113-.7,2.013,2.013,0,0,1,.116-.7,1.665,1.665,0,0,1,.326-.547,1.468,1.468,0,0,1,.5-.361,1.507,1.507,0,0,1,.628-.129,1.359,1.359,0,0,1,.737.184A1.46,1.46,0,0,1,76,3.767a1.869,1.869,0,0,1,.245.618,2.689,2.689,0,0,1,.054.638H73.806a1.317,1.317,0,0,0,.052.415.908.908,0,0,0,.515.59,1.136,1.136,0,0,0,.47.09.949.949,0,0,0,.57-.161.778.778,0,0,0,.293-.49h.542a1.336,1.336,0,0,1-.484.844m-.132-2.138a.933.933,0,0,0-.2-.3.932.932,0,0,0-.673-.274.962.962,0,0,0-.383.074.9.9,0,0,0-.293.2.96.96,0,0,0-.193.3,1.159,1.159,0,0,0-.084.364h1.913a1.084,1.084,0,0,0-.087-.367"/><rect class="cls-2" x="76.906" y="1.924" width="0.548" height="4.599"/><path class="cls-2" d="M80.641,6.311a1.51,1.51,0,0,1-.941.283,1.706,1.706,0,0,1-.692-.128,1.357,1.357,0,0,1-.493-.361,1.526,1.526,0,0,1-.3-.554,2.672,2.672,0,0,1-.113-.7,2.013,2.013,0,0,1,.116-.7,1.662,1.662,0,0,1,.325-.547,1.478,1.478,0,0,1,.5-.361,1.514,1.514,0,0,1,.628-.129,1.36,1.36,0,0,1,.738.184,1.456,1.456,0,0,1,.47.467,1.847,1.847,0,0,1,.245.618,2.692,2.692,0,0,1,.055.638H78.683a1.289,1.289,0,0,0,.051.415.946.946,0,0,0,.187.348.924.924,0,0,0,.329.242,1.136,1.136,0,0,0,.47.09.949.949,0,0,0,.57-.161.778.778,0,0,0,.293-.49h.541a1.33,1.33,0,0,1-.483.844m-.132-2.138a.933.933,0,0,0-.2-.3.932.932,0,0,0-.673-.274.958.958,0,0,0-.383.074.884.884,0,0,0-.293.2.96.96,0,0,0-.193.3,1.132,1.132,0,0,0-.084.364H80.6a1.133,1.133,0,0,0-.087-.367"/><path class="cls-2" d="M82.192,5.78a.586.586,0,0,0,.2.2.91.91,0,0,0,.284.107A1.643,1.643,0,0,0,83,6.118a2.141,2.141,0,0,0,.27-.019,1,1,0,0,0,.261-.071.5.5,0,0,0,.2-.152.4.4,0,0,0,.077-.254.365.365,0,0,0-.161-.322,1.342,1.342,0,0,0-.4-.177c-.161-.046-.336-.086-.524-.123a2.716,2.716,0,0,1-.526-.154,1.08,1.08,0,0,1-.4-.281.728.728,0,0,1-.162-.5.8.8,0,0,1,.113-.432.932.932,0,0,1,.29-.293,1.315,1.315,0,0,1,.4-.167,1.812,1.812,0,0,1,.441-.055,2.649,2.649,0,0,1,.522.048,1.212,1.212,0,0,1,.421.168.862.862,0,0,1,.294.322,1.256,1.256,0,0,1,.129.5h-.548a.562.562,0,0,0-.084-.267.542.542,0,0,0-.18-.17.813.813,0,0,0-.242-.094A1.262,1.262,0,0,0,82.92,3.6a1.612,1.612,0,0,0-.248.019.85.85,0,0,0-.229.068.444.444,0,0,0-.167.129.324.324,0,0,0-.064.209.3.3,0,0,0,.1.235.8.8,0,0,0,.255.155,2.2,2.2,0,0,0,.347.1q.194.042.387.087c.137.03.272.067.4.109a1.306,1.306,0,0,1,.347.171.828.828,0,0,1,.245.268.785.785,0,0,1,.094.4.923.923,0,0,1-.126.5.971.971,0,0,1-.328.322,1.367,1.367,0,0,1-.458.171,2.723,2.723,0,0,1-.505.048,2.331,2.331,0,0,1-.529-.058A1.268,1.268,0,0,1,82,6.346.96.96,0,0,1,81.69,6a1.189,1.189,0,0,1-.129-.526h.547a.611.611,0,0,0,.084.307"/><path class="cls-2" d="M85.436,5.78a.586.586,0,0,0,.2.2.91.91,0,0,0,.284.107,1.651,1.651,0,0,0,.325.032,2.141,2.141,0,0,0,.27-.019,1,1,0,0,0,.261-.071.5.5,0,0,0,.2-.152.4.4,0,0,0,.077-.254.363.363,0,0,0-.161-.322,1.346,1.346,0,0,0-.4-.177c-.162-.046-.337-.086-.526-.123a2.716,2.716,0,0,1-.524-.154,1.076,1.076,0,0,1-.4-.281.723.723,0,0,1-.161-.5.8.8,0,0,1,.113-.432.929.929,0,0,1,.289-.293,1.336,1.336,0,0,1,.4-.167,1.812,1.812,0,0,1,.441-.055,2.649,2.649,0,0,1,.522.048,1.217,1.217,0,0,1,.422.168.877.877,0,0,1,.293.322,1.209,1.209,0,0,1,.128.5h-.547a.562.562,0,0,0-.083-.267.555.555,0,0,0-.181-.17.813.813,0,0,0-.242-.094,1.255,1.255,0,0,0-.267-.029,1.622,1.622,0,0,0-.248.019.85.85,0,0,0-.229.068.46.46,0,0,0-.167.129.324.324,0,0,0-.065.209.309.309,0,0,0,.1.235.8.8,0,0,0,.255.155,2.212,2.212,0,0,0,.348.1c.129.028.257.057.386.087s.272.067.4.109a1.313,1.313,0,0,1,.348.171.851.851,0,0,1,.245.268.8.8,0,0,1,.093.4.923.923,0,0,1-.126.5.965.965,0,0,1-.329.322,1.353,1.353,0,0,1-.457.171,2.717,2.717,0,0,1-.506.048,2.328,2.328,0,0,1-.528-.058,1.268,1.268,0,0,1-.444-.19A.972.972,0,0,1,84.933,6a1.217,1.217,0,0,1-.128-.526h.548a.621.621,0,0,0,.083.307"/><rect class="cls-2" x="47.427" y="1.476" width="0.322" height="9.843"/><path class="cls-2" d="M45.833,3.167a1.218,1.218,0,1,1-1.214-1.185,1.191,1.191,0,0,1,1.214,1.185m-2.132,0a.918.918,0,0,0,.925.946.907.907,0,0,0,.9-.939A.915.915,0,1,0,43.7,3.167m.73.621h-.274V2.6a2.455,2.455,0,0,1,.455-.036.729.729,0,0,1,.411.087.324.324,0,0,1,.116.26.3.3,0,0,1-.246.275V3.2a.348.348,0,0,1,.217.289.888.888,0,0,0,.087.3h-.3a1,1,0,0,1-.094-.289c-.022-.13-.094-.188-.246-.188h-.13Zm.007-.672h.13c.152,0,.275-.05.275-.173s-.08-.181-.253-.181a.668.668,0,0,0-.152.015Z"/></g></g></svg>