<svg xmlns="http://www.w3.org/2000/svg" viewBox="0 0 49.704 16.959"><defs><style>.cls-1{fill:#006ac6;}.cls-2{fill:#97999b;}</style></defs><g id="Layer_2" data-name="Layer 2"><g id="Layer_1-2" data-name="Layer 1"><path class="cls-1" d="M6.317,4.46a1.432,1.432,0,0,1,.109.514c.009.23.024.924.028,1.126.231-.013.529-.028.73-.028s.862-.012,1.831-.034l.063,0a.874.874,0,0,0,.917-.83c.068-.642-.283-.8-.3-.8a3.556,3.556,0,0,0-1.433-.254c-.076,0-.155,0-.235.006a9.244,9.244,0,0,0-1.711.3"/><path class="cls-1" d="M5.226,3.721a1.4,1.4,0,0,1,.389.1,1.51,1.51,0,0,1,.481.29,8.937,8.937,0,0,1,1.836-.353c.119-.009.242-.013.365-.013a4.561,4.561,0,0,1,1.292.176,1.973,1.973,0,0,0,.2-.182.951.951,0,0,0,.242-.479,1.032,1.032,0,0,0-.1-.744C9.819,2.3,9.53,2.2,9.072,2.2c-.062,0-.131,0-.206-.006s-.192-.008-.3-.008A4.479,4.479,0,0,0,7,2.473,5.29,5.29,0,0,0,5.226,3.721"/><path class="cls-1" d="M3.049,3.691a1.609,1.609,0,0,1,.622.115,1.554,1.554,0,0,1,.453.349,1.279,1.279,0,0,1,.152-.175,1.082,1.082,0,0,1,.353-.2c.156-.174.452-.494.753-.767A5.165,5.165,0,0,1,7.3,1.929a4.56,4.56,0,0,1,1.375-.181,6.689,6.689,0,0,1,.7.036A1.176,1.176,0,0,0,9.888.93c-.01-.7-.267-.866-1.446-.924a5.7,5.7,0,0,0-3.764,1.35A6.2,6.2,0,0,0,3.049,3.691"/><path class="cls-1" d="M8.059,6.456c.011.2.027.52.027.729,0,.28.022,1.271.032,1.694l0,.2A.878.878,0,0,0,8.953,10c.051.005.1.008.155.008.517,0,.645-.3.647-.306A3.778,3.778,0,0,0,10,8.029a9.243,9.243,0,0,0-.3-1.71,1.45,1.45,0,0,1-.516.109c-.093,0-.365.012-1.124.028"/><path class="cls-1" d="M10.239,9.591a1.849,1.849,0,0,0,.181.2.953.953,0,0,0,.479.243,1.187,1.187,0,0,0,.249.028,1.045,1.045,0,0,0,.5-.131c.212-.112.32-.4.32-.859,0-.056,0-.117,0-.185V8.866A4.493,4.493,0,0,0,11.686,7a5.3,5.3,0,0,0-1.248-1.772,1.44,1.44,0,0,1-.1.389,1.462,1.462,0,0,1-.29.481A8.906,8.906,0,0,1,10.4,7.932a4.808,4.808,0,0,1-.162,1.659"/><path class="cls-1" d="M12.375,9.384a1.153,1.153,0,0,0,.842.5c.711-.01.878-.267.936-1.446A5.726,5.726,0,0,0,12.8,4.679,6.217,6.217,0,0,0,10.468,3.05a1.626,1.626,0,0,1-.115.623,1.561,1.561,0,0,1-.35.452,1.3,1.3,0,0,1,.175.153,1.079,1.079,0,0,1,.2.353c.141.127.48.437.767.752A5.165,5.165,0,0,1,12.23,7.3a5.749,5.749,0,0,1,.145,2.08"/><path class="cls-1" d="M7.713,8.074c-.175.01-.512.028-.73.028s-.808.011-1.795.033l-.1,0a.876.876,0,0,0-.917.831c-.068.638.283.8.3.8a3.75,3.75,0,0,0,1.669.248,9.357,9.357,0,0,0,1.711-.3A1.422,1.422,0,0,1,7.742,9.2c-.006-.15-.016-.527-.028-1.12Z"/><path class="cls-1" d="M4.578,10.254a1.768,1.768,0,0,0-.2.182.962.962,0,0,0-.243.478,1.034,1.034,0,0,0,.1.744c.111.212.4.319.857.319.06,0,.126,0,.2,0,.1,0,.2.009.312.009A4.479,4.479,0,0,0,7.17,11.7a5.311,5.311,0,0,0,1.772-1.247,1.408,1.408,0,0,1-.39-.1,1.489,1.489,0,0,1-.481-.291,8.8,8.8,0,0,1-1.835.353c-.119.009-.242.014-.365.014a4.657,4.657,0,0,1-1.293-.176"/><path class="cls-1" d="M4.785,12.39a1.174,1.174,0,0,0-.5.854c.01.7.267.866,1.446.924.068,0,.137.005.207.005a5.816,5.816,0,0,0,3.556-1.355,6.2,6.2,0,0,0,1.63-2.335,1.617,1.617,0,0,1-.623-.115,1.574,1.574,0,0,1-.452-.35,1.282,1.282,0,0,1-.152.175,1.108,1.108,0,0,1-.354.205c-.1.114-.422.467-.752.767a5.161,5.161,0,0,1-1.921,1.08,4.567,4.567,0,0,1-1.376.181c-.334,0-.606-.026-.7-.036"/><path class="cls-1" d="M5.05,4.179c-.512,0-.642.295-.647.308a3.758,3.758,0,0,0-.248,1.667,9.185,9.185,0,0,0,.3,1.711,1.47,1.47,0,0,1,.515-.108c.108,0,.393-.013,1.124-.028-.009-.163-.027-.51-.027-.73S6.06,6.16,6.038,5.168V5.1a.878.878,0,0,0-.831-.916,1.36,1.36,0,0,0-.156-.009"/><path class="cls-1" d="M3.01,4.121a1.045,1.045,0,0,0-.495.131c-.212.113-.319.4-.319.859,0,.062,0,.131-.006.207a4.486,4.486,0,0,0,.283,1.866A5.315,5.315,0,0,0,3.72,8.956a1.433,1.433,0,0,1,.1-.388,1.505,1.505,0,0,1,.29-.482,8.84,8.84,0,0,1-.353-1.834A4.792,4.792,0,0,1,3.92,4.594a1.985,1.985,0,0,0-.182-.2.95.95,0,0,0-.478-.243,1.2,1.2,0,0,0-.25-.028"/><path class="cls-1" d="M.929,4.3c-.7.01-.865.267-.924,1.446A5.73,5.73,0,0,0,1.356,9.505,6.217,6.217,0,0,0,3.69,11.134a1.629,1.629,0,0,1,.115-.622,1.6,1.6,0,0,1,.35-.453,1.294,1.294,0,0,1-.175-.153,1.089,1.089,0,0,1-.2-.353c-.142-.126-.481-.437-.768-.752A5.193,5.193,0,0,1,1.928,6.88,5.741,5.741,0,0,1,1.784,4.8a1.152,1.152,0,0,0-.842-.5Z"/><path class="cls-1" d="M24.267,2.149a3.142,3.142,0,0,1,1.19.214,2.744,2.744,0,0,1,.908.584,2.552,2.552,0,0,1,.578.86,2.761,2.761,0,0,1,.2,1.053,2.951,2.951,0,0,1-.365,1.5,2.292,2.292,0,0,1-1.19.964V7.35a1.675,1.675,0,0,1,.66.337,1.876,1.876,0,0,1,.427.537,2.51,2.51,0,0,1,.241.681,6.086,6.086,0,0,1,.1.743c.009.156.018.339.027.55s.026.427.049.647a4.142,4.142,0,0,0,.11.626,1.44,1.44,0,0,0,.227.5h-2.16a3.8,3.8,0,0,1-.221-1.115c-.027-.43-.069-.844-.124-1.238a1.954,1.954,0,0,0-.467-1.128,1.612,1.612,0,0,0-1.17-.358H21.13v3.839H18.97V2.149ZM23.5,6.593a1.634,1.634,0,0,0,1.114-.33,1.369,1.369,0,0,0,.371-1.073,1.309,1.309,0,0,0-.371-1.039A1.661,1.661,0,0,0,23.5,3.828H21.13V6.593Z"/><path class="cls-1" d="M33.56,2.149l3.673,9.824H34.991l-.743-2.188H30.574l-.77,2.188H27.63l3.714-9.824Zm.124,6.027L32.445,4.571h-.027l-1.28,3.605Z"/><polygon class="cls-1" points="39.859 2.149 39.859 6.222 43.698 2.149 46.394 2.149 42.556 6.029 46.766 11.973 44.056 11.973 41.098 7.557 39.859 8.809 39.859 11.973 37.699 11.973 37.699 2.149 39.859 2.149"/><rect class="cls-2" x="19.005" y="14.022" width="0.501" height="2.277"/><path class="cls-2" d="M19.927,15.137a.757.757,0,0,1,.154-.275.718.718,0,0,1,.251-.183.924.924,0,0,1,.691,0,.743.743,0,0,1,.25.183.77.77,0,0,1,.153.275,1.1,1.1,0,0,1,.051.34,1.077,1.077,0,0,1-.051.337.77.77,0,0,1-.153.273.714.714,0,0,1-.25.182.951.951,0,0,1-.691,0,.692.692,0,0,1-.251-.182.757.757,0,0,1-.154-.273,1.077,1.077,0,0,1-.051-.337,1.1,1.1,0,0,1,.051-.34m.276.606a.562.562,0,0,0,.11.194.493.493,0,0,0,.164.12.506.506,0,0,0,.4,0,.483.483,0,0,0,.164-.12.547.547,0,0,0,.11-.194.908.908,0,0,0,0-.533.556.556,0,0,0-.11-.2.461.461,0,0,0-.164-.121.495.495,0,0,0-.4,0,.47.47,0,0,0-.164.121.572.572,0,0,0-.11.2.908.908,0,0,0,0,.533"/><polygon class="cls-2" points="21.416 14.443 21.416 14.022 23.281 14.022 23.281 14.443 22.599 14.443 22.599 16.299 22.098 16.299 22.098 14.443 21.416 14.443"/><polygon class="cls-2" points="24.751 14.022 25.468 15.935 26.189 14.022 26.603 14.022 26.603 16.299 26.317 16.299 26.317 14.405 26.31 14.405 25.599 16.299 25.341 16.299 24.63 14.405 24.623 14.405 24.623 16.299 24.336 16.299 24.336 14.022 24.751 14.022"/><path class="cls-2" d="M28.533,16.293a.386.386,0,0,1-.194.041.229.229,0,0,1-.167-.059.253.253,0,0,1-.063-.193.629.629,0,0,1-.26.193.843.843,0,0,1-.32.059.855.855,0,0,1-.212-.025.489.489,0,0,1-.174-.08.381.381,0,0,1-.117-.142.486.486,0,0,1-.042-.212.5.5,0,0,1,.047-.23.422.422,0,0,1,.126-.145.59.59,0,0,1,.179-.084c.067-.019.135-.035.206-.048s.145-.026.212-.034a1.238,1.238,0,0,0,.177-.031.293.293,0,0,0,.121-.061.152.152,0,0,0,.045-.116.274.274,0,0,0-.034-.144.228.228,0,0,0-.086-.083.341.341,0,0,0-.118-.038.822.822,0,0,0-.13-.01.566.566,0,0,0-.286.066.275.275,0,0,0-.124.247h-.272a.592.592,0,0,1,.064-.259.482.482,0,0,1,.153-.17.655.655,0,0,1,.219-.094,1.158,1.158,0,0,1,.263-.029,1.631,1.631,0,0,1,.221.016.611.611,0,0,1,.2.065.381.381,0,0,1,.143.139.443.443,0,0,1,.054.232v.847a.651.651,0,0,0,.011.139q.012.045.075.045a.307.307,0,0,0,.083-.013Zm-.44-.845a.324.324,0,0,1-.134.055,1.753,1.753,0,0,1-.174.029c-.06.007-.121.016-.183.025a.732.732,0,0,0-.166.046.286.286,0,0,0-.119.091.25.25,0,0,0-.046.16.216.216,0,0,0,.027.112.219.219,0,0,0,.07.075.279.279,0,0,0,.1.041.513.513,0,0,0,.12.013.653.653,0,0,0,.23-.036.472.472,0,0,0,.156-.093.354.354,0,0,0,.089-.12.289.289,0,0,0,.029-.122Z"/><path class="cls-2" d="M30,16.3v-.223h-.007a.4.4,0,0,1-.21.2.812.812,0,0,1-.316.06.742.742,0,0,1-.333-.07.683.683,0,0,1-.236-.188.82.82,0,0,1-.142-.274,1.125,1.125,0,0,1-.048-.332,1.158,1.158,0,0,1,.047-.332.756.756,0,0,1,.14-.272.656.656,0,0,1,.236-.185.743.743,0,0,1,.33-.069.761.761,0,0,1,.137.013.681.681,0,0,1,.147.043.619.619,0,0,1,.138.08.42.42,0,0,1,.11.123H30v-.849h.271V16.3Zm-.974-.585a.61.61,0,0,0,.092.2.45.45,0,0,0,.159.137.487.487,0,0,0,.229.051.449.449,0,0,0,.389-.2.629.629,0,0,0,.088-.2,1.02,1.02,0,0,0,.026-.227.961.961,0,0,0-.028-.234.585.585,0,0,0-.091-.2.462.462,0,0,0-.161-.139.505.505,0,0,0-.239-.052.456.456,0,0,0-.233.054.429.429,0,0,0-.153.143.617.617,0,0,0-.083.2,1.087,1.087,0,0,0-.026.236.848.848,0,0,0,.031.225"/><path class="cls-2" d="M31.864,16.194a.754.754,0,0,1-.466.14.832.832,0,0,1-.342-.064.665.665,0,0,1-.244-.178.749.749,0,0,1-.149-.274,1.355,1.355,0,0,1-.056-.348,1,1,0,0,1,.058-.344.806.806,0,0,1,.161-.271.722.722,0,0,1,.245-.179.743.743,0,0,1,.311-.064.681.681,0,0,1,.365.091.724.724,0,0,1,.233.231.9.9,0,0,1,.121.306,1.247,1.247,0,0,1,.027.316H30.894a.662.662,0,0,0,.026.206.45.45,0,0,0,.255.292.572.572,0,0,0,.232.044.465.465,0,0,0,.283-.08.382.382,0,0,0,.145-.242H32.1a.661.661,0,0,1-.239.418M31.8,15.135a.454.454,0,0,0-.245-.247.5.5,0,0,0-.376,0,.416.416,0,0,0-.145.1.461.461,0,0,0-.1.148.564.564,0,0,0-.042.18h.948a.564.564,0,0,0-.044-.182"/><polygon class="cls-2" points="34.785 14.022 34.785 14.277 33.516 14.277 33.516 15.001 34.699 15.001 34.699 15.256 33.516 15.256 33.516 16.044 34.795 16.044 34.795 16.299 33.213 16.299 33.213 14.022 34.785 14.022"/><path class="cls-2" d="M36.592,16.293a.386.386,0,0,1-.194.041.229.229,0,0,1-.167-.059.253.253,0,0,1-.063-.193.629.629,0,0,1-.26.193.843.843,0,0,1-.32.059.855.855,0,0,1-.212-.025.489.489,0,0,1-.174-.08.381.381,0,0,1-.117-.142.486.486,0,0,1-.042-.212.5.5,0,0,1,.047-.23.422.422,0,0,1,.126-.145.59.59,0,0,1,.179-.084c.067-.019.135-.035.206-.048s.145-.026.212-.034a1.238,1.238,0,0,0,.177-.031.293.293,0,0,0,.121-.061.152.152,0,0,0,.045-.116.274.274,0,0,0-.034-.144.228.228,0,0,0-.086-.083.341.341,0,0,0-.118-.038.822.822,0,0,0-.13-.01.566.566,0,0,0-.286.066.275.275,0,0,0-.124.247h-.272a.592.592,0,0,1,.064-.259.482.482,0,0,1,.153-.17.655.655,0,0,1,.219-.094,1.158,1.158,0,0,1,.263-.029,1.631,1.631,0,0,1,.221.016.611.611,0,0,1,.2.065.381.381,0,0,1,.143.139.443.443,0,0,1,.054.232v.847a.651.651,0,0,0,.011.139q.012.045.075.045a.3.3,0,0,0,.083-.013Zm-.44-.845a.324.324,0,0,1-.134.055,1.753,1.753,0,0,1-.174.029c-.06.007-.121.016-.183.025a.732.732,0,0,0-.166.046.292.292,0,0,0-.119.091.25.25,0,0,0-.046.16.216.216,0,0,0,.027.112.219.219,0,0,0,.07.075.279.279,0,0,0,.1.041.513.513,0,0,0,.12.013.653.653,0,0,0,.23-.036.472.472,0,0,0,.156-.093.371.371,0,0,0,.09-.12.3.3,0,0,0,.028-.122Z"/><path class="cls-2" d="M37.077,15.931a.3.3,0,0,0,.1.1.441.441,0,0,0,.14.052.785.785,0,0,0,.161.016,1.052,1.052,0,0,0,.134-.009.528.528,0,0,0,.13-.035.246.246,0,0,0,.1-.075.2.2,0,0,0,.039-.126.181.181,0,0,0-.08-.16.667.667,0,0,0-.2-.087c-.08-.023-.167-.043-.26-.061a1.359,1.359,0,0,1-.26-.077.535.535,0,0,1-.2-.138.363.363,0,0,1-.08-.249.4.4,0,0,1,.056-.214A.463.463,0,0,1,37,14.722a.657.657,0,0,1,.2-.083.91.91,0,0,1,.218-.027,1.3,1.3,0,0,1,.259.024.614.614,0,0,1,.209.083.424.424,0,0,1,.145.16.611.611,0,0,1,.064.25H37.82A.279.279,0,0,0,37.778,15a.265.265,0,0,0-.089-.084.394.394,0,0,0-.12-.046.581.581,0,0,0-.132-.015.737.737,0,0,0-.123.01.437.437,0,0,0-.113.033.234.234,0,0,0-.083.064.163.163,0,0,0-.032.1.152.152,0,0,0,.05.116.379.379,0,0,0,.126.077,1.135,1.135,0,0,0,.172.051l.191.043a1.818,1.818,0,0,1,.2.054.607.607,0,0,1,.173.085.413.413,0,0,1,.121.132.387.387,0,0,1,.046.2.463.463,0,0,1-.062.248.5.5,0,0,1-.163.16.688.688,0,0,1-.226.085,1.427,1.427,0,0,1-.25.023,1.113,1.113,0,0,1-.262-.029.632.632,0,0,1-.22-.094.464.464,0,0,1-.153-.172.6.6,0,0,1-.064-.26h.271a.3.3,0,0,0,.042.152"/><path class="cls-2" d="M39.088,16.519a1.538,1.538,0,0,1-.094.2.525.525,0,0,1-.1.135.331.331,0,0,1-.124.077.477.477,0,0,1-.158.024.773.773,0,0,1-.1-.006.475.475,0,0,1-.092-.022v-.249a.451.451,0,0,0,.081.027.371.371,0,0,0,.078.011.231.231,0,0,0,.139-.04.24.24,0,0,0,.084-.113l.112-.277-.653-1.64h.306L39.05,16h.007l.462-1.349h.287Z"/><path class="cls-2" d="M49.7,3.434a1.32,1.32,0,1,1-1.316-1.285A1.291,1.291,0,0,1,49.7,3.434m-2.311,0a1,1,0,0,0,1,1.027.984.984,0,0,0,.979-1.019.992.992,0,1,0-1.982-.008m.791.674h-.3V2.823a2.641,2.641,0,0,1,.493-.039.8.8,0,0,1,.447.094.358.358,0,0,1,.125.282.33.33,0,0,1-.266.3v.015a.382.382,0,0,1,.235.314.957.957,0,0,0,.094.321h-.322a1.1,1.1,0,0,1-.1-.313c-.024-.141-.1-.2-.267-.2h-.141Zm.008-.728h.141c.164,0,.3-.055.3-.189,0-.117-.086-.2-.275-.2a.753.753,0,0,0-.164.016Z"/></g></g></svg>