<svg xmlns="http://www.w3.org/2000/svg" width="4438" height="1000" fill="none" viewBox="0 0 4438 1000"><path fill="#000" d="M2223.75 250c-172.5 0-296.88 112.5-296.88 281.25s139.85 281.25 312.51 281.25c104.21 0 196.09-41.25 252.96-110.781l-119.53-69.063c-31.56 34.532-79.53 54.688-133.43 54.688-74.85 0-138.44-39.063-162.04-101.563h437.82c3.43-17.5 5.47-35.625 5.47-54.687C2520.63 362.5 2396.41 250 2223.75 250Zm-147.66 226.562C2095.62 414.219 2149.06 375 2223.75 375c74.84 0 128.28 39.219 147.66 101.562h-295.32Zm-35.31-398.437-432.97 750-433.12-750h162.34l270.63 468.75 270.62-468.75h162.5ZM577.344 0l577.346 1000H0L577.344 0ZM3148.75 531.25C3148.75 625 3210 687.5 3305 687.5c64.38 0 112.66-29.219 137.5-76.875l120 69.219C3512.81 762.656 3419.69 812.5 3305 812.5c-172.66 0-296.87-112.5-296.87-281.25S3132.5 250 3305 250c114.69 0 207.66 49.844 257.5 132.656l-120 69.219C3417.66 404.219 3369.38 375 3305 375c-94.84 0-156.25 62.5-156.25 156.25ZM4437.5 78.125v718.75h-140.62V78.125h140.62ZM3906.25 250c-172.5 0-296.87 112.5-296.87 281.25s140 281.25 312.5 281.25c104.21 0 196.09-41.25 252.96-110.781l-119.53-69.063c-31.56 34.532-79.53 54.688-133.43 54.688-74.85 0-138.44-39.063-162.04-101.563h437.82c3.43-17.5 5.46-35.625 5.46-54.687C4203.12 362.5 4078.91 250 3906.25 250Zm-147.66 226.562C3778.13 414.219 3831.41 375 3906.25 375s128.28 39.219 147.66 101.562h-295.32Zm-797.34-210.937v151.406c-15.62-4.531-32.19-7.656-50-7.656-90.78 0-156.25 62.5-156.25 156.25v231.25h-140.62v-531.25H2755v143.75c0-79.375 92.34-143.75 206.25-143.75Z"/></svg>