<?xml version="1.0" encoding="UTF-8" standalone="no"?>
<svg
   id="Layer_1"
   data-name="Layer 1"
   viewBox="0 0 1112.47 738.35"
   version="1.1"
   sodipodi:docname="muziWORKS.svg"
   inkscape:version="1.3.2 (091e20e, 2023-11-25)"
   xmlns:inkscape="http://www.inkscape.org/namespaces/inkscape"
   xmlns:sodipodi="http://sodipodi.sourceforge.net/DTD/sodipodi-0.dtd"
   xmlns="http://www.w3.org/2000/svg"
   xmlns:svg="http://www.w3.org/2000/svg">
  <sodipodi:namedview
     id="namedview7"
     pagecolor="#ffffff"
     bordercolor="#000000"
     borderopacity="0.25"
     inkscape:showpageshadow="2"
     inkscape:pageopacity="0.0"
     inkscape:pagecheckerboard="0"
     inkscape:deskcolor="#d1d1d1"
     inkscape:zoom="0.31963162"
     inkscape:cx="488.06185"
     inkscape:cy="261.23823"
     inkscape:window-width="1432"
     inkscape:window-height="736"
     inkscape:window-x="4"
     inkscape:window-y="38"
     inkscape:window-maximized="0"
     inkscape:current-layer="Layer_1" />
  <defs
     id="defs1">
    <style
       id="style1">
      .cls-1 {
        fill: #000;
      }

      .cls-1, .cls-2 {
        stroke-width: 0px;
      }

      .cls-2 {
        fill: #fff;
      }
    </style>
  </defs>
  <rect
     class="cls-1"
     width="1112.47"
     height="738.35"
     id="rect1"
     style="fill:#ffffff;fill-opacity:1" />
  <g
     id="g7">
    <rect
       class="cls-2"
       x="755.43"
       y="112.35"
       width="272.9"
       height="39.13"
       id="rect2"
       style="fill:#000000;fill-opacity:1" />
    <g
       id="g6">
      <g
         id="g4"
         style="fill:#000000;fill-opacity:1">
        <path
           class="cls-2"
           d="M652.52,492.38c0-11.15-7.37-22.31-23.9-22.31h-40.03v44.61h40.03c16.73,0,23.9-11.15,23.9-22.31Z"
           id="path2"
           style="fill:#000000;fill-opacity:1" />
        <path
           class="cls-2"
           d="M439.41,466.69c-32.86,0-46.4,26.49-45.81,49.99.6,22.9,12.95,47.4,45.81,47.4s45.21-24.69,45.61-47.6c.4-23.5-12.75-49.79-45.61-49.79Z"
           id="path3"
           style="fill:#ffffff;fill-opacity:1" />
        <path
           class="cls-2"
           d="M1028.57,405.61H85.56v218.16h943.01v-218.16ZM275.68,584.99h-22.31l-17.33-43.82-14.74-44.02-14.54,44.41-16.93,43.42h-22.31l-51.19-139.42h29.48l32.86,100.58,33.86-100.58h17.13l34.86,100.58,31.87-100.58h29.48l-50.19,139.42ZM439.41,588.18c-49,0-71.7-35.25-71.7-71.9s23.5-73.49,71.7-73.49,71.9,36.85,71.5,73.29c-.4,36.05-22.51,72.1-71.5,72.1ZM685.78,584.99h-31.27l-40.63-46.61h-25.29v46.61h-26.29v-139.61c22.11,0,44.21.2,66.32.2,32.86.2,50.19,22.11,50.19,46.21,0,19.12-8.76,38.44-35.25,43.82l42.22,47.6v1.79ZM845.52,584.99h-32.46l-58.35-61.74v61.74h-26.29v-139.42h26.29v58.95l52.98-58.95h32.66v.8l-61.94,66.72,67.12,70.31v1.59ZM943.52,588.58c-28.48,0-50.39-8.76-60.74-34.26l21.91-11.35c6.17,15.33,22.31,22.11,39.24,22.11s32.06-5.78,32.06-20.91c0-13.14-13.74-18.52-32.26-20.51-28.48-3.38-54.77-10.95-54.77-42.22,0-28.68,28.28-40.43,53.97-40.63,21.71,0,44.22,6.17,54.77,27.68l-20.91,10.76c-4.78-7.97-17.92-15.54-33.06-15.54-19.52,0-28.88,8.16-28.88,18.52,0,12.15,14.34,15.54,31.07,17.53,29.08,3.59,56.16,11.15,56.16,44.41,0,31.07-27.48,44.41-58.55,44.41Z"
           id="path4"
           style="fill:#000000;fill-opacity:1" />
      </g>
      <polygon
         class="cls-2"
         points="912.46 188.21 755.92 188.21 755.92 223.13 842.84 223.13 738.58 369.23 900.23 369.23 900.23 330.87 809.05 330.87 912.46 188.21"
         id="polygon4"
         style="fill:#000000;fill-opacity:1" />
      <rect
         class="cls-2"
         x="989.21"
         y="187.44"
         width="39.13"
         height="181.79"
         id="rect4"
         style="fill:#000000;fill-opacity:1" />
      <path
         class="cls-2"
         d="M568.97,369.01c-49.13,0-89.1-39.97-89.1-89.1v-92.05h178.19v92.05c0,49.13-39.97,89.1-89.1,89.1Z"
         id="path5"
         style="fill:#000000;fill-opacity:1" />
      <path
         class="cls-2"
         d="M373.44,236.04h.24c-2.73-12.91-9.84-24.45-19.91-33.35-1.41-1.27-2.89-2.46-4.42-3.59-.07-.05-.14-.1-.21-.15-.6-.44-1.19-.88-1.81-1.29-12.13-8.42-27.39-13.45-43.98-13.45-29.64,0-55.05,16.02-65.92,38.85-.34-.77-.69-1.53-1.05-2.29-.66-1.61-1.3-3.15-1.3-3.15-8.52-20.68-28.23-31.31-49.16-32.84-2.85-.37-5.76-.56-8.72-.56-19.28,0-36.6,8.13-48.57,21.05v-17.48l-38.51.04v181.4h39.13v-97.21c0-25.44,15.09-51.19,43.93-51.19s42.4,26.54,42.4,51.19v97.21h39.13v-97.21c0-28.75,19.21-50.43,44.69-50.43s39.34,18.57,39.34,49.66v97.97h39.13v-97.97c0-13.23-1.48-24.97-4.38-35.22Z"
         id="path6"
         style="fill:#000000;fill-opacity:1" />
    </g>
  </g>
</svg>
