<svg xmlns="http://www.w3.org/2000/svg" id="Layer_1" data-name="Layer 1" viewBox="0 0 390.7 390.7"><metadata><rdf:RDF xmlns:dc="http://purl.org/dc/elements/1.1/" xmlns:rdf="http://www.w3.org/1999/02/22-rdf-syntax-ns#"><rdf:Description><dc:title>Meshtasticd Tux Penguin</dc:title><dc:creator>Meshtastic LLC</dc:creator><dc:contributor>Original Tux created by Larry Ewing (lewing@isc.tamu.edu) using GIMP (https://www.gimp.org)</dc:contributor><dc:rights>Copyright © 2025 Meshtastic. All rights reserved.</dc:rights><dc:source>https://github.com/meshtastic/meshtastic/tree/master/docs/hardware/devices/linux-native-hardware/README.md</dc:source></rdf:Description></rdf:RDF></metadata><defs><style>.cls-1,.cls-3{fill:#2c2d3c;stroke-width:0}.cls-3{fill:#e8c169}</style></defs><path d="m169.606 84.788 26.573-26.573 26.573 26.573-26.573 26.573z" class="cls-3"/><path d="m247.99 83.55-.97 25.21-50.84-47.65-50.84 47.65-.97-25.17a53.26 53.26 0 0 1 15.61-37.68l.06-.06c19.81-19.81 51.86-19.99 71.89-.42a53.3 53.3 0 0 1 16.05 38.12Z" class="cls-1"/><path d="M192.36 314.21 91.8 359.62h206.76z" class="cls-3"/><path d="m93.47 272.46 102.78 87.36 102.65-86.4-51.81-153.57.27 142.36c.05 28.27-22.85 51.22-51.13 51.22-28.26 0-51.16-22.93-51.13-51.19l.17-143.36-51.81 153.57Z" class="cls-1"/><path d="M226.29 160.34H166.9c-2.73 0-4.95 2.22-4.95 4.95v49.49c0 2.73 2.22 4.95 4.95 4.95h59.39c2.73 0 4.95-2.22 4.95-4.95v-49.49c0-2.73-2.22-4.95-4.95-4.95" class="cls-1"/><path d="m169.426 201.662 17.93-26.373 3.126 2.125-17.93 26.373zm19.954 2.048-3.08-2.1 17.16-25.17a1.87 1.87 0 0 1 3.08 0l17.2 25.13-3.07 2.1-15.66-22.88z" style="stroke-width:0;fill:#fff"/></svg>