<svg xmlns="http://www.w3.org/2000/svg" id="Layer_1" data-name="Layer 1" version="1.1" viewBox="0 0 1000 152.05"><metadata><rdf:RDF xmlns:dc="http://purl.org/dc/elements/1.1/" xmlns:rdf="http://www.w3.org/1999/02/22-rdf-syntax-ns#"><rdf:Description><dc:title>Meshtasticd Terminal Long Dark</dc:title><dc:creator>Meshtastic LLC</dc:creator><dc:rights>Copyright © 2025 Meshtastic. All rights reserved.</dc:rights><dc:source>https://github.com/meshtastic/meshtastic/tree/master/docs/hardware/devices/linux-native-hardware/README.md</dc:source></rdf:Description></rdf:RDF></metadata><defs id="defs1"><style id="style1">.cls-1{fill:#2c2d3c;stroke-width:0}</style></defs><g id="g10" style="fill:#67ea94;fill-opacity:1"><path id="rect1" d="M6.7 70.62h87.03v10.31H6.7z" class="cls-1" style="fill:#67ea94;fill-opacity:1" transform="rotate(-55.79 50.207 75.769)"/><path id="rect2" d="M669.66 70.87h85.91v10.72h-85.91z" class="cls-1" style="fill:#67ea94;fill-opacity:1" transform="rotate(-55.78 712.66 76.213)"/><g id="g5" style="fill:#67ea94;fill-opacity:1"><path id="path2" d="M182.4 115.18V37.32h56.19v9.24H192.7v23.81h42.96v9.13H192.7v26.53h47.62v9.13h-57.93Z" class="cls-1" style="fill:#67ea94;fill-opacity:1"/><path id="path3" d="m251.06 90.17 9.65-.87c.54 3.91 1.52 7.07 3.25 9.57 1.63 2.5 4.23 4.57 7.81 6.09 3.47 1.52 7.49 2.28 11.93 2.28 3.91 0 7.38-.54 10.31-1.74 3.04-1.2 5.32-2.72 6.73-4.78 1.52-2.07 2.17-4.24 2.17-6.63s-.65-4.57-2.06-6.42-3.8-3.37-7.05-4.57c-2.06-.87-6.62-2.17-13.78-3.81q-10.74-2.61-14.97-4.89c-3.69-1.96-6.51-4.35-8.35-7.29-1.74-2.83-2.71-6.09-2.71-9.68 0-3.91 1.19-7.61 3.36-10.98 2.28-3.37 5.42-5.98 9.76-7.83 4.23-1.74 9-2.61 14.21-2.61 5.75 0 10.85.98 15.3 2.83 4.34 1.85 7.7 4.57 10.09 8.16s3.69 7.72 3.8 12.29l-9.87.76c-.43-5-2.28-8.7-5.32-11.2s-7.59-3.81-13.56-3.81-10.74 1.2-13.56 3.48-4.23 5-4.23 8.26c0 2.83.98 5.11 2.93 6.85 2.06 1.85 7.16 3.7 15.51 5.55 8.35 1.96 14.1 3.59 17.25 5 4.45 2.07 7.81 4.78 9.98 7.94 2.17 3.26 3.25 6.85 3.25 11.09s-1.19 8.05-3.58 11.74c-2.39 3.59-5.75 6.42-10.2 8.48-4.45 2.07-9.44 3.04-14.97 3.04-7.05 0-12.91-.98-17.68-3.04-4.77-2.07-8.46-5.11-11.17-9.24s-4.12-8.81-4.23-14.03Z" class="cls-1" style="fill:#67ea94;fill-opacity:1"/><path id="path4" d="M327.22 115.18V37.32h10.31v31.97h40.35V37.32h10.31v77.86h-10.31V78.53h-40.35v36.65z" class="cls-1" style="fill:#67ea94;fill-opacity:1"/><path id="path5" d="M424.97 115.18V46.57h-25.6v-9.24h61.62v9.24h-25.71v68.62h-10.31Z" class="cls-1" style="fill:#67ea94;fill-opacity:1"/></g><path id="path6" d="m75.92 114.38-8.39-5.72 46.84-68.7a5.07 5.07 0 0 1 4.19-2.22c1.68 0 3.24.83 4.19 2.21l46.95 68.59-8.38 5.74-42.75-62.45-42.66 62.55Z" class="cls-1" style="fill:#67ea94;fill-opacity:1"/><path id="path7" d="m460.06 115.48-8.39-5.72 46.84-68.7a5.07 5.07 0 0 1 4.19-2.22c1.68 0 3.24.83 4.19 2.21l46.95 68.59-8.38 5.74-42.75-62.45-42.65 62.56Z" class="cls-1" style="fill:#67ea94;fill-opacity:1"/><g id="g9" style="fill:#67ea94;fill-opacity:1"><path id="path8" d="m560.95 90.41 9.65-.87c.54 3.91 1.52 7.07 3.25 9.57 1.63 2.5 4.23 4.57 7.81 6.09 3.47 1.52 7.49 2.28 11.93 2.28 3.91 0 7.38-.54 10.31-1.74 3.04-1.2 5.32-2.72 6.73-4.78 1.52-2.07 2.17-4.24 2.17-6.63s-.65-4.57-2.06-6.42-3.8-3.37-7.05-4.57c-2.06-.87-6.62-2.17-13.78-3.81q-10.74-2.61-14.97-4.89c-3.69-1.96-6.51-4.35-8.35-7.29-1.74-2.83-2.71-6.09-2.71-9.68 0-3.91 1.19-7.61 3.36-10.98 2.28-3.37 5.42-5.98 9.76-7.83 4.23-1.74 9-2.61 14.21-2.61 5.75 0 10.85.98 15.3 2.83 4.34 1.85 7.7 4.57 10.09 8.16s3.69 7.72 3.8 12.29l-9.87.76c-.43-5-2.28-8.7-5.32-11.2s-7.59-3.81-13.56-3.81-10.74 1.2-13.56 3.48-4.23 5-4.23 8.26c0 2.83.98 5.11 2.93 6.85 2.06 1.85 7.16 3.7 15.51 5.55 8.35 1.96 14.1 3.59 17.25 5 4.45 2.07 7.81 4.78 9.98 7.94 2.17 3.26 3.25 6.85 3.25 11.09s-1.19 8.05-3.58 11.74c-2.39 3.59-5.75 6.42-10.2 8.48-4.45 2.07-9.44 3.04-14.97 3.04-7.05 0-12.91-.98-17.68-3.04-4.77-2.07-8.46-5.11-11.17-9.24s-4.12-8.81-4.23-14.03Z" class="cls-1" style="fill:#67ea94;fill-opacity:1"/><path id="path9" d="M656.52 115.42V46.8h-25.6v-9.24h61.62v9.24h-25.71v68.62z" class="cls-1" style="fill:#67ea94;fill-opacity:1"/></g><path id="path10" d="m804.51 88.37 10.31 2.61c-2.17 8.48-6.07 14.9-11.72 19.36-5.53 4.46-12.37 6.63-20.5 6.63s-15.19-1.63-20.39-5.11c-5.21-3.37-9.22-8.37-11.93-14.79-2.82-6.52-4.12-13.48-4.12-20.88 0-8.16 1.52-15.22 4.66-21.2 3.04-6.09 7.49-10.66 13.13-13.81 5.75-3.15 12.04-4.68 18.88-4.68 7.7 0 14.32 1.96 19.53 5.98 5.32 3.91 9 9.46 11.06 16.64l-10.09 2.39c-1.74-5.65-4.45-9.79-7.81-12.29-3.47-2.61-7.7-3.91-12.91-3.91-5.97 0-10.96 1.41-14.97 4.35-4.01 2.83-6.83 6.63-8.46 11.53-1.63 4.78-2.5 9.79-2.5 14.9 0 6.63.98 12.4 2.93 17.4 1.95 4.89 4.88 8.59 9 10.98 4.01 2.5 8.46 3.7 13.13 3.7 5.75 0 10.63-1.63 14.64-5 4.01-3.26 6.73-8.26 8.14-14.79Z" class="cls-1" style="fill:#67ea94;fill-opacity:1"/></g><g id="g14" style="fill:#67ea94;fill-opacity:1"><path id="path11" d="M964.54 19.71H853.19c-7.72 0-13.98 6.26-13.98 13.98v84.67c0 7.72 6.26 13.98 13.98 13.98h111.35c7.72 0 13.98-6.26 13.98-13.98V33.69c0-7.72-6.26-13.98-13.98-13.98m2.89 94.73c0 4.47-3.62 8.09-8.09 8.09H858.39c-4.47 0-8.09-3.62-8.09-8.09V37.6c0-4.47 3.62-8.09 8.09-8.09h100.95c4.47 0 8.09 3.62 8.09 8.09z" class="cls-1" style="fill:#67ea94;fill-opacity:1"/><g id="g13" style="fill:#67ea94;fill-opacity:1"><path id="path12" d="M905.17 49.03h21.76c3.71 0 7.06.63 10.05 1.88 2.98 1.25 5.53 3 7.64 5.23s3.73 4.87 4.86 7.9c1.13 3.04 1.69 6.36 1.69 9.97s-.56 6.86-1.69 9.9-2.74 5.67-4.82 7.9-4.63 3.98-7.64 5.23-6.37 1.88-10.09 1.88h-21.76V49.01Zm21.53 41.85q3.69 0 6.51-1.32c1.88-.88 3.45-2.07 4.7-3.58s2.21-3.29 2.86-5.34c.65-2.06.98-4.27.98-6.62s-.33-4.58-.98-6.66-1.61-3.89-2.86-5.42-2.82-2.73-4.7-3.61q-2.82-1.32-6.51-1.32h-13.32l.9-.9v35.68l-.9-.9h13.32Z" class="cls-1" style="fill:#67ea94;fill-opacity:1"/><path id="path13" d="m866.58 90.16 16.18-16.18-16.18-16.18 8.09-8.09 22.5 22.5c.98.98.98 2.56 0 3.53l-22.5 22.5-8.09-8.09Z" class="cls-1" style="fill:#67ea94;fill-opacity:1"/></g></g></svg>