<svg height="1000" viewBox="150 150 650 650" width="1000" xmlns="http://www.w3.org/2000/svg"><path d="m604.2826 369.65498h-72.27958v-85.03476a102.04171 102.04171 0 1 0 -204.08336 0v85.03476h-72.27955a12.755214 12.755214 0 0 0 -12.75522 12.75521v297.62165a12.755214 12.755214 0 0 0 12.75522 12.75522h348.64249a12.755214 12.755214 0 0 0 12.75522-12.75522v-297.62165a12.755214 12.755214 0 0 0 -12.75522-12.75521zm-112.67104 0h-123.3004v-85.83197a61.650202 61.650202 0 1 1 123.3004 0z" fill="#4d4d4d" stroke-width="1.06293"/><path d="m540.01854 526.74488c0 10.20417 0 20.09437 3.21824 29.35662-33.83075 39.71777-131.47682 152.67009-131.47682 152.67009l2.27632 28.49319s27.31578 25.9029 31.39745 21.97821c12.08802-11.77404 19.46642-19.78039 19.46642-19.78039l5.68293-34.02698 36.97835-2.72373 2.96706-36.73502 38.95638-.74569.38462-39.31745 41.35829 1.64836 7.06443-14.7882c12.16651 5.25908 23.23411 7.3784 37.44146 7.3784 53.76813 0 97.33209-41.91559 97.33209-93.56439 0-51.64881-43.59536-93.40742-97.36349-93.40742s-95.68373 41.9156-95.68373 93.5644zm148.15672-18.21052a30.494773 30.494773 0 1 1 -30.49478-30.49477 30.463375 30.463375 0 0 1 30.49478 30.49477z" fill="#67ea94" stroke="#4d4d4d" stroke-width="8.5"/></svg>
