<?xml version="1.0" encoding="UTF-8" standalone="no"?>
<svg
   xmlns:dc="http://purl.org/dc/elements/1.1/"
   xmlns:cc="http://creativecommons.org/ns#"
   xmlns:rdf="http://www.w3.org/1999/02/22-rdf-syntax-ns#"
   xmlns:svg="http://www.w3.org/2000/svg"
   xmlns="http://www.w3.org/2000/svg"
   xmlns:sodipodi="http://sodipodi.sourceforge.net/DTD/sodipodi-0.dtd"
   xmlns:inkscape="http://www.inkscape.org/namespaces/inkscape"
   viewBox="150 150 650 650"
   x="0px"
   y="0px"
   width="1000px"
   height="1000px"
   version="1.1"
   id="svg2552"
   sodipodi:docname="encryption.svg"
   inkscape:version="1.1-dev (f9311a1, 2019-12-25)">
  <metadata
     id="metadata2558">
    <rdf:RDF>
      <cc:Work
         rdf:about="">
        <dc:format>image/svg+xml</dc:format>
        <dc:type
           rdf:resource="http://purl.org/dc/dcmitype/StillImage" />
        <dc:title />
      </cc:Work>
    </rdf:RDF>
  </metadata>
  <defs
     id="defs2556" />
  <sodipodi:namedview
     pagecolor="#ffffff"
     bordercolor="#666666"
     inkscape:document-rotation="0"
     borderopacity="1"
     objecttolerance="10"
     gridtolerance="10"
     guidetolerance="10"
     inkscape:pageopacity="0"
     inkscape:pageshadow="2"
     inkscape:window-width="1440"
     inkscape:window-height="829"
     id="namedview2554"
     showgrid="false"
     inkscape:zoom="0.21985622"
     inkscape:cx="-461.19183"
     inkscape:cy="389.09841"
     inkscape:window-x="0"
     inkscape:window-y="23"
     inkscape:window-maximized="0"
     inkscape:current-layer="svg2552" />
  <path
     id="path2031"
     d="m 604.2826,369.65498 h -72.27958 v -85.03476 a 102.04171,102.04171 0 1 0 -204.08336,0 v 85.03476 h -72.27955 a 12.755214,12.755214 0 0 0 -12.75522,12.75521 v 297.62165 a 12.755214,12.755214 0 0 0 12.75522,12.75522 H 604.2826 a 12.755214,12.755214 0 0 0 12.75522,-12.75522 V 382.41019 A 12.755214,12.755214 0 0 0 604.2826,369.65498 Z m -112.67104,0 h -123.3004 v -85.83197 a 61.650202,61.650202 0 1 1 123.3004,0 z"
     inkscape:connector-curvature="0"
     style="fill:#8c8ea0;fill-opacity:1;stroke-width:1.06293" />
  <path
     id="path1428"
     d="m 540.01854,526.74488 c 0,10.20417 0,20.09437 3.21824,29.35662 -33.83075,39.71777 -131.47682,152.67009 -131.47682,152.67009 l 2.27632,28.49319 c 0,0 27.31578,25.9029 31.39745,21.97821 12.08802,-11.77404 19.46642,-19.78039 19.46642,-19.78039 l 5.68293,-34.02698 36.97835,-2.72373 2.96706,-36.73502 38.95638,-0.74569 0.38462,-39.31745 41.35829,1.64836 7.06443,-14.7882 c 12.16651,5.25908 23.23411,7.3784 37.44146,7.3784 53.76813,0 97.33209,-41.91559 97.33209,-93.56439 0,-51.64881 -43.59536,-93.40742 -97.36349,-93.40742 -53.76813,0 -95.68373,41.9156 -95.68373,93.5644 z m 148.15672,-18.21052 a 30.494773,30.494773 0 1 1 -30.49478,-30.49477 30.463375,30.463375 0 0 1 30.49478,30.49477 z"
     inkscape:connector-curvature="0"
     style="fill:#67ea94;fill-opacity:1;stroke:#8c8ea0;stroke-width:15.6987;stroke-miterlimit:4;stroke-dasharray:none;stroke-opacity:1" />
</svg>
