<svg height="1000" viewBox="150 150 650 650" width="1000" xmlns="http://www.w3.org/2000/svg"><path d="m626.17928 465.50584h-26.52301a1.9177887 1.9177887 0 0 1 -1.91779-1.91778v-74.06499a37.262634 37.262634 0 0 0 -37.26264-37.26264h-74.06499a1.9177887 1.9177887 0 0 1 -1.91779-1.91779v-26.52301c0-26.0244-20.61624-47.81047-46.64063-48.26116a47.494037 47.494037 0 0 0 -48.32827 47.47486v27.30931a1.9177887 1.9177887 0 0 1 -1.91779 1.91779h-74.06499a38.106461 38.106461 0 0 0 -37.99141 37.99139v67.48698a1.9177887 1.9177887 0 0 0 1.91779 1.91779h25.80385c28.16273 0 51.47345 24.43262 51.8666 52.59536.40273 28.64217-22.54361 54.80081-51.09948 54.80081h-26.57097a1.9177887 1.9177887 0 0 0 -1.91779 1.91779v67.48698a38.106461 38.106461 0 0 0 37.99141 37.99139h67.48698a1.9177887 1.9177887 0 0 0 1.91778-1.91779v-20.06964c0-29.03533 23.73264-54.0337 52.73919-54.71451 28.86272-.67124 54.65698 19.47514 54.65698 48.21319v26.57096a1.9177887 1.9177887 0 0 0 1.91778 1.91779h68.21575a37.262634 37.262634 0 0 0 37.26264-37.26263v-74.79375a1.9177887 1.9177887 0 0 1 1.91779-1.9178h27.30931c26.49425 0 47.48445-21.73813 47.48445-48.32827s-22.24635-46.64063-48.27075-46.64063z" fill="#67ea94" stroke="#8c8ea0" stroke-linecap="round" stroke-linejoin="round" stroke-width="32"/></svg>