<svg xmlns="http://www.w3.org/2000/svg" width="74" height="79" fill="#fff" viewBox="0 0 74 79"><path fill="inherit" d="M73.701 17.96c-1.14-8.34-8.524-14.911-17.277-16.185C54.947 1.56 49.352.777 36.39.777h-.097c-12.965 0-15.746.783-17.223.998C10.56 3.013 2.789 8.918.903 17.356-.004 21.511-.1 26.118.068 30.344c.24 6.06.287 12.11.846 18.145a84 84 0 0 0 2.018 11.902c1.792 7.23 9.048 13.249 16.156 15.703a44 44 0 0 0 23.636 1.228 35 35 0 0 0 2.56-.688c1.903-.596 4.136-1.263 5.778-2.434a.18.18 0 0 0 .075-.14v-5.85a.17.17 0 0 0-.068-.133.18.18 0 0 0-.147-.032 66.5 66.5 0 0 1-15.338 1.764c-8.89 0-11.28-4.152-11.966-5.88a18 18 0 0 1-1.04-4.636.17.17 0 0 1 .064-.14.17.17 0 0 1 .152-.032 65.3 65.3 0 0 0 15.087 1.763c1.223 0 2.441 0 3.664-.031 5.111-.142 10.499-.399 15.528-1.366.125-.024.25-.045.358-.077 7.933-1.5 15.482-6.205 16.249-18.12.029-.47.1-4.914.1-5.401.004-1.654.542-11.736-.079-17.93M61.493 47.691H53.15V27.586c0-4.233-1.792-6.392-5.437-6.392-4.008 0-6.015 2.554-6.015 7.598v11.005h-8.291V28.792c0-5.044-2.011-7.598-6.019-7.598-3.624 0-5.434 2.159-5.437 6.392v20.106h-8.334V26.975q0-6.35 3.294-10.088c2.265-2.487 5.237-3.764 8.925-3.764 4.27 0 7.496 1.616 9.646 4.843l2.076 3.429 2.079-3.429c2.15-3.227 5.377-4.843 9.639-4.843 3.684 0 6.656 1.277 8.929 3.764Q61.5 20.622 61.5 26.975z"/></svg>