<svg height="1000" viewBox="150 150 650 650" width="1000" xmlns="http://www.w3.org/2000/svg"><path d="m585.20406 337.46384v148.39991a52.284954 52.284954 0 0 1 -52.13599 52.13601h-153.75502a7.4479993 7.4479993 0 0 0 -4.77683 1.73109l-9.22817 7.69352v20.92747a52.284953 52.284953 0 0 0 52.13599 52.136h153.75502a7.4479989 7.4479989 0 0 1 4.77501 1.7311l87.25396 72.74889v-74.47999h37.23999a52.284953 52.284953 0 0 0 52.13599-52.136v-178.752a52.284953 52.284953 0 0 0 -52.13599-52.136z" fill="#67ea94" stroke="#4d4d4d" stroke-linejoin="round" stroke-width="29.792"/><path d="m532.55599 255.03389h-283.02398a52.284957 52.284957 0 0 0 -52.13599 52.136v178.75199a52.284957 52.284957 0 0 0 52.13599 52.13599h37.24v74.48l87.25331-72.74834a7.4479995 7.4479995 0 0 1 4.77603-1.73166h153.75464a52.284957 52.284957 0 0 0 52.136-52.13599v-178.75199a52.284957 52.284957 0 0 0 -52.136-52.136z" fill="none" stroke="#4d4d4d" stroke-linejoin="round" stroke-width="29.792"/><g fill="#4d4d4d"><circle cx="301.66803" cy="396.54596" r="29.791998"/><circle cx="391.04401" cy="396.54596" r="29.791998"/><circle cx="480.41998" cy="396.54596" r="29.791998"/></g></svg>
