<?xml version="1.0" encoding="UTF-8" standalone="no"?>
<svg
   xmlns:dc="http://purl.org/dc/elements/1.1/"
   xmlns:cc="http://creativecommons.org/ns#"
   xmlns:rdf="http://www.w3.org/1999/02/22-rdf-syntax-ns#"
   xmlns:svg="http://www.w3.org/2000/svg"
   xmlns="http://www.w3.org/2000/svg"
   xmlns:sodipodi="http://sodipodi.sourceforge.net/DTD/sodipodi-0.dtd"
   xmlns:inkscape="http://www.inkscape.org/namespaces/inkscape"
   inkscape:version="1.1-dev (f9311a1, 2019-12-25)"
   sodipodi:docname="messages.svg"
   id="svg2552"
   version="1.1"
   height="1000px"
   width="1000px"
   y="0px"
   x="0px"
   viewBox="150 150 650 650">
  <metadata
     id="metadata2558">
    <rdf:RDF>
      <cc:Work
         rdf:about="">
        <dc:format>image/svg+xml</dc:format>
        <dc:type
           rdf:resource="http://purl.org/dc/dcmitype/StillImage" />
        <dc:title />
      </cc:Work>
    </rdf:RDF>
  </metadata>
  <defs
     id="defs2556" />
  <sodipodi:namedview
     inkscape:current-layer="svg2552"
     inkscape:window-maximized="0"
     inkscape:window-y="23"
     inkscape:window-x="0"
     inkscape:cy="676.32321"
     inkscape:cx="-42.928485"
     inkscape:zoom="0.42598983"
     showgrid="false"
     id="namedview2554"
     inkscape:window-height="829"
     inkscape:window-width="1440"
     inkscape:pageshadow="2"
     inkscape:pageopacity="0"
     guidetolerance="10"
     gridtolerance="10"
     objecttolerance="10"
     borderopacity="1"
     inkscape:document-rotation="0"
     bordercolor="#666666"
     pagecolor="#ffffff" />
  <g
     id="g3794">
    <path
       inkscape:connector-curvature="0"
       d="m 585.20406,337.46384 v 148.39991 a 52.284954,52.284954 0 0 1 -52.13599,52.13601 H 379.31305 a 7.4479993,7.4479993 0 0 0 -4.77683,1.73109 l -9.22817,7.69352 v 20.92747 a 52.284953,52.284953 0 0 0 52.13599,52.136 h 153.75502 a 7.4479989,7.4479989 0 0 1 4.77501,1.7311 l 87.25396,72.74889 v -74.47999 h 37.23999 a 52.284953,52.284953 0 0 0 52.13599,-52.136 v -178.752 a 52.284953,52.284953 0 0 0 -52.13599,-52.136 z"
       style="fill:#67ea94;fill-opacity:1;stroke:#8c8ea0;stroke-width:29.79200000000000159px;stroke-linejoin:round;stroke-opacity:1"
       id="path839-0-4" />
    <path
       id="path839"
       style="fill:none;stroke:#8c8ea0;stroke-width:29.792px;stroke-linejoin:round;stroke-opacity:1"
       d="M 532.55599,255.03389 H 249.53201 a 52.284957,52.284957 0 0 0 -52.13599,52.136 v 178.75199 a 52.284957,52.284957 0 0 0 52.13599,52.13599 h 37.24 v 74.48 l 87.25331,-72.74834 a 7.4479995,7.4479995 0 0 1 4.77603,-1.73166 h 153.75464 a 52.284957,52.284957 0 0 0 52.136,-52.13599 V 307.16989 a 52.284957,52.284957 0 0 0 -52.136,-52.136 z"
       inkscape:connector-curvature="0" />
    <circle
       id="circle841"
       r="29.791998"
       cy="396.54596"
       cx="301.66803"
       style="fill:#8c8ea0;fill-opacity:1;stroke:#8c8ea0;stroke-width:0;stroke-miterlimit:4;stroke-dasharray:none;stroke-opacity:1" />
    <circle
       id="circle843"
       r="29.791998"
       cy="396.54596"
       cx="391.04401"
       style="fill:#8c8ea0;fill-opacity:1;stroke:#8c8ea0;stroke-width:0;stroke-miterlimit:4;stroke-dasharray:none;stroke-opacity:1" />
    <circle
       id="circle845"
       r="29.791998"
       cy="396.54596"
       cx="480.41998"
       style="fill:#8c8ea0;fill-opacity:1;stroke:#8c8ea0;stroke-width:0;stroke-miterlimit:4;stroke-dasharray:none;stroke-opacity:1" />
  </g>
</svg>
