<svg height="1000" viewBox="150 150 650 650" width="1000" xmlns="http://www.w3.org/2000/svg"><g stroke-width=".65" transform="matrix(-2403.8462 0 0 0 -624628.82 150)"><circle cx="-259.90799" cy="348.21353" r="72.800003"/><path d="m-259.90798 441.81355c-45.123 0-135.2 27.872-135.2 83.2v41.6h270.39999v-41.6c0-55.328-90.077-83.2-135.19999-83.2z"/></g><g transform="translate(-72.893828 73.324518)"><g fill="#67ea94"><circle cx="809.71533" cy="368.6572" r="23.734468"/><circle cx="682.32843" cy="210.17131" r="23.734468"/><circle cx="682.32843" cy="369.75418" r="23.734468"/></g><g fill="#4d4d4d" stroke-width=".65" transform="matrix(1.4200109 0 0 1.4200109 247.07705 -14.128526)"><circle cx="94.256836" cy="296.29715" r="46.799999"/><path d="m147.55684 369.09715c-18.304-9.295-38.506-13-53.299997-13-28.977 0-88.4000005 17.771-88.4000005 53.3v27.3h97.4999975v-10.4455c0-12.35 5.2-24.7325 14.3-35.0545 7.2605-8.242 17.4265-15.8925 29.9-22.1z"/><path d="m216.45684 363.89715c-33.8455 0-101.4 20.904-101.4 62.4v31.2h202.8v-31.2c0-41.496-67.5545-62.4-101.4-62.4z"/><circle cx="216.45685" cy="285.89716" r="57.200001"/></g><path d="m714.13879 210.27688a31.56376 31.56376 0 1 0 -47.83883 27.03141v103.46995a31.56376 31.56376 0 1 0 31.56376 0v-102.88306a31.593351 31.593351 0 0 0 16.27507-27.6183zm-31.56376-15.78187a15.78188 15.78188 0 1 1 -15.78189 15.78187 15.78188 15.78188 0 0 1 15.78189-15.78187zm-.49319 189.38256a15.78188 15.78188 0 1 1 15.78188-15.78188 15.78188 15.78188 0 0 1 -15.78188 15.78188z" fill="#4d4d4d" stroke-width=".493184"/><path d="m824.61195 340.77824v-100.91033a45.422223 45.422223 0 0 0 -45.37291-45.3729h-17.26143v-26.66645l-43.33112 42.44832 43.33112 42.44833v-26.66644h17.26143a13.809145 13.809145 0 0 1 13.80915 13.80914v100.91033a31.56376 31.56376 0 1 0 31.56376 0zm-15.78189 43.09933a15.78188 15.78188 0 1 1 15.78189-15.78188 15.78188 15.78188 0 0 1 -15.78189 15.78188z" fill="#4d4d4d" stroke-width=".493184"/></g></svg>
