<svg height="1000" viewBox="150 150 650 650" width="1000" xmlns="http://www.w3.org/2000/svg"><g fill="#67ea94"><path d="m655.36603 295.9169h102.79914v193.76836h-102.79914z" stroke="#000" stroke-opacity=".894118" stroke-width="2.1259"/><rect height="274.79065" rx="29.051876" stroke="#8c8ea0" stroke-linejoin="round" stroke-width="28.9253" width="376.0293" x="225.88797" y="362.05963"/><path d="m196.96265 651.31293h433.87994" stroke="#8c8ea0" stroke-linecap="round" stroke-miterlimit="10" stroke-width="28.9253"/></g><path d="m759.78194 284.43303h-105.13245a7.5094606 7.5094605 0 0 0 -7.50946 7.50946v198.58351a7.5094606 7.5094605 0 0 0 7.50946 7.50946h105.13245a7.5094606 7.5094605 0 0 0 7.50946-7.50946v-198.58351a7.5094606 7.5094605 0 0 0 -7.50946-7.50946zm-97.62299 186.90213v-160.20183h90.11353v160.20183z" fill="#8c8ea0" stroke="#2c2d3c" stroke-width=".417192"/><g clip-rule="evenodd" fill="#2c2d3c" fill-rule="evenodd" stroke-linejoin="round" stroke-miterlimit="2" transform="matrix(.78403486 0 0 .44950568 541.89089 237.0322)"><path d="m250.912 334.664-55.737 81.739-16.286-11.106 63.864-93.657c1.834-2.69 4.878-4.301 8.134-4.304s6.303 1.602 8.142 4.289l64.011 93.51-16.266 11.135z" transform="matrix(.201804 0 0 .351989 167.289 216.061)"/><path d="m89.878 582.923 67.115-98.421-16.591-11.314-67.115 98.421z" transform="matrix(.205009 0 0 .357578 174.224 154.227)"/></g><g clip-rule="evenodd" fill="#2c2d3c" fill-rule="evenodd" stroke-linejoin="round" stroke-miterlimit="2" transform="matrix(4.180922 0 0 2.3970211 -467.70386 -322.83841)"><path d="m250.912 334.664-55.737 81.739-16.286-11.106 63.864-93.657c1.834-2.69 4.878-4.301 8.134-4.304s6.303 1.602 8.142 4.289l64.011 93.51-16.266 11.135z" transform="matrix(.201804 0 0 .351989 167.289 216.061)"/><path d="m89.878 582.923 67.115-98.421-16.591-11.314-67.115 98.421z" transform="matrix(.205009 0 0 .357578 174.224 154.227)"/></g></svg>