<?xml version="1.0" encoding="utf-8"?>
<!-- Generator: Adobe Illustrator 21.1.0, SVG Export Plug-In . SVG Version: 6.00 Build 0)  -->
<svg version="1.1" xmlns="http://www.w3.org/2000/svg" xmlns:xlink="http://www.w3.org/1999/xlink" x="0px" y="0px"
	viewBox="85.45 80.45 170.9 170.9">
	<g>
		<path style="fill: #FFFFFF;" d="M227.9,170.9c0-6.9-5.6-12.5-12.5-12.5c-3.4,0-6.4,1.3-8.6,3.5c-8.5-6.1-20.3-10.1-33.3-10.6l5.7-26.7
			l18.5,3.9c0.2,4.7,4.1,8.5,8.9,8.5c4.9,0,8.9-4,8.9-8.9c0-4.9-4-8.9-8.9-8.9c-3.5,0-6.5,2-7.9,5l-20.7-4.4c-0.6-0.1-1.2,0-1.7,0.3
			c-0.5,0.3-0.8,0.8-1,1.4l-6.3,29.8c-13.3,0.4-25.2,4.3-33.8,10.6c-2.2-2.1-5.3-3.5-8.6-3.5c-6.9,0-12.5,5.6-12.5,12.5
			c0,5.1,3,9.4,7.4,11.4c-0.2,1.2-0.3,2.5-0.3,3.8c0,19.2,22.3,34.7,49.9,34.7s49.9-15.5,49.9-34.7c0-1.3-0.1-2.5-0.3-3.7
			C224.8,180.4,227.9,176,227.9,170.9z M142.4,179.8c0-4.9,4-8.9,8.9-8.9c4.9,0,8.9,4,8.9,8.9c0,4.9-4,8.9-8.9,8.9
			C146.4,188.7,142.4,184.7,142.4,179.8z M192.1,203.3c-6.1,6.1-17.7,6.5-21.1,6.5c-3.4,0-15.1-0.5-21.1-6.5c-0.9-0.9-0.9-2.4,0-3.3
			c0.9-0.9,2.4-0.9,3.3,0c3.8,3.8,12,5.2,17.9,5.2s14-1.4,17.9-5.2c0.9-0.9,2.4-0.9,3.3,0C193,201,193,202.4,192.1,203.3z
			 M190.5,188.7c-4.9,0-8.9-4-8.9-8.9c0-4.9,4-8.9,8.9-8.9c4.9,0,8.9,4,8.9,8.9C199.4,184.7,195.4,188.7,190.5,188.7z" />
	</g>
</svg>