<?xml version="1.0" encoding="UTF-8" standalone="no"?>
<svg
   xmlns:dc="http://purl.org/dc/elements/1.1/"
   xmlns:cc="http://creativecommons.org/ns#"
   xmlns:rdf="http://www.w3.org/1999/02/22-rdf-syntax-ns#"
   xmlns:svg="http://www.w3.org/2000/svg"
   xmlns="http://www.w3.org/2000/svg"
   xmlns:sodipodi="http://sodipodi.sourceforge.net/DTD/sodipodi-0.dtd"
   xmlns:inkscape="http://www.inkscape.org/namespaces/inkscape"
   inkscape:version="1.1-dev (f9311a1, 2019-12-25)"
   sodipodi:docname="encryption.svg"
   id="svg2552"
   version="1.1"
   height="1000px"
   width="1000px"
   y="0px"
   x="0px"
   viewBox="150 150 650 650">
  <metadata
     id="metadata2558">
    <rdf:RDF>
      <cc:Work
         rdf:about="">
        <dc:format>image/svg+xml</dc:format>
        <dc:type
           rdf:resource="http://purl.org/dc/dcmitype/StillImage" />
        <dc:title />
      </cc:Work>
    </rdf:RDF>
  </metadata>
  <defs
     id="defs2556" />
  <sodipodi:namedview
     inkscape:current-layer="svg2552"
     inkscape:window-maximized="0"
     inkscape:window-y="23"
     inkscape:window-x="0"
     inkscape:cy="193.51604"
     inkscape:cx="-636.30628"
     inkscape:zoom="0.21985622"
     showgrid="false"
     id="namedview2554"
     inkscape:window-height="829"
     inkscape:window-width="1440"
     inkscape:pageshadow="2"
     inkscape:pageopacity="0"
     guidetolerance="10"
     gridtolerance="10"
     objecttolerance="10"
     borderopacity="1"
     inkscape:document-rotation="0"
     bordercolor="#666666"
     pagecolor="#ffffff" />
  <g
     transform="matrix(1.2075942,0,0,1.2075942,-94.26622,-98.607245)"
     id="g3790">
    <g
       transform="translate(-40.89095,-30.934621)"
       id="g4693">
      <path
         style="fill:#2c2d3c;fill-opacity:1;stroke-width:0.880208"
         inkscape:connector-curvature="0"
         d="m 619.35416,418.69917 h -59.8542 V 348.2825 a 84.5,84.5 0 1 0 -168.99995,0 v 70.41667 h -59.85417 a 10.5625,10.5625 0 0 0 -10.5625,10.5625 V 675.72 a 10.5625,10.5625 0 0 0 10.5625,10.5625 H 619.35416 A 10.5625,10.5625 0 0 0 629.91666,675.72 V 429.26167 a 10.5625,10.5625 0 0 0 -10.5625,-10.5625 z m -93.30207,0 H 423.94792 v -71.07683 a 51.052085,51.052085 0 1 1 102.10417,0 z"
         id="path2031" />
      <path
         style="fill:#67ea94;fill-opacity:1;stroke:#2c2d3c;stroke-width:13;stroke-miterlimit:4;stroke-dasharray:none;stroke-opacity:1"
         inkscape:connector-curvature="0"
         d="m 566.13756,548.78418 c 0,8.45 0,16.64 2.665,24.31 -28.015,32.89 -108.875,126.425 -108.875,126.425 l 1.885,23.595 c 0,0 22.62,21.45 26,18.2 10.01,-9.75 16.12,-16.38 16.12,-16.38 l 4.706,-28.1775 30.6215,-2.2555 2.457,-30.42 32.2595,-0.6175 0.3185,-32.5585 34.2485,1.365 5.85,-12.246 c 10.075,4.355 19.24,6.11 31.005,6.11 44.525,0 80.6,-34.71 80.6,-77.48 0,-42.77 -36.101,-77.35 -80.626,-77.35 -44.525,0 -79.235,34.71 -79.235,77.48 z m 122.6875,-15.08 a 25.2525,25.2525 0 1 1 -25.2525,-25.2525 25.2265,25.2265 0 0 1 25.2525,25.2525 z"
         id="path1428" />
    </g>
  </g>
</svg>
