<?xml version="1.0" encoding="UTF-8" standalone="no"?>
<svg
   xmlns:dc="http://purl.org/dc/elements/1.1/"
   xmlns:cc="http://creativecommons.org/ns#"
   xmlns:rdf="http://www.w3.org/1999/02/22-rdf-syntax-ns#"
   xmlns:svg="http://www.w3.org/2000/svg"
   xmlns="http://www.w3.org/2000/svg"
   xmlns:sodipodi="http://sodipodi.sourceforge.net/DTD/sodipodi-0.dtd"
   xmlns:inkscape="http://www.inkscape.org/namespaces/inkscape"
   viewBox="150 150 650 650"
   x="0px"
   y="0px"
   width="1000px"
   height="1000px"
   version="1.1"
   id="svg2552"
   sodipodi:docname="extendable.svg"
   inkscape:version="1.1-dev (f9311a1, 2019-12-25)">
  <metadata
     id="metadata2558">
    <rdf:RDF>
      <cc:Work
         rdf:about="">
        <dc:format>image/svg+xml</dc:format>
        <dc:type
           rdf:resource="http://purl.org/dc/dcmitype/StillImage" />
        <dc:title />
      </cc:Work>
    </rdf:RDF>
  </metadata>
  <defs
     id="defs2556" />
  <sodipodi:namedview
     pagecolor="#ffffff"
     bordercolor="#666666"
     inkscape:document-rotation="0"
     borderopacity="1"
     objecttolerance="10"
     gridtolerance="10"
     guidetolerance="10"
     inkscape:pageopacity="0"
     inkscape:pageshadow="2"
     inkscape:window-width="1440"
     inkscape:window-height="829"
     id="namedview2554"
     showgrid="false"
     inkscape:zoom="0.38374466"
     inkscape:cx="-44.961751"
     inkscape:cy="466.99383"
     inkscape:window-x="0"
     inkscape:window-y="23"
     inkscape:window-maximized="0"
     inkscape:current-layer="svg2552" />
  <path
     inkscape:connector-curvature="0"
     fill="none"
     stroke="#000"
     stroke-linecap="round"
     stroke-linejoin="round"
     stroke-width="32"
     d="m 679.98935,462.12652 h -35.96349 a 2.6003977,2.6003977 0 0 1 -2.6004,-2.60039 V 359.09877 A 50.525726,50.525726 0 0 0 590.89973,308.57304 H 490.47237 a 2.6003977,2.6003977 0 0 1 -2.60039,-2.6004 v -35.96349 c 0,-35.2874 -27.95429,-64.82791 -63.24168,-65.43901 a 64.398848,64.398848 0 0 0 -65.53001,64.37285 v 37.02965 a 2.6003977,2.6003977 0 0 1 -2.60041,2.6004 H 256.07253 a 51.669901,51.669901 0 0 0 -51.51389,51.51388 v 91.50799 a 2.6003977,2.6003977 0 0 0 2.6004,2.6004 h 34.98836 c 38.18683,0 69.79466,33.12906 70.32775,71.31591 0.54608,38.83693 -30.56768,74.30636 -69.28759,74.30636 h -36.02852 a 2.6003977,2.6003977 0 0 0 -2.6004,2.6004 v 91.50799 a 51.669901,51.669901 0 0 0 51.51389,51.51387 h 91.50799 a 2.6003977,2.6003977 0 0 0 2.6004,-2.60039 v -27.21316 c 0,-39.37002 32.17992,-73.2662 71.51093,-74.18934 39.13598,-0.91014 74.11133,26.40704 74.11133,65.37399 v 36.02851 a 2.6003977,2.6003977 0 0 0 2.60039,2.60039 h 92.49616 a 50.525726,50.525726 0 0 0 50.52573,-50.52572 V 593.49861 a 2.6003977,2.6003977 0 0 1 2.6004,-2.6004 h 37.02965 c 35.9245,0 64.38585,-29.4755 64.38585,-65.53001 0,-36.05452 -30.16461,-63.24168 -65.45201,-63.24168 z"
     id="path3864"
     style="fill:#67ea94;fill-opacity:1;stroke:#2c2d3c;stroke-opacity:1" />
</svg>
