<?xml version="1.0" encoding="UTF-8" standalone="no"?>
<svg
   xmlns:dc="http://purl.org/dc/elements/1.1/"
   xmlns:cc="http://creativecommons.org/ns#"
   xmlns:rdf="http://www.w3.org/1999/02/22-rdf-syntax-ns#"
   xmlns:svg="http://www.w3.org/2000/svg"
   xmlns="http://www.w3.org/2000/svg"
   xmlns:sodipodi="http://sodipodi.sourceforge.net/DTD/sodipodi-0.dtd"
   xmlns:inkscape="http://www.inkscape.org/namespaces/inkscape"
   inkscape:version="1.1-dev (f9311a1, 2019-12-25)"
   sodipodi:docname="extendable.svg"
   id="svg2552"
   version="1.1"
   height="1000px"
   width="1000px"
   y="0px"
   x="0px"
   viewBox="150 150 650 650">
  <metadata
     id="metadata2558">
    <rdf:RDF>
      <cc:Work
         rdf:about="">
        <dc:format>image/svg+xml</dc:format>
        <dc:type
           rdf:resource="http://purl.org/dc/dcmitype/StillImage" />
        <dc:title />
      </cc:Work>
    </rdf:RDF>
  </metadata>
  <defs
     id="defs2556" />
  <sodipodi:namedview
     inkscape:current-layer="svg2552"
     inkscape:window-maximized="0"
     inkscape:window-y="23"
     inkscape:window-x="0"
     inkscape:cy="597.2888"
     inkscape:cx="336.80252"
     inkscape:zoom="0.38374466"
     showgrid="false"
     id="namedview2554"
     inkscape:window-height="829"
     inkscape:window-width="1440"
     inkscape:pageshadow="2"
     inkscape:pageopacity="0"
     guidetolerance="10"
     gridtolerance="10"
     objecttolerance="10"
     borderopacity="1"
     inkscape:document-rotation="0"
     bordercolor="#666666"
     pagecolor="#ffffff" />
  <path
     style="fill:#67ea94;fill-opacity:1;stroke:#8c8ea0;stroke-opacity:1"
     id="path3864"
     d="m 626.17928,465.50584 h -26.52301 a 1.9177887,1.9177887 0 0 1 -1.91779,-1.91778 v -74.06499 a 37.262634,37.262634 0 0 0 -37.26264,-37.26264 h -74.06499 a 1.9177887,1.9177887 0 0 1 -1.91779,-1.91779 v -26.52301 c 0,-26.0244 -20.61624,-47.81047 -46.64063,-48.26116 a 47.494037,47.494037 0 0 0 -48.32827,47.47486 v 27.30931 a 1.9177887,1.9177887 0 0 1 -1.91779,1.91779 h -74.06499 a 38.106461,38.106461 0 0 0 -37.99141,37.99139 v 67.48698 a 1.9177887,1.9177887 0 0 0 1.91779,1.91779 h 25.80385 c 28.16273,0 51.47345,24.43262 51.8666,52.59536 0.40273,28.64217 -22.54361,54.80081 -51.09948,54.80081 h -26.57097 a 1.9177887,1.9177887 0 0 0 -1.91779,1.91779 v 67.48698 a 38.106461,38.106461 0 0 0 37.99141,37.99139 h 67.48698 a 1.9177887,1.9177887 0 0 0 1.91778,-1.91779 v -20.06964 c 0,-29.03533 23.73264,-54.0337 52.73919,-54.71451 28.86272,-0.67124 54.65698,19.47514 54.65698,48.21319 v 26.57096 a 1.9177887,1.9177887 0 0 0 1.91778,1.91779 h 68.21575 a 37.262634,37.262634 0 0 0 37.26264,-37.26263 v -74.79375 a 1.9177887,1.9177887 0 0 1 1.91779,-1.9178 h 27.30931 c 26.49425,0 47.48445,-21.73813 47.48445,-48.32827 0,-26.59014 -22.24635,-46.64063 -48.27075,-46.64063 z"
     stroke-width="32"
     stroke-linejoin="round"
     stroke-linecap="round"
     stroke="#000"
     fill="none"
     inkscape:connector-curvature="0" />
</svg>
