<?xml version="1.0" encoding="UTF-8" standalone="no"?>
<svg
   xmlns:dc="http://purl.org/dc/elements/1.1/"
   xmlns:cc="http://creativecommons.org/ns#"
   xmlns:rdf="http://www.w3.org/1999/02/22-rdf-syntax-ns#"
   xmlns:svg="http://www.w3.org/2000/svg"
   xmlns="http://www.w3.org/2000/svg"
   xmlns:sodipodi="http://sodipodi.sourceforge.net/DTD/sodipodi-0.dtd"
   xmlns:inkscape="http://www.inkscape.org/namespaces/inkscape"
   viewBox="150 150 650 650"
   x="0px"
   y="0px"
   width="1000px"
   height="1000px"
   version="1.1"
   id="svg2552"
   sodipodi:docname="messages.svg"
   inkscape:version="1.1-dev (f9311a1, 2019-12-25)">
  <metadata
     id="metadata2558">
    <rdf:RDF>
      <cc:Work
         rdf:about="">
        <dc:format>image/svg+xml</dc:format>
        <dc:type
           rdf:resource="http://purl.org/dc/dcmitype/StillImage" />
        <dc:title />
      </cc:Work>
    </rdf:RDF>
  </metadata>
  <defs
     id="defs2556" />
  <sodipodi:namedview
     pagecolor="#ffffff"
     bordercolor="#666666"
     inkscape:document-rotation="0"
     borderopacity="1"
     objecttolerance="10"
     gridtolerance="10"
     guidetolerance="10"
     inkscape:pageopacity="0"
     inkscape:pageshadow="2"
     inkscape:window-width="1440"
     inkscape:window-height="829"
     id="namedview2554"
     showgrid="false"
     inkscape:zoom="0.42598983"
     inkscape:cx="-405.6132"
     inkscape:cy="683.36563"
     inkscape:window-x="0"
     inkscape:window-y="23"
     inkscape:window-maximized="0"
     inkscape:current-layer="svg2552" />
  <g
     transform="matrix(1.1117734,0,0,1.1117734,-53.092357,-53.092361)"
     id="g2651">
    <path
       id="path839-0-4"
       style="fill:#67ea94;fill-opacity:1;stroke:#2c2d3c;stroke-width:26.7968px;stroke-linejoin:round;stroke-opacity:1"
       d="M 574.12456,351.29119 V 484.77155 A 47.028427,47.028427 0 0 1 527.23012,531.666 H 388.93304 a 6.6992062,6.6992062 0 0 0 -4.29659,1.55706 l -8.3004,6.92004 v 18.8235 a 47.028426,47.028426 0 0 0 46.89444,46.89445 h 138.29708 a 6.6992059,6.6992059 0 0 1 4.29495,1.55706 l 78.48178,65.435 v -66.99206 h 33.49603 A 47.028426,47.028426 0 0 0 724.69477,558.9666 V 398.18564 a 47.028426,47.028426 0 0 0 -46.89444,-46.89445 z"
       inkscape:connector-curvature="0" />
    <g
       id="g1460"
       transform="matrix(1.2883089,0,0,1.2883089,-188.73673,-372.8753)"
       style="stroke:#2c2d3c;stroke-opacity:1">
      <path
         id="path839"
         style="fill:none;stroke:#2c2d3c;stroke-width:20.8px;stroke-linejoin:round;stroke-opacity:1"
         d="m 555.38407,504.55579 h -197.6 a 36.504,36.504 0 0 0 -36.4,36.4 v 124.8 a 36.504,36.504 0 0 0 36.4,36.4 h 26 v 52 l 60.918,-50.791 a 5.2,5.2 0 0 1 3.3345,-1.209 h 107.3475 a 36.504,36.504 0 0 0 36.4,-36.4 v -124.8 a 36.504,36.504 0 0 0 -36.4,-36.4 z"
         inkscape:connector-curvature="0" />
      <circle
         id="circle841"
         r="20.799999"
         cy="603.35583"
         cx="394.18408"
         style="fill:#2c2d3c;fill-opacity:1;stroke:#2c2d3c;stroke-width:0;stroke-miterlimit:4;stroke-dasharray:none;stroke-opacity:1" />
      <circle
         id="circle843"
         r="20.799999"
         cy="603.35583"
         cx="456.58408"
         style="fill:#2c2d3c;fill-opacity:1;stroke:#2c2d3c;stroke-width:0;stroke-miterlimit:4;stroke-dasharray:none;stroke-opacity:1" />
      <circle
         id="circle845"
         r="20.799999"
         cy="603.35583"
         cx="518.98407"
         style="fill:#2c2d3c;fill-opacity:1;stroke:#2c2d3c;stroke-width:0;stroke-miterlimit:4;stroke-dasharray:none;stroke-opacity:1" />
    </g>
  </g>
</svg>
