<?xml version="1.0" encoding="UTF-8" standalone="no"?>
<svg
   xmlns:dc="http://purl.org/dc/elements/1.1/"
   xmlns:cc="http://creativecommons.org/ns#"
   xmlns:rdf="http://www.w3.org/1999/02/22-rdf-syntax-ns#"
   xmlns:svg="http://www.w3.org/2000/svg"
   xmlns="http://www.w3.org/2000/svg"
   xmlns:sodipodi="http://sodipodi.sourceforge.net/DTD/sodipodi-0.dtd"
   xmlns:inkscape="http://www.inkscape.org/namespaces/inkscape"
   inkscape:version="1.1-dev (f9311a1, 2019-12-25)"
   sodipodi:docname="opensource.svg"
   id="svg2552"
   version="1.1"
   height="1000px"
   width="1000px"
   y="0px"
   x="0px"
   viewBox="150 150 650 650">
  <metadata
     id="metadata2558">
    <rdf:RDF>
      <cc:Work
         rdf:about="">
        <dc:format>image/svg+xml</dc:format>
        <dc:type
           rdf:resource="http://purl.org/dc/dcmitype/StillImage" />
        <dc:title />
      </cc:Work>
    </rdf:RDF>
  </metadata>
  <defs
     id="defs2556" />
  <sodipodi:namedview
     inkscape:current-layer="g2767"
     inkscape:window-maximized="0"
     inkscape:window-y="23"
     inkscape:window-x="0"
     inkscape:cy="792.26674"
     inkscape:cx="55.230787"
     inkscape:zoom="0.25792546"
     showgrid="false"
     id="namedview2554"
     inkscape:window-height="829"
     inkscape:window-width="1440"
     inkscape:pageshadow="2"
     inkscape:pageopacity="0"
     guidetolerance="10"
     gridtolerance="10"
     objecttolerance="10"
     borderopacity="1"
     inkscape:document-rotation="0"
     bordercolor="#666666"
     pagecolor="#ffffff" />
  <g
     id="g2144"
     transform="matrix(-2403.8462,0,0,0,-624628.82,150)">
    <circle
       id="circle937-3"
       r="72.800003"
       cy="348.21353"
       cx="-259.90799"
       style="stroke-width:0.65" />
    <path
       id="path939-9"
       d="m -259.90798,441.81355 c -45.123,0 -135.2,27.872 -135.2,83.2 v 41.6 h 270.39999 v -41.6 c 0,-55.328 -90.077,-83.2 -135.19999,-83.2 z"
       inkscape:connector-curvature="0"
       style="stroke-width:0.65" />
  </g>
  <g
     id="g2767"
     transform="translate(-72.893828,73.324518)">
    <circle
       style="fill:#67ea94;fill-opacity:1;stroke:#000000;stroke-width:0;stroke-miterlimit:4;stroke-dasharray:none"
       id="path4674-0"
       cx="809.71533"
       cy="368.6572"
       r="23.734468" />
    <circle
       r="23.734468"
       cy="210.17131"
       cx="682.32843"
       id="path4674"
       style="fill:#67ea94;fill-opacity:1;stroke:#000000;stroke-width:0;stroke-miterlimit:4;stroke-dasharray:none" />
    <circle
       style="fill:#67ea94;fill-opacity:1;stroke:#000000;stroke-width:0;stroke-miterlimit:4;stroke-dasharray:none"
       id="path4674-4"
       cx="682.32843"
       cy="369.75418"
       r="23.734468" />
    <g
       style="fill:#8c8ea0;fill-opacity:1"
       transform="matrix(1.4200109,0,0,1.4200109,247.07705,-14.128526)"
       id="g2753">
      <circle
         id="circle2148"
         r="46.799999"
         cy="296.29715"
         cx="94.256836"
         style="fill:#8c8ea0;fill-opacity:1;stroke-width:0.65" />
      <path
         id="path2150"
         d="m 147.55684,369.09715 c -18.304,-9.295 -38.506,-13 -53.299997,-13 -28.977,0 -88.4000005,17.771 -88.4000005,53.3 v 27.3 H 103.35684 v -10.4455 c 0,-12.35 5.2,-24.7325 14.3,-35.0545 7.2605,-8.242 17.4265,-15.8925 29.9,-22.1 z"
         inkscape:connector-curvature="0"
         style="fill:#8c8ea0;fill-opacity:1;stroke-width:0.65" />
      <path
         id="path2152"
         d="m 216.45684,363.89715 c -33.8455,0 -101.4,20.904 -101.4,62.4 v 31.2 h 202.8 v -31.2 c 0,-41.496 -67.5545,-62.4 -101.4,-62.4 z"
         inkscape:connector-curvature="0"
         style="fill:#8c8ea0;fill-opacity:1;stroke-width:0.65" />
      <circle
         id="circle2154"
         r="57.200001"
         cy="285.89716"
         cx="216.45685"
         style="fill:#8c8ea0;fill-opacity:1;stroke-width:0.65" />
    </g>
    <path
       style="fill:#8c8ea0;fill-opacity:1;stroke-width:0.493184"
       inkscape:connector-curvature="0"
       d="m 714.13879,210.27688 a 31.56376,31.56376 0 1 0 -47.83883,27.03141 v 103.46995 a 31.56376,31.56376 0 1 0 31.56376,0 V 237.89518 a 31.593351,31.593351 0 0 0 16.27507,-27.6183 z m -31.56376,-15.78187 a 15.78188,15.78188 0 1 1 -15.78189,15.78187 15.78188,15.78188 0 0 1 15.78189,-15.78187 z m -0.49319,189.38256 a 15.78188,15.78188 0 1 1 15.78188,-15.78188 15.78188,15.78188 0 0 1 -15.78188,15.78188 z"
       id="path1533" />
    <path
       style="fill:#8c8ea0;fill-opacity:1;stroke-width:0.493184"
       inkscape:connector-curvature="0"
       d="M 824.61195,340.77824 V 239.86791 a 45.422223,45.422223 0 0 0 -45.37291,-45.3729 h -17.26143 v -26.66645 l -43.33112,42.44832 43.33112,42.44833 v -26.66644 h 17.26143 a 13.809145,13.809145 0 0 1 13.80915,13.80914 v 100.91033 a 31.56376,31.56376 0 1 0 31.56376,0 z m -15.78189,43.09933 a 15.78188,15.78188 0 1 1 15.78189,-15.78188 15.78188,15.78188 0 0 1 -15.78189,15.78188 z"
       id="path1535" />
  </g>
</svg>
