<?xml version="1.0" encoding="UTF-8" standalone="no"?>
<svg
   xmlns:dc="http://purl.org/dc/elements/1.1/"
   xmlns:cc="http://creativecommons.org/ns#"
   xmlns:rdf="http://www.w3.org/1999/02/22-rdf-syntax-ns#"
   xmlns:svg="http://www.w3.org/2000/svg"
   xmlns="http://www.w3.org/2000/svg"
   xmlns:sodipodi="http://sodipodi.sourceforge.net/DTD/sodipodi-0.dtd"
   xmlns:inkscape="http://www.inkscape.org/namespaces/inkscape"
   viewBox="150 150 650 650"
   x="0px"
   y="0px"
   width="1000px"
   height="1000px"
   version="1.1"
   id="svg2552"
   sodipodi:docname="opensource.svg"
   inkscape:version="1.1-dev (f9311a1, 2019-12-25)">
  <metadata
     id="metadata2558">
    <rdf:RDF>
      <cc:Work
         rdf:about="">
        <dc:format>image/svg+xml</dc:format>
        <dc:type
           rdf:resource="http://purl.org/dc/dcmitype/StillImage" />
        <dc:title />
      </cc:Work>
    </rdf:RDF>
  </metadata>
  <defs
     id="defs2556" />
  <sodipodi:namedview
     pagecolor="#ffffff"
     bordercolor="#666666"
     inkscape:document-rotation="0"
     borderopacity="1"
     objecttolerance="10"
     gridtolerance="10"
     guidetolerance="10"
     inkscape:pageopacity="0"
     inkscape:pageshadow="2"
     inkscape:window-width="1440"
     inkscape:window-height="829"
     id="namedview2554"
     showgrid="false"
     inkscape:zoom="0.25792546"
     inkscape:cx="1282.3295"
     inkscape:cy="1164.4673"
     inkscape:window-x="0"
     inkscape:window-y="23"
     inkscape:window-maximized="0"
     inkscape:current-layer="g2767" />
  <g
     transform="matrix(-2403.8462,0,0,0,-624628.82,150)"
     id="g2144">
    <circle
       style="stroke-width:0.65"
       cx="-259.90799"
       cy="348.21353"
       r="72.800003"
       id="circle937-3" />
    <path
       style="stroke-width:0.65"
       inkscape:connector-curvature="0"
       d="m -259.90798,441.81355 c -45.123,0 -135.2,27.872 -135.2,83.2 v 41.6 h 270.39999 v -41.6 c 0,-55.328 -90.077,-83.2 -135.19999,-83.2 z"
       id="path939-9" />
  </g>
  <g
     transform="translate(-72.893828,73.324518)"
     id="g2767">
    <g
       transform="matrix(0.97372176,0,0,0.97372176,14.397685,10.555324)"
       id="g1453">
      <circle
         style="fill:#67ea94;fill-opacity:1;stroke:#000000;stroke-width:0;stroke-miterlimit:4;stroke-dasharray:none"
         id="path4674-0"
         cx="816.78119"
         cy="367.76611"
         r="24.375" />
      <circle
         r="24.375"
         cy="205.00311"
         cx="685.95648"
         id="path4674"
         style="fill:#67ea94;fill-opacity:1;stroke:#000000;stroke-width:0;stroke-miterlimit:4;stroke-dasharray:none" />
      <circle
         style="fill:#67ea94;fill-opacity:1;stroke:#000000;stroke-width:0;stroke-miterlimit:4;stroke-dasharray:none"
         id="path4674-4"
         cx="685.95648"
         cy="368.8927"
         r="24.375" />
      <g
         style="fill:#2c2d3c;fill-opacity:1"
         transform="matrix(1.4583333,0,0,1.4583333,238.95878,-25.350003)"
         id="g2753">
        <circle
           id="circle2148"
           r="46.799999"
           cy="296.29715"
           cx="94.256836"
           style="fill:#2c2d3c;fill-opacity:1;stroke-width:0.65" />
        <path
           id="path2150"
           d="m 147.55684,369.09715 c -18.304,-9.295 -38.506,-13 -53.299997,-13 -28.977,0 -88.4000005,17.771 -88.4000005,53.3 v 27.3 H 103.35684 v -10.4455 c 0,-12.35 5.2,-24.7325 14.3,-35.0545 7.2605,-8.242 17.4265,-15.8925 29.9,-22.1 z"
           inkscape:connector-curvature="0"
           style="fill:#2c2d3c;fill-opacity:1;stroke-width:0.65" />
        <path
           id="path2152"
           d="m 216.45684,363.89715 c -33.8455,0 -101.4,20.904 -101.4,62.4 v 31.2 h 202.8 v -31.2 c 0,-41.496 -67.5545,-62.4 -101.4,-62.4 z"
           inkscape:connector-curvature="0"
           style="fill:#2c2d3c;fill-opacity:1;stroke-width:0.65" />
        <circle
           id="circle2154"
           r="57.200001"
           cy="285.89716"
           cx="216.45685"
           style="fill:#2c2d3c;fill-opacity:1;stroke-width:0.65" />
      </g>
      <path
         style="fill:#2c2d3c;fill-opacity:1;stroke-width:0.506494"
         inkscape:connector-curvature="0"
         d="m 718.62531,205.11153 a 32.415584,32.415584 0 1 0 -49.12987,27.76091 v 106.26234 a 32.415584,32.415584 0 1 0 32.41558,0 V 233.47517 a 32.445974,32.445974 0 0 0 16.71429,-28.36364 z m -32.41558,-16.20779 a 16.207792,16.207792 0 1 1 -16.2078,16.20779 16.207792,16.207792 0 0 1 16.2078,-16.20779 z m -0.5065,194.49351 a 16.207792,16.207792 0 1 1 16.20779,-16.20779 16.207792,16.207792 0 0 1 -16.20779,16.20779 z"
         id="path1533" />
      <path
         style="fill:#2c2d3c;fill-opacity:1;stroke-width:0.506494"
         inkscape:connector-curvature="0"
         d="M 832.07986,339.13478 V 235.50114 a 46.648052,46.648052 0 0 0 -46.59741,-46.5974 h -17.72727 v -27.3861 l -44.50052,43.59389 44.50052,43.5939 v -27.3861 h 17.72727 a 14.181818,14.181818 0 0 1 14.18182,14.18181 v 103.63364 a 32.415584,32.415584 0 1 0 32.41559,0 z m -16.2078,44.26247 a 16.207792,16.207792 0 1 1 16.2078,-16.20779 16.207792,16.207792 0 0 1 -16.2078,16.20779 z"
         id="path1535" />
    </g>
  </g>
</svg>
