<?xml version="1.0" encoding="UTF-8" standalone="no"?>
<svg
   xmlns:osb="http://www.openswatchbook.org/uri/2009/osb"
   xmlns:dc="http://purl.org/dc/elements/1.1/"
   xmlns:cc="http://creativecommons.org/ns#"
   xmlns:rdf="http://www.w3.org/1999/02/22-rdf-syntax-ns#"
   xmlns:svg="http://www.w3.org/2000/svg"
   xmlns="http://www.w3.org/2000/svg"
   xmlns:sodipodi="http://sodipodi.sourceforge.net/DTD/sodipodi-0.dtd"
   xmlns:inkscape="http://www.inkscape.org/namespaces/inkscape"
   viewBox="150 150 650 650"
   x="0px"
   y="0px"
   width="1000px"
   height="1000px"
   version="1.1"
   id="svg2552"
   sodipodi:docname="platforms.svg"
   inkscape:version="1.1-dev (f9311a1, 2019-12-25)">
  <metadata
     id="metadata2558">
    <rdf:RDF>
      <cc:Work
         rdf:about="">
        <dc:format>image/svg+xml</dc:format>
        <dc:type
           rdf:resource="http://purl.org/dc/dcmitype/StillImage" />
        <dc:title />
      </cc:Work>
    </rdf:RDF>
  </metadata>
  <defs
     id="defs2556">
    <linearGradient
       osb:paint="solid"
       id="linearGradient5705">
      <stop
         id="stop5703"
         offset="0"
         style="stop-color:#000000;stop-opacity:1;" />
    </linearGradient>
  </defs>
  <sodipodi:namedview
     pagecolor="#ffffff"
     bordercolor="#666666"
     inkscape:document-rotation="0"
     borderopacity="1"
     objecttolerance="10"
     gridtolerance="10"
     guidetolerance="10"
     inkscape:pageopacity="0"
     inkscape:pageshadow="2"
     inkscape:window-width="1440"
     inkscape:window-height="829"
     id="namedview2554"
     showgrid="false"
     inkscape:zoom="0.39126799"
     inkscape:cx="60.054323"
     inkscape:cy="640.00102"
     inkscape:window-x="0"
     inkscape:window-y="23"
     inkscape:window-maximized="0"
     inkscape:current-layer="svg2552" />
  <g
     transform="matrix(1.0953971,0,0,1.0953971,-45.417918,-45.209326)"
     id="g2072">
    <rect
       style="fill:#67ea94;fill-opacity:1;stroke:#000000;stroke-width:1.94076;stroke-opacity:0.894118"
       id="rect5697"
       width="93.846458"
       height="176.89325"
       x="639.75336"
       y="311.41788"
       ry="0" />
    <rect
       id="rect3910"
       style="fill:#67ea94;fill-opacity:1;stroke:#2c2d3c;stroke-width:26.4062px;stroke-linejoin:round;stroke-opacity:1"
       ry="26.521776"
       rx="26.521776"
       height="250.85939"
       width="343.28125"
       y="371.80029"
       x="247.67812" />
    <line
       id="line3912"
       style="fill:#67ea94;fill-opacity:1;stroke:#2c2d3c;stroke-width:26.4062px;stroke-linecap:round;stroke-miterlimit:10;stroke-opacity:1"
       y2="635.86279"
       x2="617.3656"
       y1="635.86279"
       x1="221.27187" />
    <path
       style="fill:#2c2d3c;fill-opacity:1;stroke:#2c2d3c;stroke-width:0.380859;stroke-opacity:1"
       inkscape:connector-curvature="0"
       id="path5091"
       d="M 735.07576,300.93411 H 639.0992 a 6.8554688,6.8554687 0 0 0 -6.85547,6.85547 v 181.28906 a 6.8554688,6.8554687 0 0 0 6.85547,6.85547 h 95.97656 a 6.8554688,6.8554687 0 0 0 6.85547,-6.85547 V 307.78958 a 6.8554688,6.8554687 0 0 0 -6.85547,-6.85547 z m -89.12109,170.625 v -146.25 h 82.26562 v 146.25 z" />
    <g
       id="g7659"
       transform="matrix(0.715754,0,0,0.41035865,536.16064,257.66138)"
       style="clip-rule:evenodd;fill-rule:evenodd;stroke-linejoin:round;stroke-miterlimit:2">
      <g
         id="g7653"
         transform="matrix(0.201804,0,0,0.351989,167.289,216.061)">
        <path
           id="path7651"
           d="m 250.912,334.664 -55.737,81.739 -16.286,-11.106 63.864,-93.657 c 1.834,-2.69 4.878,-4.301 8.134,-4.304 3.256,-0.003 6.303,1.602 8.142,4.289 l 64.011,93.51 -16.266,11.135 z"
           inkscape:connector-curvature="0" />
      </g>
      <g
         id="g7657"
         transform="matrix(0.205009,0,0,0.357578,174.224,154.227)">
        <path
           id="path7655"
           d="m 89.878,582.923 67.115,-98.421 -16.591,-11.314 -67.115,98.421 z"
           inkscape:connector-curvature="0" />
      </g>
    </g>
    <g
       id="g8287"
       transform="matrix(0.2767321,0,0,0.15865831,253.0896,397.61164)"
       style="clip-rule:evenodd;fill-rule:evenodd;stroke-linejoin:round;stroke-miterlimit:1.5">
      <g
         id="g8285">
        <g
           id="g8259"
           transform="matrix(0.973838,0,0,1.69858,-1.56777,-229.112)">
          <path
             id="path8257"
             style="fill:none;stroke:#000000;stroke-width:14.11px"
             d="m 81.582,577.266 66.954,-98.462"
             inkscape:connector-curvature="0" />
        </g>
        <g
           id="g8263"
           transform="matrix(0.961342,0,0,1.67678,882.45,-216.54)">
          <path
             id="path8261"
             style="fill:none;stroke:#000000;stroke-width:14.86px"
             d="m 81.582,577.266 66.954,-98.462"
             inkscape:connector-curvature="0" />
        </g>
        <g
           id="g8267"
           transform="matrix(12.0448,0,0,21.0595,-7445.39,-7644.88)">
          <text
             id="text8265"
             style="font-size:12px;font-family:ArialMT, Arial, sans-serif"
             y="399.07199"
             x="640.98798">ESHT</text>
        </g>
        <g
           id="g8271"
           transform="matrix(0.977299,0,0,1.70462,-43.6432,50.5292)">
          <path
             id="path8269"
             style="fill:none;stroke:#000000;stroke-width:13.85px"
             d="m 187.032,410.85 63.864,-93.658 64.011,93.51"
             inkscape:connector-curvature="0" />
        </g>
        <g
           id="g8275"
           transform="matrix(0.977299,0,0,1.70462,468.182,53.0697)">
          <path
             id="path8273"
             style="fill:none;stroke:#000000;stroke-width:13.85px"
             d="m 187.032,410.85 63.864,-93.658 64.011,93.51"
             inkscape:connector-curvature="0" />
        </g>
        <g
           id="g8279"
           transform="matrix(0.571939,0,0,1,784.482,759.924)">
          <text
             id="text8277"
             style="font-size:252.715px;font-family:ArialMT, Arial, sans-serif"
             y="0"
             x="0">ST</text>
        </g>
        <g
           id="g8283"
           transform="matrix(0.571939,0,0,1,1030.51,760.498)">
          <text
             id="text8281"
             style="font-size:252.715px;font-family:ArialMT, Arial, sans-serif"
             y="0"
             x="0">C</text>
        </g>
      </g>
    </g>
  </g>
</svg>
