<svg xmlns="http://www.w3.org/2000/svg" xmlns:xlink="http://www.w3.org/1999/xlink" width="105.004mm" height="62.865mm" viewBox="4011.8 3321.2 413.4 247.5"><title></title><style type="text/css">
*[layerid="1"] {stroke:#FF0000;fill:#FF0000;}
*[layerid="2"] {stroke:#0000FF;fill:#0000FF;}
*[layerid="3"] {stroke:#FFCC00;fill:#FFCC00;}
*[layerid="4"] {stroke:#66CC33;fill:#66CC33;}
*[layerid="5"] {stroke:#808080;fill:#808080;}
*[layerid="6"] {stroke:#800000;fill:#800000;}
*[layerid="7"] {stroke:#800080;fill:#800080;stroke-opacity:0.7;fill-opacity:0.7;}
*[layerid="8"] {stroke:#AA00FF;fill:#AA00FF;stroke-opacity:0.7;fill-opacity:0.7;}
*[layerid="9"] {stroke:#6464FF;fill:#6464FF;}
*[layerid="10"] {stroke:#FF00FF;fill:#FF00FF;}
*[layerid="11"] {stroke:#C0C0C0;fill:#C0C0C0;}
*[layerid="12"] {stroke:#FFFFFF;fill:#FFFFFF;}
*[layerid="13"] {stroke:#33CC99;fill:#33CC99;}
*[layerid="14"] {stroke:#5555FF;fill:#5555FF;}
*[layerid="15"] {stroke:#F022F0;fill:#F022F0;}
*[layerid="19"] {stroke:#66CCFF;fill:#66CCFF;}
*[layerid="21"] {stroke:#999966;fill:#999966;}
*[layerid="22"] {stroke:#008000;fill:#008000;}
*[layerid="23"] {stroke:#00FF00;fill:#00FF00;}
*[layerid="24"] {stroke:#BC8E00;fill:#BC8E00;}
*[layerid="25"] {stroke:#70DBFA;fill:#70DBFA;}
*[layerid="26"] {stroke:#00CC66;fill:#00CC66;}
*[layerid="27"] {stroke:#9966FF;fill:#9966FF;}
*[layerid="28"] {stroke:#800080;fill:#800080;}
*[layerid="29"] {stroke:#008080;fill:#008080;}
*[layerid="30"] {stroke:#15935F;fill:#15935F;}
*[layerid="31"] {stroke:#000080;fill:#000080;}
*[layerid="32"] {stroke:#00B400;fill:#00B400;}
*[layerid="33"] {stroke:#2E4756;fill:#2E4756;}
*[layerid="34"] {stroke:#99842F;fill:#99842F;}
*[layerid="35"] {stroke:#FFFFAA;fill:#FFFFAA;}
*[layerid="36"] {stroke:#99842F;fill:#99842F;}
*[layerid="37"] {stroke:#2E4756;fill:#2E4756;}
*[layerid="38"] {stroke:#3535FF;fill:#3535FF;}
*[layerid="39"] {stroke:#8000BC;fill:#8000BC;}
*[layerid="40"] {stroke:#43AE5F;fill:#43AE5F;}
*[layerid="41"] {stroke:#C3ECCE;fill:#C3ECCE;}
*[layerid="42"] {stroke:#728978;fill:#728978;}
*[layerid="43"] {stroke:#39503F;fill:#39503F;}
*[layerid="44"] {stroke:#0C715D;fill:#0C715D;}
*[layerid="45"] {stroke:#5A8A80;fill:#5A8A80;}
*[layerid="46"] {stroke:#2B937E;fill:#2B937E;}
*[layerid="47"] {stroke:#23999D;fill:#23999D;}
*[layerid="48"] {stroke:#45B4E3;fill:#45B4E3;}
*[layerid="49"] {stroke:#215DA1;fill:#215DA1;}
*[layerid="50"] {stroke:#4564D7;fill:#4564D7;}
*[layerid="51"] {stroke:#6969E9;fill:#6969E9;}
*[layerid="52"] {stroke:#9069E9;fill:#9069E9;}
*[layerid="99"] {stroke:#00CCCC;fill:#00CCCC;stroke-opacity:0.6;fill-opacity:0.6;}
*[layerid="100"] {stroke:#CC9999;fill:#CC9999;}
*[layerid="101"] {stroke:#66FFCC;fill:#66FFCC;}
*[layerid="Hole"] {stroke:#222222;fill:#222222;}
*[layerid="DRCError"] {stroke:#FAD609;fill:#FAD609;}
*[fill="none"] {fill: none;}
*[stroke="none"] {stroke: none;}
path, polyline, polygon, line {stroke-linecap:round;}
g[c_partid="part_pad"][layerid="1"] ellipse:not([c_etype="pad_outer"]) {fill:#FF0000;}
g[c_partid="part_pad"][layerid="1"] polygon:not([c_etype="pad_outer"]) {fill:#FF0000;}
g[c_partid="part_pad"][layerid="1"] polyline:not([c_etype="pad_outer"]) {stroke:#FF0000;}
g[c_partid="part_pad"][layerid="2"] ellipse:not([c_etype="pad_outer"]) {fill:#0000FF;}
g[c_partid="part_pad"][layerid="2"] polygon:not([c_etype="pad_outer"]) {fill:#0000FF;}
g[c_partid="part_pad"][layerid="2"] polyline:not([c_etype="pad_outer"]) {stroke:#0000FF;}
g[c_partid="part_pad"][layerid="11"] ellipse:not([c_etype="pad_outer"]) {fill:#C0C0C0;}
g[c_partid="part_pad"][layerid="11"] polygon:not([c_etype="pad_outer"]) {fill:#C0C0C0;}
g[c_partid="part_pad"][layerid="11"] polyline:not([c_etype="pad_outer"]) {stroke:#C0C0C0;}
g[c_partid="part_pad"][layerid="11"] circle {fill:#222222;}
g[c_partid="part_pad"][layerid="11"] > polyline:nth-of-type(2) {stroke:#222222;}
g[c_partid="part_pad"][layerid="11"][c_shape="ELLIPSE"]  polyline:nth-last-of-type(1) {stroke:#222222;}
g[c_partid="part_pad"][layerid="11"][c_shape="RECT"]  polyline:nth-last-of-type(1) {stroke:#222222;}
g[c_partid="part_pad"][layerid="11"][c_shape="POLYGON"]  polyline:nth-last-of-type(1) {stroke:#222222;}
g[c_partid="part_via"] > * + circle, #gCurParts g[c_partid="part_via"] > * + circle {fill:#222222;}
g[c_partid="part_pad"] > polygon[c_etype="pad_outer"], #gCurParts g[c_partid="part_pad"] > polygon[c_etype="pad_outer"] {stroke-linejoin: miter;stroke-miterlimit: 100;}
g[c_partid="part_hole"] > circle {fill: #222222;}path, polyline, polygon {stroke-linejoin:round;}
rect, circle, ellipse, polyline, line, polygon, path {shape-rendering:crispEdges;}
</style>
<rect x="4011.8" y="3321.2" width="413.4" height="247.5" stroke="none"/><g c_partid="part_pcbtext" c_etype="pinpart" c_origin="4213.5,3521" c_rotation="0" c_mirror="0" id="gge503" locked="0" layerid="1" c_shapetype="group" ><path c_fontsize="13.7795" c_fontfamily="" c_text="Nano Edition G1" d="M 4213.5 3507.0952 L 4213.5 3520.2484 M 4213.5 3507.0952 L 4222.2688 3520.2484 M 4222.2688 3507.0952 L 4222.2688 3520.2484 M 4233.9187 3511.4796 L 4233.9187 3520.2484 M 4233.9187 3513.3586 L 4232.666 3512.106 L 4231.4133 3511.4796 L 4229.5343 3511.4796 L 4228.2816 3512.106 L 4227.029 3513.3586 L 4226.4026 3515.2377 L 4226.4026 3516.4903 L 4227.029 3518.3694 L 4228.2816 3519.6221 L 4229.5343 3520.2484 L 4231.4133 3520.2484 L 4232.666 3519.6221 L 4233.9187 3518.3694 M 4238.0526 3511.4796 L 4238.0526 3520.2484 M 4238.0526 3513.985 L 4239.9316 3512.106 L 4241.1843 3511.4796 L 4243.0633 3511.4796 L 4244.316 3512.106 L 4244.9423 3513.985 L 4244.9423 3520.2484 M 4252.2079 3511.4796 L 4250.9552 3512.106 L 4249.7025 3513.3586 L 4249.0762 3515.2377 L 4249.0762 3516.4903 L 4249.7025 3518.3694 L 4250.9552 3519.6221 L 4252.2079 3520.2484 L 4254.0869 3520.2484 L 4255.3396 3519.6221 L 4256.5923 3518.3694 L 4257.2186 3516.4903 L 4257.2186 3515.2377 L 4256.5923 3513.3586 L 4255.3396 3512.106 L 4254.0869 3511.4796 L 4252.2079 3511.4796 M 4270.9981 3507.0952 L 4270.9981 3520.2484 M 4270.9981 3507.0952 L 4279.1405 3507.0952 M 4270.9981 3513.3586 L 4276.0088 3513.3586 M 4270.9981 3520.2484 L 4279.1405 3520.2484 M 4290.7905 3507.0952 L 4290.7905 3520.2484 M 4290.7905 3513.3586 L 4289.5378 3512.106 L 4288.2851 3511.4796 L 4286.4061 3511.4796 L 4285.1534 3512.106 L 4283.9007 3513.3586 L 4283.2744 3515.2377 L 4283.2744 3516.4903 L 4283.9007 3518.3694 L 4285.1534 3519.6221 L 4286.4061 3520.2484 L 4288.2851 3520.2484 L 4289.5378 3519.6221 L 4290.7905 3518.3694 M 4294.9243 3507.0952 L 4295.5507 3507.7216 L 4296.177 3507.0952 L 4295.5507 3506.4689 L 4294.9243 3507.0952 M 4295.5507 3511.4796 L 4295.5507 3520.2484 M 4302.1899 3507.0952 L 4302.1899 3517.743 L 4302.8162 3519.6221 L 4304.0689 3520.2484 L 4305.3216 3520.2484 M 4300.3109 3511.4796 L 4304.6952 3511.4796 M 4309.4554 3507.0952 L 4310.0818 3507.7216 L 4310.7081 3507.0952 L 4310.0818 3506.4689 L 4309.4554 3507.0952 M 4310.0818 3511.4796 L 4310.0818 3520.2484 M 4317.9737 3511.4796 L 4316.721 3512.106 L 4315.4683 3513.3586 L 4314.842 3515.2377 L 4314.842 3516.4903 L 4315.4683 3518.3694 L 4316.721 3519.6221 L 4317.9737 3520.2484 L 4319.8527 3520.2484 L 4321.1054 3519.6221 L 4322.3581 3518.3694 L 4322.9844 3516.4903 L 4322.9844 3515.2377 L 4322.3581 3513.3586 L 4321.1054 3512.106 L 4319.8527 3511.4796 L 4317.9737 3511.4796 M 4327.1182 3511.4796 L 4327.1182 3520.2484 M 4327.1182 3513.985 L 4328.9973 3512.106 L 4330.2499 3511.4796 L 4332.129 3511.4796 L 4333.3816 3512.106 L 4334.008 3513.985 L 4334.008 3520.2484 M 4357.1826 3510.2269 L 4356.5563 3508.9743 L 4355.3036 3507.7216 L 4354.0509 3507.0952 L 4351.5455 3507.0952 L 4350.2929 3507.7216 L 4349.0402 3508.9743 L 4348.4138 3510.2269 L 4347.7875 3512.106 L 4347.7875 3515.2377 L 4348.4138 3517.1167 L 4349.0402 3518.3694 L 4350.2929 3519.6221 L 4351.5455 3520.2484 L 4354.0509 3520.2484 L 4355.3036 3519.6221 L 4356.5563 3518.3694 L 4357.1826 3517.1167 L 4357.1826 3515.2377 M 4354.0509 3515.2377 L 4357.1826 3515.2377 M 4361.3165 3509.6006 L 4362.5691 3508.9743 L 4364.4482 3507.0952 L 4364.4482 3520.2484" fill="none"  stroke-width="1.9685"  /></g><g c_partid="part_pcbtext" c_etype="pinpart" c_origin="4169.5,3497.5" c_rotation="0" c_mirror="0" id="gge485" locked="0" layerid="1" c_shapetype="group" ><path c_fontsize="13.7795" c_fontfamily="" c_text="Meshtastic Mesh Device" d="M 4169.5 3483.5952 L 4169.5 3496.7484 M 4169.5 3483.5952 L 4174.5107 3496.7484 M 4179.5215 3483.5952 L 4174.5107 3496.7484 M 4179.5215 3483.5952 L 4179.5215 3496.7484 M 4183.6553 3491.7377 L 4191.1714 3491.7377 L 4191.1714 3490.485 L 4190.5451 3489.2323 L 4189.9188 3488.6059 L 4188.6661 3487.9796 L 4186.787 3487.9796 L 4185.5344 3488.6059 L 4184.2817 3489.8586 L 4183.6553 3491.7377 L 4183.6553 3492.9903 L 4184.2817 3494.8694 L 4185.5344 3496.122 L 4186.787 3496.7484 L 4188.6661 3496.7484 L 4189.9188 3496.122 L 4191.1714 3494.8694 M 4202.1951 3489.8586 L 4201.5687 3488.6059 L 4199.6897 3487.9796 L 4197.8107 3487.9796 L 4195.9316 3488.6059 L 4195.3053 3489.8586 L 4195.9316 3491.1113 L 4197.1843 3491.7377 L 4200.316 3492.364 L 4201.5687 3492.9903 L 4202.1951 3494.243 L 4202.1951 3494.8694 L 4201.5687 3496.122 L 4199.6897 3496.7484 L 4197.8107 3496.7484 L 4195.9316 3496.122 L 4195.3053 3494.8694 M 4206.3289 3483.5952 L 4206.3289 3496.7484 M 4206.3289 3490.485 L 4208.2079 3488.6059 L 4209.4606 3487.9796 L 4211.3397 3487.9796 L 4212.5923 3488.6059 L 4213.2187 3490.485 L 4213.2187 3496.7484 M 4219.2316 3483.5952 L 4219.2316 3494.243 L 4219.8579 3496.122 L 4221.1106 3496.7484 L 4222.3633 3496.7484 M 4217.3525 3487.9796 L 4221.7369 3487.9796 M 4234.0132 3487.9796 L 4234.0132 3496.7484 M 4234.0132 3489.8586 L 4232.7606 3488.6059 L 4231.5079 3487.9796 L 4229.6288 3487.9796 L 4228.3762 3488.6059 L 4227.1235 3489.8586 L 4226.4971 3491.7377 L 4226.4971 3492.9903 L 4227.1235 3494.8694 L 4228.3762 3496.122 L 4229.6288 3496.7484 L 4231.5079 3496.7484 L 4232.7606 3496.122 L 4234.0132 3494.8694 M 4245.0369 3489.8586 L 4244.4105 3488.6059 L 4242.5315 3487.9796 L 4240.6525 3487.9796 L 4238.7734 3488.6059 L 4238.1471 3489.8586 L 4238.7734 3491.1113 L 4240.0261 3491.7377 L 4243.1578 3492.364 L 4244.4105 3492.9903 L 4245.0369 3494.243 L 4245.0369 3494.8694 L 4244.4105 3496.122 L 4242.5315 3496.7484 L 4240.6525 3496.7484 L 4238.7734 3496.122 L 4238.1471 3494.8694 M 4251.0497 3483.5952 L 4251.0497 3494.243 L 4251.6761 3496.122 L 4252.9288 3496.7484 L 4254.1815 3496.7484 M 4249.1707 3487.9796 L 4253.5551 3487.9796 M 4258.3153 3483.5952 L 4258.9417 3484.2215 L 4259.568 3483.5952 L 4258.9417 3482.9689 L 4258.3153 3483.5952 M 4258.9417 3487.9796 L 4258.9417 3496.7484 M 4271.218 3489.8586 L 4269.9653 3488.6059 L 4268.7126 3487.9796 L 4266.8336 3487.9796 L 4265.5809 3488.6059 L 4264.3282 3489.8586 L 4263.7019 3491.7377 L 4263.7019 3492.9903 L 4264.3282 3494.8694 L 4265.5809 3496.122 L 4266.8336 3496.7484 L 4268.7126 3496.7484 L 4269.9653 3496.122 L 4271.218 3494.8694 M 4284.9975 3483.5952 L 4284.9975 3496.7484 M 4284.9975 3483.5952 L 4290.0082 3496.7484 M 4295.019 3483.5952 L 4290.0082 3496.7484 M 4295.019 3483.5952 L 4295.019 3496.7484 M 4299.1528 3491.7377 L 4306.6689 3491.7377 L 4306.6689 3490.485 L 4306.0426 3489.2323 L 4305.4162 3488.6059 L 4304.1636 3487.9796 L 4302.2845 3487.9796 L 4301.0319 3488.6059 L 4299.7792 3489.8586 L 4299.1528 3491.7377 L 4299.1528 3492.9903 L 4299.7792 3494.8694 L 4301.0319 3496.122 L 4302.2845 3496.7484 L 4304.1636 3496.7484 L 4305.4162 3496.122 L 4306.6689 3494.8694 M 4317.6926 3489.8586 L 4317.0662 3488.6059 L 4315.1872 3487.9796 L 4313.3082 3487.9796 L 4311.4291 3488.6059 L 4310.8028 3489.8586 L 4311.4291 3491.1113 L 4312.6818 3491.7377 L 4315.8135 3492.364 L 4317.0662 3492.9903 L 4317.6926 3494.243 L 4317.6926 3494.8694 L 4317.0662 3496.122 L 4315.1872 3496.7484 L 4313.3082 3496.7484 L 4311.4291 3496.122 L 4310.8028 3494.8694 M 4321.8264 3483.5952 L 4321.8264 3496.7484 M 4321.8264 3490.485 L 4323.7054 3488.6059 L 4324.9581 3487.9796 L 4326.8372 3487.9796 L 4328.0898 3488.6059 L 4328.7162 3490.485 L 4328.7162 3496.7484 M 4342.4957 3483.5952 L 4342.4957 3496.7484 M 4342.4957 3483.5952 L 4346.8801 3483.5952 L 4348.7591 3484.2215 L 4350.0118 3485.4742 L 4350.6382 3486.7269 L 4351.2645 3488.6059 L 4351.2645 3491.7377 L 4350.6382 3493.6167 L 4350.0118 3494.8694 L 4348.7591 3496.122 L 4346.8801 3496.7484 L 4342.4957 3496.7484 M 4355.3984 3491.7377 L 4362.9145 3491.7377 L 4362.9145 3490.485 L 4362.2881 3489.2323 L 4361.6618 3488.6059 L 4360.4091 3487.9796 L 4358.5301 3487.9796 L 4357.2774 3488.6059 L 4356.0247 3489.8586 L 4355.3984 3491.7377 L 4355.3984 3492.9903 L 4356.0247 3494.8694 L 4357.2774 3496.122 L 4358.5301 3496.7484 L 4360.4091 3496.7484 L 4361.6618 3496.122 L 4362.9145 3494.8694 M 4367.0483 3487.9796 L 4370.8064 3496.7484 M 4374.5644 3487.9796 L 4370.8064 3496.7484 M 4378.6983 3483.5952 L 4379.3246 3484.2215 L 4379.951 3483.5952 L 4379.3246 3482.9689 L 4378.6983 3483.5952 M 4379.3246 3487.9796 L 4379.3246 3496.7484 M 4391.6009 3489.8586 L 4390.3482 3488.6059 L 4389.0956 3487.9796 L 4387.2165 3487.9796 L 4385.9639 3488.6059 L 4384.7112 3489.8586 L 4384.0848 3491.7377 L 4384.0848 3492.9903 L 4384.7112 3494.8694 L 4385.9639 3496.122 L 4387.2165 3496.7484 L 4389.0956 3496.7484 L 4390.3482 3496.122 L 4391.6009 3494.8694 M 4395.7348 3491.7377 L 4403.2509 3491.7377 L 4403.2509 3490.485 L 4402.6246 3489.2323 L 4401.9982 3488.6059 L 4400.7455 3487.9796 L 4398.8665 3487.9796 L 4397.6138 3488.6059 L 4396.3611 3489.8586 L 4395.7348 3491.7377 L 4395.7348 3492.9903 L 4396.3611 3494.8694 L 4397.6138 3496.122 L 4398.8665 3496.7484 L 4400.7455 3496.7484 L 4401.9982 3496.122 L 4403.2509 3494.8694" fill="none"  stroke-width="1.9685"  /></g><path d="M 4382.758 3350.6977 A 6.2992 6.2992 0 1 1 4395.3565 3350.6977 A 6.2992 6.2992 0 1 1 4382.758 3350.6977 Z" stroke-width="0"   net="" type="npth" layerid="11" id="gge452" locked="0" c_teardrop="" c_targetpad="" c_targetwire="" /><path d="M 4054.0219 3351.4061 A 6.2992 6.2992 0 1 1 4041.4235 3351.4061 A 6.2992 6.2992 0 1 1 4054.0219 3351.4061 Z" stroke-width="0"   net="" type="npth" layerid="11" id="gge455" locked="0" c_teardrop="" c_targetpad="" c_targetwire="" /><path d="M 4395.2915 3539.1299 A 6.2992 6.2992 0 1 1 4382.6931 3539.1299 A 6.2992 6.2992 0 1 1 4395.2915 3539.1299 Z" stroke-width="0"   net="" type="npth" layerid="11" id="gge458" locked="0" c_teardrop="" c_targetpad="" c_targetwire="" /><path d="M 4054.8222 3539.3181 A 6.2992 6.2992 0 1 1 4042.2237 3539.3181 A 6.2992 6.2992 0 1 1 4054.8222 3539.3181 Z" stroke-width="0"   net="" type="npth" layerid="11" id="gge461" locked="0" c_teardrop="" c_targetpad="" c_targetwire="" /><path d="M 4288.378 3372.2725 A 4.7244 4.7244 0 1 1 4278.9292 3372.2725 A 4.7244 4.7244 0 1 1 4288.378 3372.2725 Z" stroke-width="0"   net="" type="npth" layerid="11" id="gge464" locked="0" c_teardrop="" c_targetpad="" c_targetwire="" /><path d="M 4345.1536 3460.7725 L 4223.6536 3460.7725 L 4223.6536 3394.7725 L 4345.1536 3394.7725 Z" stroke-width="0"   net="" type="npth" layerid="11" id="gge467" locked="0" c_teardrop="" c_targetpad="" c_targetwire="" /><polyline points="4395.3071 3331.3032 4041.4927 3331.3032" stroke-width="1"  stroke-linecap="round" fill="none" layerid="10" net="" id="gge118" locked="0" /><polyline points="4021.9289 3539.0668 4021.9289 3351.1095" stroke-width="1"  stroke-linecap="round" fill="none" layerid="10" net="" id="gge103" locked="0" /><polyline points="4395.5073 3558.7666 4041.6287 3558.7666" stroke-width="1"  stroke-linecap="round" fill="none" layerid="10" net="" id="gge88" locked="0" /><polyline points="4415.062 3538.9512 4415.062 3350.9184" stroke-width="1"  stroke-linecap="round" fill="none" layerid="10" net="" id="gge73" locked="0" /><path d="M 4415.062 3350.9184 A 19.68504 19.68504 0 0 0 4395.3769 3331.2334" locked="0"  fill="none" stroke-width="1" c_helper_type="arc2" net="" layerid="10" id="gge223" /><path d="M 4041.4927 3331.3032 A 19.685 19.685 0 0 0 4021.8076 3350.9882" locked="0"  fill="none" stroke-width="1" c_helper_type="arc2" net="" layerid="10" id="gge238" /><path d="M 4021.9289 3539.0668 A 19.685 19.685 0 0 0 4041.614 3558.7519" locked="0"  fill="none" stroke-width="1" c_helper_type="arc2" net="" layerid="10" id="gge253" /><path d="M 4395.5073 3558.7666 A 19.685 19.685 0 0 0 4415.1924 3539.0815" locked="0"  fill="none" stroke-width="1" c_helper_type="arc2" net="" layerid="10" id="gge268" /></svg>