<svg xmlns="http://www.w3.org/2000/svg" xml:space="preserve" viewBox="0 0 800.5 196.2"><path d="m167.2 98.4-54.9 10c-1.4 1.8-4.7 4.8-6.3 5.6-6.9 3.5-11.6 2.5-15.7 1.4-2.6-.7-4.1-1-6.3-2l-13.4 1.8 8.1 67.9 94.1-17zm-83.8 78.3-.8-7.4L98 145.9l17.4 5.1 15-25.1 18 11.9 13.7-28.7 4.9 52.2zM79.5 110c-6.8-4.4-13.8-10.6-16.9-14.1-.5-.4-.4-2.1-.4-2.1 2.8 2.2 14.3 10.4 26.4 14.1 4.3 1.3 10.9 1.8 16.6-1.4 4.4-2.5 9.6-6.8 12.7-11.2l.6 1c0 .7-1.5 3.9-2.2 5.2 1.3.8 2.3 1 3.8 1.4l10.1-1.6c3.6-5.8 6.2-15.2 3.4-24.2-1.6-5.1-9.8-15.4-10.4-15.9-2.1-2 .3-9.6-3.7-18-4.3-8.8-15.6-18-20.5-22.1 1.4 1 10.3 4.6 14.4 9.6.4-.5.6-3.2.9-3.9-3.6-4.6-3.8-12.9-3.8-15.1 0-4.1-2.1-8.7-2.1-8.7s3.6 2.8 4.5 7.7c1.1 5.7 3.4 10.3 6.5 14.1 5.8 7.2 11 10.9 13.7 8.2 3.2-3.2-3.2-17.5-11.3-25.5-9.5-9.3-12-8.1-17.5-6.1-4.4 1.5-6.8 14.2-18.4 13.9-2-.2-7-.4-9.5-.3 1.3-1.8 2.4-3.2 2.4-3.2s-3.9 1.6-7.2 3.6l-.3-.4c1.1-2.4 2.3-3.8 2.3-3.8s-3.1 1.9-5.9 4.1c.5-2.8 2.5-4.6 2.5-4.6s-3.9.7-8.9 6.2c-5.7 1.5-7 2.6-11.6 4.6-7.4-1.6-10.8-4.2-14.1-9-2.5-3.6-7-4.2-11.6-2.3-6.7 2.8-15.1 6.5-15.1 6.5s2.8-.1 5.6 0c-3.9 1.5-7.7 3.5-7.7 3.5s1.8-.1 4.1 0c-1.6 1.3-2.4 1.9-3.9 2.9C3.4 25.7.5 28.7.5 28.7s2.4-1.1 4.6-1.7c-1.5 3.5-4.6 6.1-4 10.4.5 3.9 5.3 12 11.6 17 .5.4 9 8.3 15.4 5.1s8.9-6.1 10-10.5c1.2-5.1.5-8.9-2.1-19.9-.9-3.6-3.1-11.1-4.2-14.6l.2-.2c2.1 4.4 7.4 16.1 9.6 23.9 3.4 12.2 2.3 18.4.8 20.7-4.7 6.8-16.6 7.8-22 4-.8 13.1 2.1 18.9 3.1 21.8-.5 3.3 1.7 9.6 1.7 9.6s.2-2.8 1.2-4.3c.3 3.3 1.9 7.3 1.9 7.3s-.1-2.4.7-4.5c1.1 1.8 1.9 2.2 2.9 3.6 1 3.6 3 6.2 3 6.2s-.3-1.9-.2-3.9c5 4.8 5.8 11.8 6.3 17.1 1.4 14.7-23.2 26.4-28 35.6-3.6 5.4-5.8 14.1.3 19.2 14.8 12.3 9.1 15.7 16.5 21.1 10.2 7.4 22.9 4.1 27.2-1.9 6-8.4 4.5-16.3 2.2-23.7-1.8-5.8-6.5-15.4-12.4-19.1-6-3.8-11.9-4.5-16.8-4l.5-.5c7.1-1.4 14.6-.6 20 2.8 6.1 3.9 11.7 10.7 14.6 21 3.3-.5 3.8-.7 6.8-1.1L65 111.6zm34.3-66.7c6.3 2.9 5.5 8.5 5.6 11.8.1.9 0 1.6-.1 2-.9-.5-2.2-.8-4.4-.7-.6 0-1.3.1-1.9.2-2.3-1.2-3.7-3.7-5-6.3-.1-.2-.2-.5-.3-.7 0-.1-.1-.2-.1-.3v-.1c-.7-2.2-.2-2.7.1-3.3s1.4-1.3-.2-1.8c-.1 0-.3-.1-.5-.1 1.1-1.4 4.4-1.8 6.8-.7M106 79.9c1.2-.9 6.8-2.7 12-3.4 2.7-.3 6.6-.5 7.4 0 1.6.9 1.6 3.7.5 6.3-1.6 3.8-3.9 7.9-6.6 8.2-4.3.6-8.3-1.7-12.9-5.2-1.6-1.2-2.6-4.2-.4-5.9M65.6 51.4c6.8-4.6 15.5-2.8 14-1.4-2.8 2.7.9 1.9 1.3 6.8.3 3.6-.9 5.6-1.9 6.7-2.1.3-4.7.8-7.8 1.8-1.8.6-3.4 1.2-4.8 1.9q-.6-.3-1.2-.9c-4.7-4.2-4.5-11.5.4-14.9" style="fill:#fff"/><path d="M249.2 141.8H211v-88h38.2c27.5 0 41.3 13.9 41.3 41.6 0 30.9-13.7 46.4-41.3 46.4m-21.8-14.2h19.4c18.3 0 27.4-10.7 27.4-32.2 0-18.3-9.1-27.4-27.4-27.4h-19.4zm80.2 14.2h-16.7l37.4-88h17.6l38.2 88h-17.6l-11.1-24h-28.2l5.6-14.1h18.3l-14.4-33.1zm67.2-88h66.9V68h-25.2v73.8h-16.4V68h-25.3zm75.3 88h-16.8l37.5-88h17.5l38.2 88H509l-11.1-24h-28.3l5.6-14.1h18.3l-14.4-33.1zm125.5 0h-38.2v-88h38.2c27.5 0 41.3 13.9 41.3 41.6 0 30.9-13.8 46.4-41.3 46.4m-21.9-14.2h19.4c18.3 0 27.4-10.7 27.4-32.2 0-18.3-9.2-27.4-27.4-27.4h-19.4zM628 97.9c0-29.8 14.8-44.7 44.3-44.7 29 0 43.6 14.9 43.6 44.7 0 29.7-14.5 44.5-43.6 44.5-28.3 0-43-14.8-44.3-44.5m44.2 30.3c17.7 0 26.6-10.2 26.6-30.7 0-20.2-8.9-30.2-26.6-30.2-18.2 0-27.3 10.1-27.3 30.2 0 20.5 9.1 30.7 27.3 30.7m111.7-22v20.6c-3.8 1-7.1 1.5-10.1 1.5-20 0-30-10.6-30-31.7 0-19.5 10.6-29.2 31.7-29.2 8.8 0 17 1.6 24.7 4.9V57.5c-7.6-2.9-16.2-4.3-25.9-4.3-31.6 0-47.5 14.4-47.5 43.4 0 30.6 15.5 45.8 46.7 45.8 10.7 0 19.6-1.6 26.7-4.7v-46h-26.4l-5.5 14.5z" style="fill-rule:evenodd;clip-rule:evenodd;fill:#fff"/></svg>